<svg width="75" height="73" viewBox="0 0 75 73" fill="none" xmlns="http://www.w3.org/2000/svg">
<g id="CHARIZARD 1">
<g id="Group">
<path id="Vector" d="M51.9851 27.9387L51.8651 27.8559L52.0221 28.1868C52.0713 28.2848 52.1821 28.4012 52.3544 28.536L52.613 28.7657L52.6037 28.5084C52.5914 28.3859 52.3852 28.196 51.9851 27.9387ZM57.4324 25.1542C57.5063 24.8724 57.6509 24.5263 57.8663 24.1158L58.1803 23.5552C58.2541 23.445 58.3557 23.4082 58.4849 23.445C58.608 23.4878 58.6634 23.5767 58.6511 23.7115L58.5588 24.9796C58.5034 25.8741 58.4911 26.4806 58.5219 26.7991C58.5403 26.9523 58.5803 27.0687 58.6419 27.1483L58.9096 27.3505L59.2974 27.5803C59.4759 27.7028 59.6082 27.8345 59.6944 27.9754C59.916 28.3246 60.0637 28.8637 60.1376 29.5928C60.2114 30.2667 60.1961 30.769 60.0914 31.0999C60.0545 31.2163 60.0483 31.3173 60.073 31.4031C60.0914 31.4828 60.1468 31.5747 60.2391 31.6788L60.4515 31.7983L60.6361 31.9361L60.71 32.2577C60.7039 32.3374 60.6608 32.4232 60.5808 32.5151L60.3776 32.7907C60.3038 32.9255 60.2668 33.048 60.2668 33.1583L60.3222 33.5351C60.3469 33.7373 60.3376 33.8966 60.2945 34.013C60.2391 34.1845 60.1253 34.2733 59.9529 34.2794C59.756 34.2611 59.6206 34.2611 59.5467 34.2794C59.399 34.3223 59.2851 34.3775 59.2051 34.4449C59.0881 34.5674 59.0112 34.7297 58.9743 34.9319C58.9312 35.128 58.9373 35.2872 58.9927 35.4098L59.1682 35.4649L59.3805 35.52L59.6667 35.5844C59.7775 35.6395 59.8421 35.7314 59.8606 35.8601L59.7221 36.053L59.4636 36.3655L59.122 36.7239C58.9743 36.8893 58.9404 37.0057 59.0204 37.0731C59.0758 37.116 59.1805 37.0271 59.3343 36.8066C59.5559 36.488 59.7313 36.2675 59.8606 36.1449C60.2422 35.7773 60.6454 35.5231 61.0701 35.3822C61.581 35.1862 61.8364 35.1096 61.8364 35.1525L61.6979 35.3362L61.5502 35.5109C61.9564 35.3148 62.5227 35.082 63.249 34.8124L63.6829 34.7389C63.9045 34.7083 64.0184 34.7083 64.0245 34.7389C64.0369 34.7941 63.9538 34.886 63.7753 35.0146L63.4244 35.2535L61.0516 37.1006C60.8054 37.2967 60.5623 37.5816 60.3222 37.9553C60.1191 38.2555 59.9837 38.5097 59.916 38.718C59.8729 38.8589 59.796 38.9661 59.6852 39.0396L59.3528 39.2326L59.1774 39.3613L59.1866 39.4164C59.2297 39.6002 59.2236 39.8422 59.1682 40.1424L58.9743 40.3446L58.7619 40.5192C60.2084 42.8778 61.147 45.2181 61.5779 47.54C62.2303 51.0198 61.6425 54.1013 59.8144 56.7847C57.494 60.1848 54.6965 62.3168 51.4219 63.1806C50.0247 63.5482 48.4244 63.7259 46.6209 63.7136L41.3768 63.3368C38.3977 62.9999 35.6279 61.8818 33.0674 59.9827C32.2549 59.3761 31.507 58.7206 30.8238 58.0161L29.9652 57.0604L30.1221 56.2976L45.116 52.2818L45.3745 53.3662L45.7992 52.9802C45.83 52.8761 45.83 52.775 45.7992 52.6769C45.7685 52.5912 45.7284 52.5269 45.6792 52.484L47.7843 53.5224C49.1876 54.2085 50.6341 54.3249 52.1236 53.8716C53.9209 53.3263 55.4535 51.9969 56.7215 49.8833C57.5586 48.4865 57.9033 46.8569 57.7556 44.9945C57.6448 43.5793 57.2785 42.1672 56.6569 40.7581C56.2014 40.7765 55.9429 40.8194 55.8813 40.8867C55.7028 41.0889 55.5336 41.2114 55.3735 41.2543C55.035 41.3585 54.6072 41.2359 54.0902 40.8867L54.0532 40.8592C53.8871 40.7489 53.8163 40.5161 53.8409 40.1608L53.8132 39.8851L53.7301 39.6829C53.6809 39.6278 53.6039 39.5788 53.4993 39.5359L53.1207 39.3797L52.7422 39.4164L52.2898 39.6094C51.939 39.8177 51.7235 39.931 51.6435 39.9494C51.3727 40.0168 51.1542 39.8299 50.988 39.3888L50.7849 38.6077L50.7387 38.4699L50.5264 38.0196C50.4587 37.8481 50.4771 37.6796 50.5818 37.5142C50.6433 37.41 50.7079 37.1558 50.7756 36.7514C50.8434 36.3471 50.8741 36.0347 50.868 35.8141L50.8587 35.4373C50.8587 35.2597 50.8957 35.0912 50.9695 34.9319C51.0126 34.84 51.0957 34.7083 51.2188 34.5368L51.5235 34.0497L51.6158 33.6913L51.5697 33.3697C51.5081 33.1308 51.4835 32.9225 51.4958 32.7448L51.5235 32.2945C51.5358 32.1168 51.5697 31.9606 51.6251 31.8258C51.6497 31.7646 51.7328 31.6145 51.8743 31.3755C51.9728 31.204 52.019 31.0815 52.0128 31.008C52.0005 30.8854 51.8928 30.5393 51.6897 29.9695C51.4866 29.4304 51.3665 29.0445 51.3296 28.8117C51.2927 28.5727 51.2742 28.3124 51.2742 28.0305L51.2834 27.6538C51.2896 27.5864 51.3235 27.5282 51.385 27.4792L50.5633 26.7624C50.5141 26.7195 50.4864 26.6674 50.4802 26.6062C50.4679 26.5388 50.4833 26.4775 50.5264 26.4224C50.5571 26.3734 50.6064 26.3397 50.6741 26.3213L50.8495 26.3489C51.4219 26.6368 51.7882 26.7991 51.9482 26.8359L52.4375 26.8267L52.6591 26.79C52.9853 26.7409 53.3393 26.9064 53.7209 27.2862L53.7947 27.3689L53.6747 26.3764C53.6562 26.113 53.7516 25.6995 53.9609 25.1358C54.121 24.7315 54.3179 24.2965 54.5518 23.8309C54.6503 23.6349 54.7303 23.2489 54.7919 22.673L54.8657 21.4784C54.8657 21.3436 54.9304 21.264 55.0596 21.2395C55.1889 21.2088 55.2843 21.2517 55.3458 21.3681L55.4658 21.6806C55.5459 21.9256 55.5859 22.1584 55.5859 22.379C55.5859 22.5383 55.629 22.8262 55.7151 23.2428L55.632 22.4984C55.6259 22.431 55.6413 22.3698 55.6782 22.3146C55.7213 22.2534 55.7767 22.2166 55.8444 22.2044C55.9121 22.1982 55.9767 22.2136 56.0383 22.2503C56.0937 22.2871 56.1275 22.3391 56.1398 22.4065L56.2229 22.7741C56.2968 23.0437 56.3768 23.2704 56.463 23.4541C56.543 23.6318 56.5799 23.8401 56.5738 24.079L56.4999 24.6947L56.4353 25.1083C56.423 25.3043 56.5922 25.6321 56.9431 26.0916L57.1647 26.3856L57.2662 26.5602L57.2939 26.1743C57.3247 25.7148 57.3709 25.3748 57.4324 25.1542Z" fill="#0D131A"/>
<path id="Vector_2" d="M56.9892 30.2636L57.1554 30.1717C57.1985 30.1901 57.1985 30.285 57.1554 30.4566C57.0939 30.7077 57.0662 31.0079 57.0723 31.3571C57.0785 31.6818 57.1123 31.9575 57.1739 32.1842C57.2293 32.3741 57.3185 32.5487 57.4416 32.708C57.5463 32.855 57.6017 32.9959 57.6078 33.1307C57.614 33.4493 57.5894 33.7495 57.534 34.0313C57.534 34.0926 57.5555 34.1355 57.5986 34.16C57.6355 34.1845 57.694 34.163 57.774 34.0956C57.854 33.9976 57.9248 33.8628 57.9864 33.6913C58.0171 33.5994 58.0202 33.4891 57.9956 33.3605C57.9833 33.2012 58.0079 33.0603 58.0695 32.9377L58.2172 32.6345C58.2726 32.5242 58.328 32.4783 58.3834 32.4967L58.4111 32.6529L58.3649 33.1215L58.4757 33.287L58.5219 33.5626C58.5096 33.6607 58.4234 33.8935 58.2634 34.261L58.051 34.8767C57.9833 35.085 57.9556 35.2413 57.9679 35.3454C57.9987 35.6334 58.0571 35.7773 58.1433 35.7773L58.2172 35.6579L58.291 35.4097L58.5865 34.8492C58.648 34.745 58.765 34.6072 58.9373 34.4356C58.8019 34.6807 58.7342 34.9349 58.7342 35.1984C58.7342 35.3148 58.765 35.4496 58.8265 35.6027C58.8696 35.7007 58.9927 35.7712 59.1958 35.8141C59.3928 35.8447 59.4975 35.9029 59.5098 35.9887C59.5221 36.0867 59.4544 36.197 59.3066 36.3195L58.9558 36.6228C58.8635 36.7392 58.8142 36.8586 58.8081 36.9812C58.7958 37.1221 58.845 37.2293 58.9558 37.3028C59.0789 37.3886 59.2574 37.2691 59.4913 36.9444L60.0176 36.2368C60.2145 36.0714 60.6392 35.8325 61.2917 35.52L60.7008 36.0254C60.6146 36.099 60.5315 36.2062 60.4515 36.3471L60.3592 36.5401L60.7285 36.2919C61.0239 36.102 61.2855 35.9427 61.5132 35.8141C61.8826 35.618 62.4919 35.3638 63.3413 35.0513L60.9131 36.7882C60.6238 37.0149 60.3438 37.2936 60.073 37.6244C59.8206 37.943 59.6606 38.2034 59.5929 38.4055C59.5375 38.5587 59.4082 38.718 59.2051 38.8834L58.7804 39.205C58.725 39.2663 58.7096 39.3551 58.7342 39.4715L58.7434 39.931C58.7188 40.0352 58.6573 40.1301 58.5588 40.2159L57.1924 38.7456L56.6015 38.2217L56.2783 37.992L56.9523 38.9018L56.4353 38.9569L56.3153 39.1131L55.9367 38.4239L55.9736 38.7364C56.029 39.0182 56.1244 39.3551 56.2599 39.7472L55.8629 39.784L55.6228 39.8575L55.4658 39.8483C55.2873 39.6951 55.1919 39.5879 55.1796 39.5267C55.1735 39.4899 55.1858 39.4531 55.2166 39.4164L55.2812 39.3337C55.3551 39.1928 55.3797 38.9967 55.3551 38.7456C55.3304 38.4944 55.2658 38.3045 55.1612 38.1758C55.0627 38.0471 54.8811 37.9032 54.6164 37.7439C54.3333 37.5785 54.1086 37.4958 53.9425 37.4958C53.8809 37.4958 53.7824 37.5295 53.647 37.5969L53.3239 37.7439C53.2069 37.7745 53.1084 37.7224 53.0284 37.5877C52.893 37.3304 52.7884 37.0394 52.7145 36.7147C52.6406 36.3716 52.6437 36.1602 52.7237 36.0806C52.8161 35.9887 53.0869 35.8417 53.5362 35.6395L54.0071 35.373C54.1425 35.2811 54.2256 35.1861 54.2564 35.0881C54.3302 34.8859 54.2502 34.6409 54.0163 34.3529C53.7086 33.9792 53.6409 33.6208 53.8132 33.2778C53.8871 33.1185 54.0656 32.9868 54.3487 32.8826C54.521 32.8152 54.6995 32.6835 54.8842 32.4875L55.1704 31.9637L55.4105 31.2377C55.472 31.0171 55.5305 30.9069 55.5859 30.9069C55.6228 30.9069 55.6474 30.9926 55.6597 31.1642C55.672 31.3908 55.6597 31.6145 55.6228 31.835L55.5489 32.2761C55.5366 32.3619 55.5428 32.417 55.5674 32.4415C55.6105 32.4844 55.6628 32.4997 55.7244 32.4875C55.8967 32.4446 56.0383 32.3496 56.1491 32.2026C56.2783 32.0188 56.3737 31.737 56.4353 31.3571C56.4845 31.0631 56.5922 30.7905 56.7584 30.5393L56.9892 30.2636Z" fill="#EFE908"/>
<path id="Vector_3" d="M57.6725 25.2185C57.7463 24.949 57.891 24.6151 58.1064 24.2168L58.4018 23.693L58.3095 24.9612C58.248 25.8679 58.2357 26.4897 58.2726 26.8267C58.3034 27.1269 58.4388 27.3566 58.6788 27.5159C59.005 27.7303 59.2235 27.9233 59.3343 28.0948C59.5436 28.4257 59.7036 28.9311 59.8144 29.6111C59.9252 30.2728 59.9375 30.7445 59.8514 31.0263C59.7837 31.2469 59.8237 31.4613 59.9714 31.6696L60.313 32.1291C60.3684 32.2455 60.3776 32.3312 60.3407 32.3864C60.2668 32.4721 60.2022 32.5702 60.1468 32.6804C60.0914 32.7968 60.0637 32.9439 60.0637 33.1215C60.0637 33.336 60.0329 33.5259 59.9714 33.6913C59.9098 33.8812 59.7714 34.0099 59.5559 34.0772C59.2789 34.163 59.0974 34.2488 59.0112 34.3346L58.8635 34.5275C58.6665 34.7358 58.4972 35.0023 58.3557 35.327L58.2449 35.6762L58.1618 35.8416C58.1249 35.8539 58.0879 35.8202 58.051 35.7406L57.9587 35.4097C57.9402 35.2811 57.9556 35.1279 58.0048 34.9503L58.1803 34.4264L58.3741 33.9486L58.4849 33.581L58.4757 33.3605L58.4018 33.2594C58.3526 33.1859 58.328 33.1123 58.328 33.0388L58.3741 32.6988C58.3926 32.6008 58.3895 32.5487 58.3649 32.5426C58.3095 32.5303 58.2326 32.6375 58.1341 32.8642C58.0418 33.0603 58.0048 33.2196 58.0233 33.3421V33.6637C57.8879 34.0436 57.7494 34.2212 57.6078 34.1967C57.5032 34.1783 57.4786 34.0619 57.534 33.8475L57.5801 33.2042C57.5801 33.0327 57.537 32.8857 57.4509 32.7631C57.3155 32.5855 57.2293 32.4323 57.1924 32.3037C57.0569 31.8319 57.0015 31.3816 57.0262 30.9528C57.0323 30.8119 57.0693 30.6312 57.137 30.4106C57.2231 30.1227 57.137 30.1319 56.8784 30.4382C56.6876 30.6894 56.5584 30.965 56.4907 31.2652C56.3799 31.7799 56.2537 32.1229 56.1121 32.2945C56.069 32.3435 56.0013 32.3925 55.909 32.4415C55.8044 32.4966 55.7182 32.5211 55.6505 32.515L55.5397 32.4415L55.512 32.3404L55.6413 31.3755C55.6597 31.0998 55.6413 30.962 55.5859 30.962C55.5551 30.962 55.5212 31.0202 55.4843 31.1366L55.3551 31.5501C55.2073 32.0157 55.0842 32.3067 54.9857 32.4231L54.6349 32.7448L54.2841 32.9561C54.1733 32.999 54.0902 33.0419 54.0348 33.0848C53.9609 33.146 53.8994 33.2379 53.8501 33.3605C53.7578 33.5688 53.7486 33.774 53.8224 33.9762L54.0809 34.3989L54.2933 34.7573C54.3364 34.8675 54.3395 34.9839 54.3025 35.1065C54.2779 35.1739 54.1917 35.2658 54.044 35.3822L53.4254 35.7314C53.1423 35.8355 52.9238 35.9611 52.7699 36.1081C52.616 36.2674 52.7114 36.7545 53.0561 37.5693C53.1177 37.6918 53.2038 37.7378 53.3146 37.7071L53.6101 37.5693C53.764 37.4958 53.8963 37.459 54.0071 37.459C54.1302 37.459 54.3395 37.5509 54.6349 37.7347C54.9119 37.9001 55.0935 38.0318 55.1796 38.1298C55.2658 38.2217 55.3274 38.3963 55.3643 38.6536C55.4012 38.8926 55.4012 39.0733 55.3643 39.1958L55.235 39.4256C55.1981 39.4868 55.2043 39.5389 55.2535 39.5818L55.4381 39.7564C55.4997 39.8115 55.5643 39.833 55.632 39.8207L55.8813 39.738L56.2414 39.7013L56.4445 40.2434L56.3522 40.2251C56.2106 40.1944 56.0321 40.2925 55.8167 40.5191L55.3366 40.951C55.1458 41 54.7765 40.8438 54.2287 40.4824C54.1302 40.415 54.084 40.3261 54.0902 40.2159C54.1025 40.0382 54.0902 39.9004 54.0532 39.8023C53.9978 39.6431 53.8871 39.5205 53.7209 39.4348C53.5054 39.3551 53.3331 39.2785 53.2038 39.205L52.5022 39.2418L51.8374 39.5083C51.6835 39.545 51.5204 39.4409 51.3481 39.1958C51.2188 39.0059 51.1111 38.7854 51.0249 38.5342L50.8864 38.0471C50.8618 37.894 50.8957 37.7439 50.988 37.5968C51.0742 37.4559 51.1234 37.1159 51.1357 36.5768L51.1173 35.4373C51.1173 35.2351 51.188 35.033 51.3296 34.8308L51.7543 34.16C51.8651 33.9333 51.8959 33.6974 51.8466 33.4524C51.7789 33.1032 51.7482 32.8734 51.7543 32.7631C51.7666 32.5977 51.862 32.2914 52.0405 31.8442C52.2067 31.4337 52.2806 31.1458 52.2621 30.9804C52.2498 30.815 52.1421 30.4566 51.939 29.9052C51.7297 29.3232 51.6097 28.9464 51.5789 28.7749C51.542 28.5482 51.5266 28.297 51.5327 28.0213L51.542 27.6721L51.5881 27.8467C51.6374 27.9938 51.7081 28.1469 51.8005 28.3062C51.8743 28.441 52.0005 28.5819 52.179 28.7289C52.376 28.8882 52.5175 29.0322 52.6037 29.1608C52.6899 29.2895 52.7484 29.4457 52.7791 29.6295C52.8653 29.1149 52.893 28.732 52.8622 28.4808C52.8438 28.3154 52.7207 28.1439 52.4929 27.9662L51.9205 27.5894C51.7974 27.5036 51.5635 27.3076 51.2188 27.0013L50.7295 26.5694L51.1819 26.7899C51.5081 26.9492 51.742 27.0472 51.8836 27.084L52.299 27.1116L52.6868 27.038C52.9392 27.0013 53.2254 27.1422 53.5454 27.4608C53.607 27.522 53.6532 27.6476 53.6839 27.8375C53.7209 28.0397 53.8009 28.2266 53.924 28.3981C54.1517 28.7044 54.281 28.9433 54.3118 29.1149C54.084 27.6446 53.9548 26.7256 53.924 26.358C53.9055 26.113 54.0071 25.7147 54.2287 25.1634C54.3764 24.7774 54.561 24.37 54.7826 23.9412C54.9057 23.6961 54.9981 23.2152 55.0596 22.4984L55.115 21.4875L55.2258 21.754C55.2997 21.9746 55.3366 22.1829 55.3366 22.3789C55.3366 22.5443 55.3735 22.82 55.4474 23.206L55.5859 24.0698C55.6166 24.4068 55.6443 24.5477 55.669 24.4925C55.7551 24.3823 55.8413 24.1985 55.9275 23.9412C56.0137 23.69 55.9983 23.1968 55.8813 22.4616L55.9736 22.8384L56.2229 23.5644C56.3091 23.7543 56.3337 24.0024 56.2968 24.3087L56.186 25.0899C56.1675 25.2982 56.2568 25.5524 56.4537 25.8526L56.9523 26.5326C57.1247 26.7838 57.2231 27.0656 57.2478 27.3781C57.3647 27.182 57.4509 26.9553 57.5063 26.698L57.5617 26.0548C57.574 25.7362 57.6109 25.4574 57.6725 25.2185Z" fill="#E50020"/>
<path id="Vector_4" d="M33.2982 59.5324C32.4857 58.9442 31.7378 58.3193 31.0546 57.6577L30.2699 56.8306L37.4529 54.91C38.1299 56.1782 38.9917 57.3146 40.038 58.3193C41.6814 59.8877 43.5649 60.8802 45.6884 61.2967C49.72 62.0809 53.5485 61.2048 57.1739 58.6685C57.931 58.1355 58.6388 57.4739 59.2974 56.6836C57.0262 59.9244 54.3087 61.94 51.1449 62.7303C49.8093 63.0673 48.2767 63.2235 46.5471 63.199L41.5707 62.8222C38.6593 62.4914 35.9018 61.3948 33.2982 59.5324Z" fill="#DDD583"/>
<path id="Vector_5" d="M38.21 54.7262L41.4691 53.844C42.3062 55.3572 43.5865 56.5733 45.3099 57.4923C47.0764 58.4296 49.0245 58.8983 51.1542 58.8983C53.0069 58.8983 54.7365 58.5368 56.3429 57.8139C57.9002 57.1094 59.1558 56.1506 60.1099 54.9376C59.3159 56.3711 58.2726 57.5229 56.98 58.3928C53.4162 60.7882 49.6708 61.603 45.7438 60.8373C43.7188 60.439 41.9769 59.4956 40.5181 58.0069C39.7057 57.1737 38.9363 56.0801 38.21 54.7262Z" fill="#D18200"/>
<path id="Vector_6" d="M56.4076 38.8834L56.2783 38.1574L56.6569 38.4882L56.9892 38.9569L58.1064 40.4548C59.0727 41.8271 59.8729 43.4322 60.5069 45.2701C61.1162 47.0345 61.4209 48.5631 61.4209 49.8557C61.4209 51.6569 60.9839 53.3508 60.1099 54.9375C59.1558 56.1506 57.9002 57.1093 56.3429 57.8139C54.7365 58.5368 53.0069 58.8982 51.1542 58.8982C49.0245 58.8982 47.0764 58.4296 45.3099 57.4922C43.5865 56.5733 42.3062 55.3572 41.4691 53.844L45.2637 52.8239L45.4668 53.0169C45.8115 53.2497 46.5009 53.6173 47.535 54.1197C49.0307 54.8487 50.6002 54.9682 52.2436 54.4781C54.2256 53.8899 55.8936 52.4717 57.2477 50.2233C58.1218 48.7714 58.4542 47.0498 58.2449 45.0588C58.091 43.6252 57.6755 42.1334 56.9985 40.5835C56.6599 39.8115 56.3706 39.2234 56.1306 38.8191L56.0383 38.3871L56.4076 38.8834Z" fill="#F29600"/>
<path id="Vector_7" d="M39.9457 57.3728C39.3548 56.6682 38.7762 55.786 38.21 54.7262L45.2545 52.8331L45.2822 52.8791C45.3376 52.9403 45.4699 53.0322 45.6792 53.1548C45.8023 53.6939 45.8638 54.2391 45.8638 54.7905C45.8638 55.8259 45.6577 56.8122 45.2453 57.7495C44.8452 58.6562 44.282 59.4527 43.5557 60.1388C42.1831 59.5201 40.9798 58.5981 39.9457 57.3728Z" fill="#D18200"/>
<path id="Vector_8" d="M32.0702 58.5858C31.7009 57.9609 31.4239 57.2901 31.2393 56.5733L37.4529 54.91C37.9514 55.8596 38.5793 56.751 39.3363 57.5842C40.4627 58.8462 41.743 59.8111 43.1771 60.4789C42.5247 61.0119 41.8107 61.4223 41.0352 61.7103C40.2227 62.0105 39.3825 62.1636 38.5146 62.1698C36.2126 61.4407 34.0645 60.2461 32.0702 58.5858Z" fill="#DDD583"/>
<path id="Vector_9" d="M23.4746 11.3055L20.7879 14.2646C20.6771 14.4177 20.6217 14.8496 20.6217 15.5603C20.6217 16.3567 20.7017 17.1868 20.8617 18.0507C20.9602 18.6143 21.1818 19.3403 21.5265 20.2286C21.8773 21.1476 22.1789 21.7602 22.4313 22.0665L23.7977 23.6012L25.0626 25.0255C25.2534 25.3012 25.3888 25.7576 25.4689 26.3948C25.6412 27.5159 25.7828 28.2388 25.8936 28.5635C26.0474 29.0046 26.2382 29.4304 26.466 29.8409C26.6322 30.1349 26.8815 30.5301 27.2138 31.0263C27.6632 31.6819 28.1833 32.3098 28.7742 32.9102L29.1804 32.7448L29.6697 32.7172C29.8359 32.7723 29.9529 32.9255 30.0206 33.1767L30.1406 33.8016L30.7223 34.1875C30.8392 34.2672 30.9131 34.3836 30.9438 34.5367C30.9623 34.6776 30.9284 34.8063 30.8423 34.9227L29.4943 36.6595L28.6449 38.8007C28.5772 38.9784 28.4479 39.0825 28.2571 39.1131C28.171 39.1315 28.0448 39.1009 27.8786 39.0212L27.5462 38.8007C26.8938 38.0165 26.2229 37.3059 25.5335 36.6687C24.4994 35.7191 23.6746 35.1861 23.0591 35.0697C22.6098 34.984 22.1482 35.0207 21.6742 35.18C21.5327 35.2351 21.1633 35.4097 20.5663 35.7038C20.197 35.8876 19.9292 36.0009 19.7631 36.0438C19.4861 36.1173 19.2399 36.099 19.0244 35.9887C18.8459 35.8968 18.7444 35.7406 18.7198 35.52L18.7382 35.0973L18.7844 34.8951C18.8398 34.5398 18.7536 34.1508 18.5259 33.7281C18.3782 33.4708 18.0919 33.2104 17.6672 32.9469C17.0394 32.5487 16.3347 32.3496 15.553 32.3496C13.7495 32.3496 11.8476 33.097 9.84716 34.5919C8.70846 35.4373 7.72364 36.3593 6.8927 37.3579C6.86192 37.6152 6.86192 37.9308 6.8927 38.3045L6.9481 38.9018C6.9481 39.2081 6.87423 39.4777 6.72651 39.7105C6.57263 39.9494 6.38798 40.0689 6.17255 40.0689C5.96943 40.0689 5.78786 39.9923 5.62782 39.8391C5.4247 39.6492 5.30776 39.3735 5.27698 39.0121L5.26775 38.9569C5.13849 37.4988 5.0554 36.3471 5.01847 35.5016C4.99384 34.9319 4.99384 34.5888 5.01847 34.4724C5.12926 33.7189 5.37546 32.5273 5.75708 30.8977C6.11408 29.3661 6.43722 28.0979 6.72651 27.0932C6.97887 26.211 7.38511 25.0133 7.94523 23.5001C8.46841 22.0849 8.81002 21.2364 8.97005 20.9546C9.17933 20.5809 10.0164 19.5455 11.4813 17.8485C12.9278 16.176 13.8326 15.1927 14.1958 14.8986C14.4974 14.6536 14.9775 14.384 15.636 14.09L16.2269 13.8235C16.4793 13.7071 16.6332 13.6274 16.6886 13.5845L18.9783 11.8201L21.3418 10.0282C21.8035 9.69736 22.2436 9.49825 22.6621 9.43086C23.0991 9.36347 23.4254 9.4523 23.6408 9.69736C23.8008 9.88115 23.8747 10.1201 23.8624 10.4141C23.8439 10.745 23.7146 11.0421 23.4746 11.3055Z" fill="#0D131A"/>
<path id="Vector_10" d="M14.1311 18.8869C15.4791 17.7474 16.2669 17.1287 16.4947 17.0306C16.8024 16.9877 17.2333 17.0368 17.7873 17.1777C18.3474 17.3247 18.6798 17.4809 18.7844 17.6463C18.8521 17.775 19.2429 18.9574 19.9569 21.1935L20.4647 22.7006C20.594 23.0375 21.4957 23.932 23.1699 25.3839C23.3853 25.5739 23.6623 26.2447 24.0009 27.3965L24.2224 28.1316L24.6564 29.7949L25.2473 32.2118C25.3765 32.708 25.4935 32.9898 25.5981 33.0572C26.0105 33.339 26.4783 33.7771 27.0015 34.3713C27.1 34.4877 27.3092 34.935 27.6293 35.713L28.4972 37.8909L28.174 38.6169C27.6693 38.0594 27.0846 37.4835 26.4198 36.8893C25.0903 35.7069 24.0255 35.0422 23.2253 34.8951C22.4621 34.7542 21.625 34.889 20.714 35.2995L19.8646 35.6946C19.5999 35.7988 19.403 35.8172 19.2737 35.7498C19.206 35.713 19.1599 35.5874 19.1352 35.373L19.1168 35.0697C19.1599 34.9717 19.1814 34.8369 19.1814 34.6654C19.1814 34.3285 19.0798 33.9731 18.8767 33.5994C18.7044 33.2747 18.3597 32.9715 17.8427 32.6896C17.1656 32.3159 16.3931 32.1291 15.5253 32.1291C13.7772 32.1291 11.9738 32.757 10.1149 34.0129C8.9639 34.791 7.89291 35.7283 6.90193 36.8249C6.96964 34.3499 7.0435 32.9623 7.12352 32.6621C7.38819 31.59 7.95446 29.8286 8.82233 27.3781C9.97949 24.125 10.9058 22.0604 11.6014 21.1843C11.8968 20.8167 12.7401 20.0509 14.1311 18.8869Z" fill="#008086"/>
<path id="Vector_11" d="M22.9945 11.0666C21.4434 12.7085 20.5171 13.7163 20.2155 14.09C20.0185 14.3412 19.9539 14.9354 20.0216 15.8728C20.0647 16.4976 20.1631 17.2236 20.317 18.0507C20.4155 18.6082 20.6648 19.3617 21.0649 20.3113C21.4711 21.267 21.822 21.9256 22.1174 22.2871L24.6472 25.2277C24.8195 25.4544 24.9703 25.9568 25.0996 26.7348C25.2596 27.6905 25.3827 28.2909 25.4689 28.536C25.6289 29.0016 25.792 29.4151 25.9582 29.7766L26.5768 30.9712C26.8045 31.3939 27.1861 31.9269 27.7216 32.5702C28.2202 33.1644 28.5187 33.48 28.6172 33.5167L28.9496 33.4156C29.1096 33.336 29.2358 33.3115 29.3281 33.3421C29.5005 33.3972 29.6143 33.6515 29.6697 34.1048L30.436 34.6103L29.0511 36.4114L28.8573 36.8893C28.1125 35.2168 27.6324 34.2611 27.417 34.0221C26.7584 33.2686 26.2167 32.7509 25.792 32.4691C25.6751 32.3343 25.3765 31.3296 24.8964 29.4549L24.4533 27.764L24.2317 27.0381L23.8901 25.9629C23.7547 25.6382 23.5977 25.3962 23.4192 25.2369L21.9974 23.8585C21.308 23.154 20.9325 22.719 20.871 22.5536L20.3632 21.0649C19.5507 18.6388 19.1075 17.3707 19.0337 17.2604C18.8736 16.9969 18.4582 16.7825 17.7873 16.6171C17.1779 16.4701 16.6886 16.4241 16.3193 16.4793C16.0915 16.516 15.2329 17.1838 13.7434 18.4826C12.3031 19.7324 11.4506 20.5257 11.1859 20.8627C10.4288 21.8184 9.46862 24.03 8.30531 27.4976C7.72057 29.2313 7.2097 30.8885 6.77268 32.4691C6.6742 32.8734 6.59111 34.4755 6.5234 37.2752L6.44031 38.9018C6.44031 39.0427 6.41261 39.1652 6.35721 39.2694C6.30182 39.3674 6.24026 39.4164 6.17256 39.4164C6.08639 39.4164 6.02483 39.3919 5.9879 39.3429C5.9202 39.2694 5.87711 39.1285 5.85865 38.9202L5.73862 37.0455L5.63706 35.2535C5.64322 34.6041 5.82172 33.4432 6.17256 31.7707C6.48031 30.2759 6.77884 29.0506 7.06813 28.0949C7.49899 26.6613 8.01602 25.1266 8.61922 23.4909C9.12394 22.1431 9.444 21.3467 9.57942 21.1016C9.77023 20.7585 10.555 19.7753 11.9338 18.1518C13.3187 16.516 14.1804 15.5634 14.5189 15.2938C14.802 15.0671 15.3622 14.7669 16.1992 14.3932C16.6178 14.2033 17.0086 14.0379 17.3718 13.897L21.4619 10.5428C21.8004 10.261 22.1389 10.068 22.4775 9.96387C22.8283 9.85972 23.0591 9.88422 23.1699 10.0374C23.3915 10.356 23.333 10.699 22.9945 11.0666Z" fill="#F29600"/>
<path id="Vector_12" d="M18.5813 19.861C18.4397 19.7936 18.2304 19.7293 17.9535 19.668L17.2702 19.567C16.8394 19.861 16.0577 20.489 14.9251 21.4508C13.731 22.4617 13.017 23.1141 12.7831 23.4082C12.1369 24.223 11.2413 26.2263 10.0964 29.4182C9.22241 31.832 8.64691 33.5749 8.36993 34.647L8.31453 35.4189C7.84674 35.8417 7.37588 36.3103 6.90193 36.8249C6.96964 34.3499 7.0435 32.9623 7.12352 32.6621C7.38819 31.59 7.95446 29.8286 8.82233 27.3781C9.97949 24.125 10.9058 22.0604 11.6014 21.1843C11.8968 20.8167 12.7401 20.0509 14.1311 18.8869C15.4791 17.7474 16.2669 17.1287 16.4947 17.0306C16.8024 16.9877 17.2333 17.0368 17.7873 17.1777C18.3474 17.3247 18.6798 17.4809 18.7844 17.6463C18.8521 17.775 19.2429 18.9574 19.9569 21.1935L20.4647 22.7006C20.594 23.0375 21.4957 23.932 23.1699 25.3839C23.3853 25.5739 23.6623 26.2447 24.0009 27.3965L24.2224 28.1316L24.6564 29.7949L25.2473 32.2118C25.3765 32.708 25.4935 32.9898 25.5981 33.0572C26.0105 33.339 26.4783 33.7771 27.0015 34.3713C27.1 34.4877 27.3092 34.935 27.6293 35.713L28.4972 37.8909L28.174 38.6169L27.3708 37.7899C27.1 37.116 26.9245 36.7208 26.8445 36.6044C26.3644 36.053 25.9613 35.6732 25.635 35.4649C25.4196 35.3179 25.2534 35.0881 25.1365 34.7757C25.0503 34.5551 24.9118 34.0466 24.721 33.2502L24.3425 31.6972L23.9178 30.089L23.6869 29.3171C23.5392 28.8147 23.3946 28.199 23.253 27.47L23.0868 26.5326L20.5109 24.3271C20.0739 23.9289 19.7908 23.5399 19.6615 23.1601L18.5813 19.861Z" fill="#00666C"/>
<path id="Vector_13" d="M70.5428 27.424C70.7521 27.957 71.0137 29.2466 71.3276 31.2928C71.6292 33.2533 71.78 34.549 71.78 35.18V35.3822L71.7523 39.398C71.6723 40.1516 71.3522 40.5222 70.7921 40.5099C70.5459 40.5038 70.3705 40.3905 70.2658 40.1699C70.1673 39.9616 70.1181 39.6186 70.1181 39.1407C70.1181 38.8405 70.0873 38.5648 70.0258 38.3136C68.7886 37.1006 67.4899 35.8907 66.1296 34.6838C64.283 33.0541 63.0459 32.1046 62.418 31.835C61.661 31.5103 60.7223 31.3694 59.6021 31.4123C58.685 31.4552 58.0325 31.5716 57.6447 31.7615C57.4662 31.8473 57.0292 32.3006 56.3337 33.1215L55.5305 33.9945C55.3458 34.1722 55.1735 34.2702 55.0134 34.2886L54.6626 34.2427L54.1179 34.0129C53.1823 33.6086 52.4991 33.3482 52.0682 33.2318C51.0649 32.9684 50.2155 32.9776 49.52 33.2594C48.5352 33.6576 47.4365 34.2702 46.2239 35.0973C45.3007 35.7283 44.6821 36.2 44.3682 36.5125C44.2635 36.6289 43.9465 37.2017 43.4172 38.2309L41.8292 41.3462C41.7491 41.4932 41.5706 41.5729 41.2937 41.5851C41.0967 41.5851 40.9428 41.5024 40.832 41.337L36.6496 34.3346C36.5511 34.1753 36.545 34.0129 36.6312 33.8475C36.7235 33.676 36.862 33.5841 37.0466 33.5718L38.8285 33.5259C39.0871 32.7723 39.3086 32.3251 39.4933 32.1842C39.5979 32.1107 39.798 32.0494 40.0934 32.0004L40.9521 32.0188L42.4293 31.0447L44.6728 29.4273C45.8977 28.4961 46.9441 27.4883 47.8119 26.404C47.9658 26.0425 48.2151 25.2308 48.5598 23.9687C48.9229 22.6332 49.2645 21.2548 49.5846 19.8334C49.8801 18.5163 50.1263 17.196 50.3232 15.8727C50.5017 14.6658 50.5817 13.8939 50.5633 13.557C50.551 13.3732 50.3694 13.0087 50.0186 12.4634C49.6369 11.863 49.123 11.1585 48.4767 10.3498C48.2182 10.0312 48.0489 9.69428 47.9689 9.33895C47.8704 8.91011 47.932 8.5364 48.1535 8.21783C48.3197 7.9789 48.5259 7.83799 48.7721 7.79511C49.043 7.75222 49.3415 7.80736 49.6677 7.96052C49.9447 8.08917 50.2001 8.26071 50.434 8.47514L51.9389 9.9179L53.3792 11.3055C53.4285 11.3484 53.6439 11.4066 54.0255 11.4801L54.7826 11.6363C54.9611 11.6915 55.6782 12.0407 56.9338 12.684L58.9835 13.6948C59.5867 13.8847 60.2022 14.0164 60.83 14.09L61.5686 14.191C61.8518 14.2401 62.0303 14.3013 62.1041 14.3748C62.535 14.7792 63.3967 16.0933 64.6893 18.3172L67.3852 23.0498C67.9392 23.9994 68.6224 24.9826 69.4349 25.9996L70.5428 27.424Z" fill="#0D131A"/>
<path id="Vector_14" d="M68.3639 25.6412L69.2318 26.8083L69.9427 27.8835C70.1458 28.392 70.4166 29.5958 70.7552 31.495C71.0937 33.3758 71.263 34.6041 71.263 35.18V37.1925L71.2353 39.2326C71.2106 39.447 71.1706 39.6032 71.1152 39.7013C71.0414 39.8299 70.9337 39.8912 70.7921 39.8851C70.6998 39.8789 70.6321 39.7564 70.589 39.5175C70.5582 39.3521 70.5428 39.1683 70.5428 38.9661L70.5243 38.1482L69.8965 31.3755V31.3388C69.2872 29.0965 68.0161 26.2876 66.0834 22.9119C64.3292 19.8549 62.9289 17.8087 61.8826 16.7733C61.5933 16.4792 60.2976 15.9493 57.9956 15.1835C55.8659 14.4667 54.7334 14.1083 54.598 14.1083C54.2163 14.0777 53.8286 14.1604 53.4346 14.3565C53.0407 14.5586 52.7391 14.8282 52.5298 15.1651C52.3206 15.496 51.7605 17.3829 50.8495 20.8259C50.5787 21.8735 50.2863 23.4266 49.9724 25.485C49.7939 26.649 49.6769 27.2862 49.6215 27.3964C49.5231 27.5802 48.7537 28.1867 47.3134 29.216L46.2609 29.9879C46.0516 30.1594 45.83 30.4321 45.5961 30.8058C45.473 30.9957 45.2976 31.3051 45.0698 31.7339L44.8667 32.1107C44.8359 32.1474 44.6728 32.1995 44.3774 32.2669C43.7988 32.4078 43.331 32.5395 42.974 32.6621C42.5062 32.8214 41.8938 33.5749 41.1367 34.9227C40.632 35.8233 40.1027 36.9138 39.5487 38.1942L37.0836 34.0773L39.2163 33.9118L39.4287 33.3145C39.5887 32.9041 39.7241 32.659 39.8349 32.5794C39.9888 32.4752 40.2473 32.4262 40.6105 32.4323L41.0998 32.4691L42.8448 31.2928L44.9775 29.8409C45.2299 29.651 45.83 29.0996 46.7779 28.1867C47.7196 27.2739 48.2151 26.7654 48.2643 26.6613C48.5783 25.9874 49.1599 23.8003 50.0093 20.0999C50.8834 16.2771 51.2865 14.0256 51.2188 13.3456C51.1942 13.1067 50.8495 12.5247 50.1847 11.5996L48.9291 9.96385C48.7506 9.7433 48.6275 9.48905 48.5598 9.20112C48.4798 8.8948 48.4921 8.64974 48.5967 8.46595C48.7014 8.28829 48.9106 8.26072 49.2245 8.38324C49.5015 8.48739 49.7847 8.67118 50.074 8.93462L51.5696 10.4509L52.9453 11.8385L53.7301 11.9672L54.8103 12.1969C55.0627 12.2827 56.3737 12.8923 58.7434 14.0256L60.3499 14.4759C61.1686 14.6842 61.6117 14.819 61.6794 14.8803C62.2642 15.4378 63.5198 17.3523 65.4464 20.6237L68.3639 25.6412Z" fill="#F29600"/>
<path id="Vector_15" d="M69.5826 31.4491L70.155 37.7899C68.8748 36.5891 67.6468 35.4802 66.4712 34.4632C64.5693 32.8214 63.2767 31.8534 62.5935 31.5593C61.7625 31.204 60.7592 31.0662 59.5836 31.1458C58.648 31.2071 57.9464 31.3541 57.4786 31.5869C57.2754 31.6849 56.8446 32.0954 56.186 32.8183C55.5766 33.4799 55.155 33.8322 54.9211 33.8751C54.7795 33.9057 54.5026 33.8383 54.0902 33.6729L52.8068 33.1583C51.5143 32.705 50.3909 32.6713 49.4369 33.0572C48.3782 33.4922 47.2241 34.0834 45.9746 34.8308C44.9221 35.4618 44.2635 35.9029 43.9988 36.1541C43.8388 36.3134 43.3372 37.1803 42.4939 38.7548L41.2752 41.0705L40.0103 39.0488C40.909 36.8249 41.4075 35.6027 41.506 35.3822C42.0969 34.0711 42.5739 33.3544 42.9371 33.2318C43.1956 33.1399 43.7065 33.0143 44.4697 32.8551L44.9313 32.7356L45.2083 32.5334L45.4484 32.1015L45.8731 31.1274C46.0762 30.6924 46.2609 30.4045 46.427 30.2636L46.8979 29.9695L47.5627 29.556L49.2153 28.343C49.6646 27.9938 49.9262 27.7426 50.0001 27.5894L50.1663 26.937L50.3879 25.5494L50.7018 23.3622C50.8433 22.431 50.9941 21.6622 51.1542 21.0557L52.1421 17.3063C52.4375 16.2158 52.6191 15.6154 52.6868 15.5052C52.853 15.2479 53.1423 15.0426 53.5547 14.8895C53.9301 14.7424 54.281 14.6842 54.6072 14.7149C54.915 14.7639 56.0352 15.1192 57.9679 15.7809C60.0791 16.4976 61.2517 16.9724 61.4855 17.2052C62.5565 18.2773 63.9661 20.2745 65.7141 23.1968C67.7022 26.5173 68.9917 29.2681 69.5826 31.4491Z" fill="#008086"/>
<path id="Vector_16" d="M68.6501 36.4022L68.4008 33.6545C67.8222 31.541 66.5635 28.8668 64.6247 25.6321C62.9258 22.8078 61.5717 20.8841 60.5623 19.861C60.2607 19.6527 59.202 19.2392 57.3862 18.6204C55.7613 18.0691 54.6811 17.726 54.1456 17.5912C53.9609 17.5851 53.7578 17.6249 53.5362 17.7107C53.3146 17.7903 53.1638 17.8761 53.0838 17.968C52.9915 18.213 52.6099 19.6098 51.939 22.1584L51.6435 23.3071C51.4465 24.0484 51.2465 25.1603 51.0434 26.6429L50.8957 27.7089L50.6279 29.2803C50.5664 29.6111 50.4956 29.8501 50.4156 29.9971C50.3048 30.2238 50.0586 30.4964 49.6769 30.815L47.7196 32.2853L46.9348 32.7724L46.6302 32.9561C44.4266 34.9288 43.1895 35.9611 42.9186 36.053C42.5739 36.3348 41.8876 37.7837 40.8597 40.3997V40.4089L40.0103 39.0488C40.909 36.8249 41.4075 35.6027 41.506 35.3822C42.0969 34.0711 42.5739 33.3544 42.9371 33.2318C43.1956 33.1399 43.7065 33.0143 44.4697 32.8551L44.9313 32.7356L45.2083 32.5334L45.4484 32.1015L45.8731 31.1274C46.0762 30.6924 46.2609 30.4045 46.427 30.2636L46.8979 29.9695L47.5627 29.556L49.2153 28.343C49.6646 27.9938 49.9262 27.7426 50.0001 27.5894L50.1663 26.937L50.3879 25.5494L50.7018 23.3622C50.8433 22.431 50.9941 21.6622 51.1542 21.0557L52.1421 17.3063C52.4375 16.2158 52.6191 15.6154 52.6868 15.5052C52.853 15.2479 53.1423 15.0426 53.5547 14.8895C53.9301 14.7424 54.281 14.6842 54.6072 14.7149C54.915 14.7639 56.0352 15.1192 57.9679 15.7809C60.0791 16.4976 61.2517 16.9724 61.4855 17.2052C62.5565 18.2773 63.9661 20.2745 65.7141 23.1968C67.7022 26.5173 68.9917 29.2681 69.5826 31.4491L70.155 37.7899L68.6501 36.4022Z" fill="#00666C"/>
<path id="Vector_17" d="M12.3677 38.2861L12.183 38.2493L11.8599 38.0196C11.6444 37.7746 11.5521 37.4713 11.5829 37.1098C11.6014 36.8648 11.826 36.4635 12.2569 35.906C12.6139 35.4404 12.8816 35.1341 13.0601 34.9871L13.134 34.9227L12.7647 33.9211L12.7093 33.8108C12.6231 33.6331 12.5739 33.4769 12.5616 33.3421C12.5492 33.1706 12.5831 32.9776 12.6631 32.7632C12.8108 32.4017 13.0632 32.1475 13.4202 32.0004C13.6664 31.9024 14.0172 31.8595 14.4727 31.8718L15.1836 31.9545C15.3929 32.0403 15.7345 32.417 16.2085 33.0848L16.3654 33.1491L16.5685 33.2043L17.2518 32.8826C17.5657 32.6498 17.7965 32.5059 17.9442 32.4507C18.1412 32.3772 18.3628 32.3742 18.609 32.4415C18.9475 32.5273 19.2368 32.8489 19.4768 33.4064C19.6861 33.9027 19.76 34.2948 19.6984 34.5827C19.6738 34.7114 19.5907 34.9227 19.4491 35.2168L19.0337 36.0255L18.9321 36.2093L18.9598 36.4206C20.197 37.5295 21.0033 38.0349 21.3788 37.9369L22.0989 37.7623C22.5852 37.6398 23.0468 37.4866 23.4838 37.3028C24.204 37.0026 24.8195 36.7024 25.3304 36.4022C25.4781 36.0163 25.6012 35.7498 25.6997 35.6028C25.952 35.2474 26.3213 34.9656 26.8076 34.7573C27.22 34.5797 27.8909 34.4816 28.8203 34.4632C29.3681 34.451 29.8544 34.4602 30.2791 34.4908L30.9623 34.5551L28.5987 39.6094L28.2479 39.5451L26.6506 39.0305L25.5981 39.5543L24.1209 40.2619L23.4931 40.5927L22.9576 40.9143C22.3728 41.2206 21.9112 41.3891 21.5727 41.4197C20.7971 41.4749 19.8585 41.1747 18.7567 40.5192C18.0735 40.1087 17.3718 39.5941 16.6516 38.9753C16.4239 39.104 16.2177 39.1714 16.033 39.1775C15.7745 39.1897 15.4914 39.107 15.1836 38.9294C15.0051 38.8314 14.8082 38.6414 14.5927 38.3596L14.1773 37.7439L13.9557 38.1942L13.7987 38.3596L12.3677 38.2861Z" fill="#0D131A"/>
<path id="Vector_18" d="M12.3861 37.8082C12.3123 37.8082 12.2415 37.7806 12.1738 37.7255C12.0322 37.6152 11.9707 37.4314 11.9891 37.1741C12.0014 36.9903 12.0692 36.8004 12.1923 36.6044L12.6631 36.0071L13.254 35.4465L13.6233 35.1157C13.691 35.0115 13.5495 34.552 13.1986 33.7372C13.0386 33.3696 12.9586 33.1246 12.9586 33.0021C12.9524 32.7141 13.1525 32.4875 13.5587 32.322L14.4081 32.2761L15.0267 32.3772L15.4145 32.8183L15.8207 33.3605C15.9438 33.532 16.1623 33.63 16.4762 33.6545L17.3533 33.2318C17.5626 33.0725 17.7442 32.9776 17.8981 32.9469L18.4151 32.9929C18.6059 33.0419 18.7905 33.2808 18.969 33.7097C19.1352 34.114 19.1999 34.405 19.1629 34.5827C19.1383 34.7175 19.0367 34.9625 18.8583 35.3178L18.5074 36.0071C18.4212 36.1786 18.4335 36.4053 18.5443 36.6871L19.7169 37.6152C20.5848 38.2156 21.2372 38.4576 21.6742 38.3412L22.5329 38.0471L23.8254 37.5509L25.7274 36.7514C25.7581 36.586 25.8412 36.3961 25.9766 36.1817C26.2536 35.7528 26.6722 35.4189 27.2323 35.18C27.6078 35.0207 28.2233 34.938 29.0788 34.9319L30.2421 34.9686L28.3218 39.0856L26.9645 38.378C25.6966 39.0335 24.6872 39.5144 23.9362 39.8207C23.6654 39.9371 23.2007 40.1638 22.5421 40.5008C22.1112 40.7274 21.7942 40.8469 21.5911 40.8591C20.8894 40.9143 20.0062 40.6202 18.9413 39.9769C18.2889 39.5787 17.6241 39.0886 16.9471 38.5066C16.9225 38.4882 16.9532 38.4025 17.0394 38.2493L17.1779 38.0196L16.6886 38.3596C16.6024 38.4576 16.4793 38.5311 16.3193 38.5801C16.0054 38.6843 15.6607 38.6322 15.2852 38.4239C14.9651 38.2401 14.6974 37.9767 14.482 37.6336L14.2604 37.1741L13.6049 37.8725L12.3861 37.8082Z" fill="#F29600"/>
<path id="Vector_19" d="M18.3966 34.7481L17.6488 35.1984C17.2302 35.4006 16.9409 35.5047 16.7809 35.5108C16.6824 35.5108 16.5993 35.4833 16.5316 35.4281C16.4147 35.3056 16.3993 34.9932 16.4855 34.4908C16.5655 34.0252 16.6609 33.7005 16.7717 33.5167C16.9194 33.29 17.1194 33.1246 17.3718 33.0205L18.0827 32.9929C18.2981 33.0725 18.4551 33.2196 18.5536 33.434C18.6397 33.6178 18.6644 33.8169 18.6274 34.0313L18.609 34.16C18.572 34.4357 18.5013 34.6317 18.3966 34.7481Z" fill="#0D131A"/>
<path id="Vector_20" d="M18.055 33.0664L17.3995 33.1032C17.1656 33.2012 16.9809 33.3543 16.8455 33.5626C16.7409 33.7281 16.6486 34.0374 16.5686 34.4908C16.4885 34.9748 16.4978 35.2658 16.5962 35.3638C16.6393 35.4067 16.6978 35.4281 16.7717 35.4281C16.9194 35.422 17.1995 35.3209 17.6118 35.1249C18.0119 34.9288 18.252 34.7849 18.332 34.693C18.4305 34.5827 18.4951 34.402 18.5259 34.1508L18.5443 34.0221C18.5751 33.82 18.5536 33.6331 18.4797 33.4616C18.3935 33.2716 18.252 33.1399 18.055 33.0664ZM16.6978 33.4708C16.8578 33.2257 17.0733 33.0511 17.3441 32.9469L18.1104 32.9102C18.3135 32.9898 18.4705 33.1215 18.5813 33.3053C18.6798 33.4707 18.729 33.6545 18.729 33.8567L18.6921 34.1783C18.6551 34.4663 18.5782 34.6746 18.4612 34.8032C18.3689 34.9135 18.1104 35.0697 17.6857 35.2719C17.2487 35.4802 16.9471 35.5874 16.7809 35.5935C16.6578 35.5997 16.5562 35.5629 16.4762 35.4833C16.3347 35.3424 16.31 35.0054 16.4024 34.4724C16.4824 34.0007 16.5809 33.6668 16.6978 33.4708Z" fill="#0D131A"/>
<path id="Vector_21" d="M17.9257 34.2702C17.815 34.405 17.4026 34.7297 16.6886 35.2443C16.6332 35.1892 16.6301 34.9533 16.6793 34.5367C16.7347 34.114 16.8086 33.8169 16.9009 33.6453C17.0056 33.4677 17.1533 33.3329 17.3441 33.241C17.5411 33.143 17.7226 33.1246 17.8888 33.1859C18.0673 33.2471 18.1904 33.3696 18.2581 33.5534C18.2397 33.725 18.1997 33.8689 18.1381 33.9853L17.9257 34.2702Z" fill="white"/>
<path id="Vector_22" d="M18.1473 34.5368C18.0796 34.6225 17.8365 34.7726 17.418 34.987C16.9809 35.2076 16.7378 35.2934 16.6886 35.2443C17.4026 34.7297 17.815 34.405 17.9257 34.2703L18.1381 33.9854C18.1997 33.869 18.2397 33.725 18.2581 33.5535C18.3012 33.6699 18.3166 33.7955 18.3043 33.9302L18.2581 34.2794L18.1473 34.5368Z" fill="#DBDCDC"/>
<path id="Vector_23" d="M12.2477 37.0731C12.3708 36.9689 12.5462 36.8954 12.7739 36.8525C13.014 36.8096 13.2233 36.8586 13.4018 36.9995C13.5249 37.0976 13.611 37.2201 13.6603 37.3671L14.1404 38.1207C14.2081 38.1942 14.3312 38.2616 14.5097 38.3228L14.7959 38.4055L14.6666 38.672C14.5312 38.9477 14.1373 39.0672 13.4848 39.0304L12.737 38.9293C12.4785 38.8497 12.2723 38.6965 12.1184 38.4699C12.0138 38.3167 11.9491 38.1421 11.9245 37.9461C11.8999 37.7561 11.9214 37.5907 11.9891 37.4498L12.0168 37.4039C12.0784 37.263 12.1553 37.1527 12.2477 37.0731Z" fill="#0D131A"/>
<path id="Vector_24" d="M12.2753 37.1098C12.1953 37.1772 12.1215 37.2783 12.0538 37.4131L12.0261 37.4682C11.9645 37.603 11.943 37.7623 11.9614 37.9461C11.9861 38.136 12.0476 38.3044 12.1461 38.4515C12.3 38.6659 12.5 38.8099 12.7462 38.8834L13.4848 38.9845C14.125 39.0212 14.5035 38.911 14.6204 38.6537L14.7405 38.4331L14.5004 38.3596C14.3035 38.2922 14.1711 38.2217 14.1034 38.1482C14.0172 38.0502 13.8603 37.8051 13.6326 37.4131L13.6233 37.4039L13.5956 37.3579C13.5464 37.217 13.4633 37.1006 13.3463 37.0087C13.1863 36.8862 12.9955 36.8464 12.7739 36.8893C12.5585 36.9321 12.3923 37.0057 12.2753 37.1098ZM12.0815 38.4974C11.9399 38.2891 11.8691 38.0625 11.8691 37.8174C11.8691 37.6704 11.8968 37.5417 11.9522 37.4314L11.9799 37.3855C12.0538 37.2323 12.1338 37.119 12.22 37.0455C12.3492 36.9291 12.5308 36.8494 12.7647 36.8065C12.9986 36.7637 13.2017 36.8065 13.374 36.9352C13.5033 37.0271 13.6018 37.1527 13.6695 37.312L14.168 38.0931C14.2296 38.1666 14.3496 38.2279 14.5281 38.2769L14.8051 38.3688L14.8328 38.3872L14.842 38.4055L14.7035 38.6904C14.562 38.9783 14.1557 39.1039 13.4848 39.0672L12.7277 38.9661C12.4569 38.8803 12.2415 38.7241 12.0815 38.4974Z" fill="#0D131A"/>
<path id="Vector_25" d="M12.2292 37.5601L12.3769 37.3304C12.4692 37.2446 12.6077 37.1864 12.7924 37.1558C12.9832 37.119 13.134 37.168 13.2448 37.3028C13.3063 37.3641 13.3463 37.4315 13.3648 37.505L13.5679 37.845L13.8818 38.3045C13.9803 38.4147 14.1404 38.5036 14.3619 38.571C13.254 38.7302 12.5431 38.3933 12.2292 37.5601Z" fill="white"/>
<path id="Vector_26" d="M12.3123 38.3412C12.2323 38.2248 12.183 38.0931 12.1646 37.946C12.1522 37.8113 12.1676 37.6979 12.2107 37.606L12.2292 37.5601C12.5431 38.3933 13.254 38.7302 14.3619 38.5709C14.3435 38.6138 14.2881 38.6536 14.1957 38.6904L13.4479 38.7731L12.8016 38.6996C12.5985 38.6383 12.4354 38.5189 12.3123 38.3412Z" fill="#DBDCDC"/>
<path id="Vector_27" d="M14.3712 32.9745C14.562 33.1889 14.642 33.437 14.6112 33.7189C14.5928 33.97 14.5158 34.1477 14.3804 34.2519L13.9834 34.6194L13.5864 35.0605C13.5125 35.1769 13.4694 35.3699 13.4571 35.6395L13.3925 35.8784L13.1248 35.8692C12.9647 35.8202 12.8108 35.7252 12.6631 35.5843C12.3677 35.2964 12.22 34.9074 12.22 34.4173C12.22 33.9517 12.42 33.4493 12.8201 32.9102C12.8693 32.8428 12.9709 32.7785 13.1248 32.7172C13.2663 32.6682 13.3987 32.6406 13.5218 32.6345C13.8665 32.6161 14.1496 32.7295 14.3712 32.9745Z" fill="#0D131A"/>
<path id="Vector_28" d="M12.7462 32.8642C12.8078 32.7785 12.9247 32.7049 13.0971 32.6437L13.5125 32.5518C13.8942 32.5334 14.2019 32.6559 14.4358 32.9194C14.6328 33.146 14.722 33.4156 14.7036 33.728C14.6728 33.9976 14.5835 34.1967 14.4358 34.3254L14.048 34.6746C13.8388 34.8829 13.7095 35.0268 13.6603 35.1065C13.5926 35.2045 13.5525 35.3883 13.5402 35.6579L13.4756 35.8968L13.4479 35.9427L13.1248 35.9519H13.1063C12.9524 35.9213 12.7862 35.8171 12.6077 35.6395C12.2938 35.3393 12.1369 34.9319 12.1369 34.4173C12.1369 33.9455 12.34 33.4279 12.7462 32.8642ZM13.928 34.5643L14.325 34.1875C14.442 34.1018 14.5097 33.9425 14.5281 33.7097L14.5374 33.6362C14.5374 33.4156 14.4604 33.2134 14.3066 33.0296C14.1157 32.8152 13.8542 32.7111 13.5218 32.7172L13.1617 32.7999L12.8847 32.9653C12.4969 33.4922 12.3031 33.9762 12.3031 34.4173C12.3031 34.8706 12.4354 35.2321 12.7001 35.5016C12.8416 35.6487 12.9894 35.7436 13.1432 35.7865L13.3279 35.7957L13.3741 35.6303C13.3741 35.3669 13.4202 35.1616 13.5125 35.0146C13.5679 34.9288 13.7064 34.7787 13.928 34.5643Z" fill="#0D131A"/>
<path id="Vector_29" d="M14.0019 33.9303L13.4387 34.4357C13.1925 34.7481 13.134 35.1188 13.2633 35.5476V35.5936C13.1463 35.5568 13.0263 35.4802 12.9032 35.3638C12.6631 35.1249 12.5431 34.7971 12.5431 34.3805C12.5431 34.1355 12.6077 33.8659 12.737 33.5719C12.8355 33.3513 12.9463 33.1614 13.0694 33.0021C13.1494 32.9041 13.3217 32.8551 13.5864 32.8551C13.8818 32.8612 14.1004 32.947 14.2419 33.1124L14.3342 33.2318C14.2727 33.5382 14.1619 33.771 14.0019 33.9303Z" fill="white"/>
<path id="Vector_30" d="M14.2881 34.0221C13.8449 34.3529 13.5587 34.6133 13.4294 34.8032C13.3433 34.9441 13.2879 35.1923 13.2633 35.5476C13.134 35.1187 13.1925 34.7481 13.4387 34.4356L14.0019 33.9302C14.1619 33.7709 14.2727 33.5381 14.3342 33.2318C14.4204 33.385 14.4481 33.5504 14.4173 33.728C14.3927 33.8751 14.3496 33.9731 14.2881 34.0221Z" fill="#DBDCDC"/>
<path id="Vector_31" d="M14.2604 36.1173C14.2604 35.7008 14.4173 35.324 14.7312 34.987C15.0513 34.6501 15.4145 34.4755 15.8207 34.4632C15.3591 35.0636 15.1744 35.569 15.2667 35.9795C15.3283 36.2552 15.5776 36.488 16.0146 36.6779C16.3777 36.8372 16.7347 36.923 17.0856 36.9352L16.6793 37.3947C16.5193 37.5295 16.3316 37.5969 16.1161 37.5969C15.6668 37.5969 15.2514 37.456 14.8697 37.1741C14.4635 36.8678 14.2604 36.5156 14.2604 36.1173Z" fill="#D18200"/>
<path id="Vector_32" d="M15.6176 34.7481C15.913 34.2825 16.0854 34.0742 16.1346 34.1232L15.7561 34.7757C15.5037 35.2597 15.4083 35.6456 15.4699 35.9336C15.5253 36.1541 15.7468 36.3593 16.1346 36.5493C16.4978 36.7269 16.8332 36.8158 17.141 36.8158C17.3564 36.8158 17.5872 36.7637 17.8334 36.6595L18.1381 36.5217C17.8611 36.7974 17.5226 36.9352 17.1225 36.9352C16.7778 36.9352 16.4147 36.8525 16.0331 36.6871C15.5837 36.4972 15.3283 36.2613 15.2667 35.9795C15.1929 35.6548 15.3098 35.2443 15.6176 34.7481Z" fill="#0D131A"/>
<path id="Vector_33" d="M25.9028 44.3971L26.4106 44.1582L32.3934 57.7771L31.6455 57.869C31.1962 57.9242 30.8115 58.0007 30.4914 58.0988C30.3499 58.1478 30.0852 58.3163 29.6974 58.6042L29.0973 58.9993C29.282 59.2567 29.4266 59.6181 29.5312 60.0837C29.6297 60.5187 29.6543 60.8158 29.6051 60.9751C29.5435 61.1895 29.4297 61.3764 29.2635 61.5357C29.1096 61.6827 28.9403 61.7838 28.7557 61.8389C28.0602 61.9859 27.5062 62.1452 27.0938 62.3168C26.8291 62.4209 26.4321 62.6476 25.9028 62.9968L25.1365 63.539L24.8318 63.8331C24.6779 63.9372 24.4902 64.0077 24.2686 64.0444C24.084 64.075 23.7762 64.023 23.3453 63.8882L22.6621 64.0444L21.9327 64.2282C21.6065 64.3385 21.3234 64.4488 21.0833 64.559L20.7233 64.7336C20.5386 64.8194 20.4032 64.8531 20.317 64.8347C20.1878 64.8041 20.1385 64.6724 20.1693 64.4396C20.2001 64.219 20.2832 63.9586 20.4186 63.6584L20.6125 63.2725L18.9321 63.3552C18.7228 63.392 18.5228 63.4471 18.332 63.5206L17.9258 63.6952L17.5841 63.7228C17.5226 63.686 17.501 63.6217 17.5195 63.5298C17.5441 63.3338 17.6057 63.1224 17.7042 62.8957C17.895 62.4362 18.1966 62.0166 18.609 61.6367L17.8888 61.6184C17.5441 61.6245 17.2672 61.6735 17.0579 61.7654C16.744 61.9124 16.6516 61.7777 16.7809 61.3611C16.8855 61.0241 17.2025 60.6504 17.7319 60.2399C18.0273 60.0194 18.3474 59.8264 18.6921 59.661C18.9814 59.5201 19.2245 59.4282 19.4214 59.3853L19.5138 59.3669L19.7261 59.3485L20.871 58.6318C21.191 58.4112 21.5019 58.1447 21.8035 57.8323L22.2282 57.3177L22.3205 56.8949L21.7758 56.4906C21.4865 56.2639 21.2588 56.0403 21.0926 55.8198C20.4524 54.9621 20.0831 54.2085 19.9846 53.5591C19.8061 52.34 20.2216 50.8727 21.2311 49.1573C21.9081 47.9994 22.976 46.8109 24.4348 45.5918C25.6043 44.7096 26.0936 44.3114 25.9028 44.3971Z" fill="#0D131A"/>
<path id="Vector_34" d="M24.6287 45.895C24.9918 45.5948 25.3488 45.3406 25.6997 45.1323L26.1244 44.9026L31.5717 57.3177C31.0977 57.3728 30.6822 57.4555 30.3252 57.5658C30.1344 57.627 29.8913 57.7833 29.5959 58.0344C29.2635 58.3163 29.008 58.5 28.8295 58.5858C28.7249 58.641 28.5618 58.742 28.3402 58.8891L28.0448 59.0912L28.3033 59.128C28.4818 59.1525 28.6018 59.1831 28.6634 59.2199C28.7372 59.2689 28.8142 59.4282 28.8942 59.6978L29.0604 60.4605C28.9373 60.6565 28.6603 60.8434 28.2294 61.021C27.9217 61.1436 27.5954 61.2447 27.2508 61.3243C26.9307 61.3978 26.586 61.505 26.2167 61.6459C25.7797 61.8052 25.4442 61.9645 25.2103 62.1238L24.5179 62.5557C24.2963 62.6782 24.0993 62.7487 23.927 62.7671L23.4654 63.4563C22.9237 63.2786 22.3051 63.0121 21.6096 62.6568C20.8648 62.2708 20.2955 61.9124 19.9015 61.5816C19.4522 61.2079 19.1937 60.8556 19.126 60.5248L19.1629 60.1388L21.2495 58.8431C21.6127 58.5919 21.945 58.2979 22.2466 57.9609C22.4805 57.6975 22.6283 57.4923 22.6898 57.3452L22.7267 57.0879L23.0868 57.1982L24.0655 57.2717L23.5577 57.1614L23.1607 57.0144C23.0622 56.9838 22.936 56.9225 22.7821 56.8306L22.5698 56.6928C22.3605 56.558 22.0589 56.2272 21.665 55.7003C21.1726 55.057 20.8741 54.3372 20.7694 53.5407C20.5909 52.2726 20.9079 50.9003 21.7204 49.4238C22.5021 48.0086 23.4715 46.8324 24.6287 45.895Z" fill="#F29600"/>
<path id="Vector_35" d="M28.2294 61.021C28.6603 60.8434 28.9373 60.6565 29.0604 60.4605C29.0912 60.7178 29.0973 60.874 29.0788 60.9292C29.005 61.1191 28.8634 61.2722 28.6541 61.3886L28.1371 61.5816L27.0292 61.9216C26.8999 61.9461 26.5768 62.1146 26.0598 62.427L25.1088 63.0152L24.7302 63.3368C24.5702 63.4716 24.3794 63.5574 24.1578 63.5941C24.0347 63.6125 23.8039 63.5666 23.4654 63.4563L23.927 62.7671C24.0993 62.7487 24.2963 62.6782 24.5179 62.5557L25.2103 62.1238C25.4442 61.9645 25.7797 61.8052 26.2167 61.6459C26.586 61.505 26.9307 61.3978 27.2508 61.3243C27.5955 61.2447 27.9217 61.1436 28.2294 61.021Z" fill="#D18200"/>
<path id="Vector_36" d="M23.253 57.5566C23.1299 57.477 23.0776 57.4249 23.0961 57.4004L23.2807 57.4555L23.6685 57.5842L24.1763 57.6301L24.4625 57.6669L24.1855 57.7404L23.6777 57.722C23.5361 57.6975 23.3946 57.6424 23.253 57.5566Z" fill="#0D131A"/>
<path id="Vector_37" d="M26.0967 56.4263C25.3888 55.3909 25.0349 54.2361 25.0349 52.9618C25.0349 51.9632 25.2596 51.0259 25.7089 50.1498C26.1459 49.3044 26.743 48.606 27.5 48.0546L31.5716 57.3177C31.0977 57.3728 30.6822 57.4555 30.3252 57.5658C30.1344 57.6271 29.8913 57.7833 29.5959 58.0345C29.2635 58.3163 29.008 58.5001 28.8295 58.5858L28.8203 58.595C27.7001 58.1662 26.7922 57.4433 26.0967 56.4263Z" fill="#D18200"/>
<path id="Vector_38" d="M19.6892 59.7253C19.7754 59.7008 19.8492 59.7376 19.9108 59.8356C19.9785 59.9397 20.0246 60.096 20.0493 60.3042C20.08 60.6044 20.0493 60.9598 19.9569 61.3702H17.9719C17.7626 61.3825 17.5134 61.4376 17.2241 61.5357L16.8548 61.6827C16.8301 61.6092 16.8517 61.502 16.9194 61.361C17.0486 61.0854 17.3318 60.7852 17.7688 60.4605C18.0642 60.2399 18.452 60.0592 18.9321 59.9183L19.6892 59.7253Z" fill="white"/>
<path id="Vector_39" d="M18.8029 60.9843C19.4861 60.9353 19.8554 60.8403 19.9108 60.6994H19.92L19.8554 61.2416L17.9627 61.2508C17.7657 61.2569 17.5441 61.2998 17.2979 61.3795C17.6857 61.165 18.1874 61.0333 18.8029 60.9843Z" fill="#DBDCDC"/>
<path id="Vector_40" d="M19.5415 59.6334L19.6523 59.6058L19.9016 59.6426C20.0493 59.7406 20.1416 59.9581 20.1785 60.2951V60.7086L19.92 60.6994V60.3226C19.8954 60.0776 19.8431 59.9213 19.7631 59.854C19.6523 59.7804 19.3784 59.8264 18.9414 59.9918C18.5105 60.1511 18.1443 60.341 17.8427 60.5616C17.381 60.9046 17.101 61.2109 17.0025 61.4805L17.2979 61.3794L17.4826 61.5908L16.9009 61.8021H16.7994C16.7563 61.7838 16.7317 61.7562 16.7255 61.7194C16.707 61.5969 16.7317 61.4652 16.7994 61.3243C16.9348 61.0241 17.2333 60.7025 17.6949 60.3594C18.1012 60.0592 18.7167 59.8172 19.5415 59.6334Z" fill="#0D131A"/>
<path id="Vector_41" d="M17.9719 61.4989L17.4826 61.5908L17.2979 61.3795C17.5441 61.2998 17.7657 61.2569 17.9627 61.2508L19.8554 61.2416L19.92 60.6994L20.1785 60.7086L20.0862 61.3978C20.0677 61.4652 20.0247 61.4989 19.9569 61.4989H17.9719Z" fill="#0D131A"/>
<path id="Vector_42" d="M19.5876 62.5833C18.8983 62.7671 18.3535 63.0244 17.9534 63.3552L18.1104 63.4103L17.6857 63.5941C17.6734 63.4716 17.7042 63.3154 17.778 63.1255C17.9134 62.7395 18.1812 62.3689 18.5813 62.0135C18.8582 61.7746 19.2491 61.4989 19.7538 61.1865L20.5478 60.727C20.6402 60.6719 20.7971 60.7484 21.0187 60.9567C21.2649 61.1773 21.428 61.4254 21.508 61.7011L21.5542 61.8757L21.1757 62.1789C21.0095 62.277 20.8587 62.3382 20.7233 62.3627L19.5876 62.5833Z" fill="white"/>
<path id="Vector_43" d="M19.0244 63.1071C18.8459 63.1377 18.5413 63.2388 18.1104 63.4103L17.9535 63.3552C18.3535 63.0244 18.8983 62.7671 19.5876 62.5833L20.7233 62.3627C20.8587 62.3382 21.0095 62.2769 21.1757 62.1789L21.5542 61.8757C21.6342 62.2371 21.6496 62.5802 21.6004 62.9049L19.0244 63.1071Z" fill="#DBDCDC"/>
<path id="Vector_44" d="M17.8519 63.346L17.9534 63.3368C18.4582 63.1285 18.809 63.009 19.006 62.9784L21.4803 62.7854C21.5173 62.4056 21.4865 62.0564 21.388 61.7378C21.3203 61.505 21.1849 61.2875 20.9818 61.0853C20.8094 60.9199 20.6832 60.8372 20.6032 60.8372L20.5571 60.8648C19.6707 61.361 19.0398 61.7746 18.6644 62.1054C18.252 62.4668 17.9873 62.8467 17.8704 63.2449L17.8519 63.346ZM18.2489 63.493C17.9288 63.6217 17.7596 63.6952 17.7411 63.7136L17.6211 63.7044L17.5564 63.6033C17.5503 63.4624 17.5841 63.2878 17.658 63.0795C17.7996 62.6751 18.0796 62.2892 18.4982 61.9216C18.8921 61.5663 19.5353 61.1405 20.4278 60.6442L20.4832 60.6167C20.5448 60.5799 20.634 60.5799 20.751 60.6167C20.8987 60.6779 21.0618 60.8097 21.2403 61.0118C21.4434 61.2324 21.588 61.4652 21.6742 61.7102C21.7912 62.0411 21.8373 62.3382 21.8127 62.6016L21.7296 62.9233C21.7173 62.9845 21.6773 63.0213 21.6096 63.0335L19.0521 63.2265C18.8798 63.251 18.612 63.3399 18.2489 63.493Z" fill="#0D131A"/>
<path id="Vector_45" d="M22.3482 61.94C22.4221 61.8788 22.6221 61.9278 22.9483 62.087C23.293 62.2525 23.5331 62.4332 23.6685 62.6292L23.7054 62.6936L23.5485 62.6109C23.5485 62.8314 23.4377 62.9938 23.2161 63.0979L22.1174 63.5574C21.4465 63.8576 20.9941 64.121 20.7602 64.3477L20.8433 64.4212L20.5109 64.5682C20.4617 64.4886 20.4463 64.3752 20.4647 64.2282C20.4894 63.9341 20.6556 63.6309 20.9633 63.3185C21.6835 62.5649 22.1451 62.1054 22.3482 61.94Z" fill="white"/>
<path id="Vector_46" d="M23.8901 63.3828L22.0805 63.9617C21.7789 64.0597 21.3665 64.2129 20.8433 64.4212L20.7602 64.3477C20.9941 64.121 21.4465 63.8576 22.1174 63.5574L23.2161 63.0979C23.4377 62.9937 23.5484 62.8314 23.5484 62.6108L23.7054 62.6935C23.8654 62.957 23.927 63.1867 23.8901 63.3828Z" fill="#DBDCDC"/>
<path id="Vector_47" d="M23.5577 62.7027C23.4469 62.5373 23.2438 62.378 22.9483 62.2249C22.6898 62.0901 22.5113 62.0288 22.4128 62.0411L21.0464 63.4103C20.7633 63.6983 20.6094 63.974 20.5848 64.2374C20.5725 64.3415 20.6248 64.3722 20.7417 64.3293L22.0343 63.8422L23.0868 63.5206L23.7239 63.2817C23.7854 63.1346 23.73 62.9417 23.5577 62.7027ZM22.2651 61.8389C22.3144 61.8022 22.3944 61.7868 22.5052 61.793C22.6898 61.8175 22.9114 61.9032 23.1699 62.0503C23.4469 62.2096 23.647 62.378 23.7701 62.5557C23.9362 62.8008 24.0286 63.0274 24.047 63.2357C24.0655 63.3766 24.047 63.4808 23.9916 63.5482C23.9732 63.5788 23.9055 63.6033 23.7885 63.6217L23.1607 63.7687L22.1174 64.0812C21.7666 64.1976 21.4034 64.3324 21.0279 64.4855L20.5663 64.6785C20.4986 64.7091 20.4432 64.6938 20.4001 64.6325C20.3447 64.5284 20.3232 64.3936 20.3355 64.2282C20.354 63.9035 20.5325 63.5696 20.871 63.2265C21.6465 62.4301 22.1112 61.9676 22.2651 61.8389Z" fill="#0D131A"/>
<path id="Vector_48" d="M36.3819 19.6221C36.5111 19.6527 36.6158 19.7201 36.6958 19.8243C36.7758 19.9284 36.8127 20.0479 36.8066 20.1827L36.6958 23.1509C36.6404 25.24 36.6466 26.6062 36.7143 27.2494C36.8004 28.0213 37.0466 29.0383 37.4529 30.3004C37.8899 31.6482 38.3608 32.7754 38.8655 33.6821C39.124 34.1416 39.681 35.0299 40.5366 36.3471L42.7432 39.8391C43.5557 41.193 44.122 42.2713 44.442 43.0738C45.2114 45.0159 45.7561 46.6149 46.0762 47.8708C46.6609 50.1376 46.8364 52.1378 46.6025 53.8716C46.344 55.7585 45.5561 57.235 44.2389 58.3009C42.9463 59.3547 41.2321 59.9306 39.0963 60.0286C36.5358 60.145 34.2091 59.7621 32.1164 58.8799C29.3651 57.7281 27.18 55.7738 25.5612 53.017C24.0716 50.4745 23.6685 47.6196 24.3517 44.4523C24.8503 42.1426 25.9459 39.6369 27.6385 36.9352C29.1404 34.5276 30.0513 31.2132 30.3714 26.9921C30.4699 25.6076 30.3129 23.8217 29.9005 21.6346L29.245 18.7307C29.2327 18.6511 29.282 18.5684 29.3927 18.4826L29.679 18.2804C29.8267 18.1395 30.0021 18.0936 30.2052 18.1426L36.3819 19.6221Z" fill="#0D131A"/>
<path id="Vector_49" d="M26.6691 53.7245C28.8357 55.5257 31.1346 56.656 33.5659 57.1155C36.0033 57.575 38.1176 57.2656 39.9088 56.1873C40.2658 57.2043 40.7089 57.9334 41.2383 58.3745C41.4845 58.5889 41.8045 58.7849 42.1985 58.9626C41.2937 59.3363 40.2596 59.5507 39.0963 59.6059C36.825 59.7039 34.7538 59.4037 32.8827 58.7053C30.3345 57.7496 28.2633 56.0893 26.6691 53.7245Z" fill="#DDD583"/>
<path id="Vector_50" d="M25.2011 43.3495C25.7551 41.7812 26.4598 40.5283 27.3154 39.591C28.5033 38.2922 29.9005 37.701 31.507 37.8174C33.4336 37.9644 35.1447 39.4409 36.6404 42.2468C37.9761 44.7525 38.7301 47.396 38.9024 50.1774C39.0624 52.7504 39.3979 54.7538 39.9088 56.1873C38.1176 57.2656 36.0033 57.575 33.5659 57.1155C31.1346 56.656 28.8357 55.5257 26.6691 53.7245L26.1521 52.9067C24.521 50.1314 24.204 46.9457 25.2011 43.3495Z" fill="#FFF697"/>
<path id="Vector_51" d="M39.3271 38.5158C39.3271 37.799 39.5518 37.1435 40.0011 36.5493C41.6384 39.0733 42.7524 40.9082 43.3433 42.0538H43.3064C42.2046 42.0538 41.266 41.7077 40.4904 41.0154C39.7149 40.3292 39.3271 39.496 39.3271 38.5158Z" fill="#D18200"/>
<path id="Vector_52" d="M36.2434 20.1735L36.2342 20.6054L36.1972 24.1525C36.1972 25.3717 36.2188 26.2998 36.2619 26.937L36.2896 27.2494C36.3819 28.1316 36.6189 29.2129 37.0005 30.4933C37.419 31.9024 37.8776 33.0542 38.3761 33.9486L41.146 38.332C42.5739 40.5743 43.4972 42.2223 43.9158 43.276C44.6913 45.2365 45.2422 46.8569 45.5684 48.1373C46.1101 50.2754 46.2701 52.1623 46.0485 53.7981C45.8885 54.9805 45.5069 55.9974 44.9037 56.849C44.3312 57.6638 43.5711 58.304 42.6232 58.7696C42.1369 58.5858 41.7461 58.3683 41.4506 58.1172C40.8597 57.6148 40.4043 56.7479 40.0842 55.5165C39.7887 54.3464 39.5733 52.6708 39.4379 50.4898C39.3579 49.1543 39.1301 47.7391 38.7547 46.2442C38.3546 44.6514 37.8591 43.2821 37.2682 42.1365C36.6219 40.8806 35.871 39.833 35.0155 38.9937C33.9198 37.9216 32.7811 37.3426 31.5994 37.2569C29.5374 37.1037 27.7463 38.1942 26.2259 40.5283C26.7122 39.444 27.2969 38.3535 27.9801 37.2569C29.5435 34.7695 30.4822 31.4337 30.7961 27.2494C30.8515 26.4285 30.7961 25.3165 30.6299 23.9136C30.4514 22.4372 30.2145 21.2241 29.919 20.2745L30.076 18.7307V18.6939L36.2434 20.1735Z" fill="#F29600"/>
<path id="Vector_53" d="M36.2434 20.1735L36.2342 20.6054L36.1972 24.1525C36.1972 25.3717 36.2188 26.2998 36.2619 26.937L36.2896 27.2494L36.4742 28.4257C35.354 28.7259 34.2614 28.5053 33.1966 27.764C32.3103 27.1453 31.4886 26.1957 30.7315 24.9153C30.5776 23.0712 30.3068 21.5243 29.919 20.2745L30.076 18.7307V18.6939L36.2434 20.1735Z" fill="#D18200"/>
<path id="Vector_54" d="M46.4732 45.9778C47.4272 47.0621 48.2182 48.2323 48.846 49.4882C49.6831 51.1484 50.1016 52.9098 50.1016 54.7722C50.1016 55.734 49.877 56.7724 49.4277 57.8874C49.2061 58.4511 48.9814 58.9258 48.7537 59.3118C48.7044 59.6059 48.6798 59.903 48.6798 60.2032C49.4984 60.8281 50.037 61.3059 50.2955 61.6368L50.7202 62.1514L51.0341 62.519C51.3173 62.6844 51.5019 62.862 51.5881 63.052C51.6681 63.2419 51.702 63.4686 51.6897 63.732L52.2713 64.7888C52.4868 65.2666 52.5729 65.7231 52.5298 66.158C52.5052 66.3908 52.4498 66.5808 52.3637 66.7278C52.2529 66.9728 52.1359 67.1015 52.0128 67.1137L51.8097 66.9667L51.6897 66.8105C51.3819 66.4919 51.1665 66.302 51.0434 66.2407L50.4525 66.0202L49.7416 65.7721L49.0584 65.8088V66.2315C49.046 66.5624 48.9999 66.8381 48.9199 67.0586C48.8275 67.322 48.7106 67.5487 48.569 67.7386C48.4275 67.9347 48.3136 68.0204 48.2274 67.9959C48.1843 67.9898 48.0889 67.8704 47.9412 67.6376C47.8243 67.4538 47.695 67.2945 47.5534 67.1597L46.7963 66.6635L46.0485 66.2499L45.6515 66.1121L45.0791 66.1213C44.9806 66.5134 44.7805 66.9667 44.4789 67.4813C44.3189 67.7876 44.202 67.9377 44.1281 67.9316C44.085 67.9255 44.0081 67.8489 43.8973 67.7019L43.7496 67.4905C43.5464 67.1597 43.3833 66.93 43.2602 66.8013L42.7063 66.3143L42.06 65.7537L41.6353 65.6067L41.3398 65.3861C41.2352 65.2942 41.1613 65.1839 41.1182 65.0553C41.0875 64.9634 41.0659 64.8347 41.0536 64.6693C41.0044 63.6278 41.3675 62.4761 42.1431 61.214L42.0877 60.4973C41.226 60.0745 40.4073 59.3884 39.6318 58.4388C38.9793 57.6424 38.567 56.6193 38.3946 55.3695L38.3207 53.7246C38.3577 52.726 38.7208 51.7335 39.4102 50.7471C39.8164 50.159 40.2719 49.6536 40.7766 49.2309L44.6821 44.4247L44.5343 43.515L44.9775 44.4063L46.4732 45.9778Z" fill="#0D131A"/>
<path id="Vector_55" d="M47.6273 29.9879L47.6642 29.7857C47.7073 29.3814 47.8673 29.0598 48.1443 28.8208L48.1997 28.7749C48.3721 28.6034 48.5936 28.4747 48.8645 28.3889C49.2399 28.2664 49.5723 28.2909 49.8616 28.4624C50.2248 28.6707 50.511 29.023 50.7202 29.5192C50.948 30.0645 50.948 30.5087 50.7202 30.8517L50.4617 31.3388C50.3571 31.5532 50.2986 31.6972 50.2863 31.7707C50.3048 31.8442 50.3848 31.9698 50.5264 32.1475L50.8587 32.5334L51.6989 32.3772C52.0436 32.3527 52.2929 32.4568 52.4468 32.6896C52.5268 32.8122 52.5945 33.2012 52.6499 33.8567C52.7053 34.5184 52.696 34.9227 52.6222 35.0697C52.5729 35.1678 52.4898 35.2597 52.3729 35.3454L51.939 35.6303L51.5604 35.7773C51.3942 35.8325 51.2957 35.8815 51.265 35.9244C51.0618 36.1449 50.7633 36.583 50.3694 37.2385C50.2709 37.4039 50.0986 37.5325 49.8524 37.6244L49.2799 37.7531C48.8122 39.6278 48.3936 40.9633 48.0243 41.7597C47.735 42.3908 47.3965 42.8319 47.0087 43.083C46.664 43.3036 46.2393 43.42 45.7346 43.4322C45.2853 43.4445 44.9313 43.3802 44.6728 43.2393C44.5928 43.1964 44.2204 42.8257 43.5557 42.1273L42.3831 40.9235L41.7461 40.464L41.0813 40.0321C40.829 39.8606 40.5274 39.6952 40.1765 39.5359L39.7241 39.3521L39.3733 39.3245L38.9763 39.398L38.7639 39.4623L39.1702 39.1775C38.8008 39.1285 38.6131 39.0733 38.607 39.0121C38.6008 38.9753 38.647 38.9508 38.7455 38.9385H38.9024L36.1511 34.7113C35.9418 34.8094 35.8218 34.8094 35.791 34.7113C35.7725 34.6501 35.7756 34.598 35.8002 34.5551L35.9202 34.4265C35.988 34.3713 36.2619 34.212 36.742 33.9486C37.179 33.7158 37.6806 33.5412 38.2469 33.4248C38.8624 33.3023 39.3333 33.2992 39.6595 33.4156C40.2504 33.63 40.6658 33.9333 40.9059 34.3254C41.1336 34.7113 41.2506 35.2872 41.2567 36.053L41.7276 36.3103C41.9307 36.4267 42.0877 36.5431 42.1985 36.6595L42.3554 36.8341L43.1587 37.7347C43.5403 38.1574 43.8265 38.4362 44.0173 38.571C44.2758 38.7548 44.5836 38.8528 44.9406 38.865L45.6607 38.8099L45.8177 37.7715C45.8731 37.2017 45.8792 36.8188 45.8361 36.6228L45.3007 36.1725C45.0237 36.0745 44.839 35.9856 44.7467 35.906C44.562 35.7222 44.4789 35.4251 44.4974 35.0146L44.5066 34.5735L44.3497 34.4357C43.9188 34.0803 43.6295 33.7924 43.4818 33.5718C43.2541 33.241 43.1894 32.8581 43.2879 32.4231C43.3803 32.0249 43.5403 31.7768 43.768 31.6788C43.9465 31.6053 44.0327 31.5746 44.0265 31.5869L44.9313 31.1366C45.0852 31.0815 45.2329 31.0937 45.3745 31.1734L45.6607 31.4307C45.8331 31.6022 45.9346 31.691 45.9654 31.6972L46.6025 31.7799L47.1841 30.8425C47.4426 30.3953 47.5904 30.1104 47.6273 29.9879Z" fill="#0D131A"/>
<path id="Vector_56" d="M48.1351 30.089L48.209 29.5743C48.2459 29.3661 48.3044 29.2282 48.3844 29.1608L48.8645 28.8024C49.1538 28.6921 49.4954 28.7442 49.8893 28.9586L50.2217 29.5743C50.4125 30.0277 50.4371 30.3616 50.2955 30.576C50.2032 30.7108 50.1047 30.9344 50.0001 31.2468C49.8893 31.5654 49.8431 31.7737 49.8616 31.8717C49.8985 32.0984 50.0616 32.3435 50.3509 32.6069L50.7756 32.9285L51.2834 32.7815C51.6466 32.7202 51.8928 32.7846 52.022 32.9745C52.1575 33.1705 52.2313 33.5167 52.2436 34.0129C52.2559 34.4479 52.2313 34.7236 52.1698 34.84L51.6435 35.2167C51.2927 35.425 51.068 35.5813 50.9695 35.6854L50.3786 36.3838C50.1201 36.7024 49.9693 36.9046 49.9262 36.9903C49.8277 37.1557 49.6185 37.2813 49.2984 37.3671L48.846 37.4406L48.7075 38.3044C48.5659 39.0212 48.3659 39.7135 48.1074 40.3813C47.8058 41.1532 47.5657 41.6739 47.3872 41.9435C47.2334 42.1702 47.0056 42.3815 46.704 42.5776C46.4394 42.7491 46.107 42.8502 45.7069 42.8808C45.3376 42.9115 45.0668 42.8778 44.8944 42.7797C44.7959 42.7307 44.5774 42.501 44.2389 42.0905C43.8819 41.6556 43.608 41.3676 43.4172 41.2267L42.4755 40.464C42.0261 40.0903 41.6599 39.8085 41.3768 39.6185C41.0013 39.3612 40.2996 39.1499 39.2717 38.9845L38.8378 38.9293H38.6716L36.0587 34.7665L37.3421 34.1967C38.2777 33.8475 38.9393 33.7403 39.3271 33.8751C39.7826 34.0405 40.115 34.2212 40.3242 34.4172C40.5151 34.5888 40.6566 34.8247 40.7489 35.1248C40.8597 35.4986 40.8967 35.9029 40.8597 36.3379L41.2475 36.5584C41.5368 36.7361 41.7584 36.9076 41.9123 37.073L42.7247 37.946C43.131 38.3565 43.4572 38.6506 43.7034 38.8282C44.2389 39.2081 44.8452 39.3704 45.5222 39.3153C45.473 39.4868 45.3407 39.64 45.1252 39.7748L44.6636 40.0964L44.2851 40.3169C44.1866 40.3966 44.1343 40.5099 44.1281 40.657C44.122 40.8224 44.1897 41.0766 44.3312 41.4197C44.4728 41.7566 44.5682 41.9159 44.6174 41.8975L44.5159 41.5759C44.4051 41.2941 44.3589 41.0062 44.3774 40.7121C44.3774 40.6508 44.4174 40.5896 44.4974 40.5283C44.5467 40.4977 44.6667 40.4272 44.8575 40.3169L45.2637 40.0872C45.4915 39.9402 45.6977 39.7196 45.8823 39.4256L45.9562 39.2601L46.0854 38.7823L46.3163 37.7255C46.3716 37.3947 46.3809 37.0761 46.3439 36.7698L46.2609 36.4114C45.8608 36.0254 45.5961 35.8049 45.4668 35.7497L45.1622 35.5935C45.0575 35.4832 45.0052 35.2903 45.0052 35.0146L45.0144 34.5367L44.9775 34.3345L44.4605 33.9486C44.1096 33.7096 43.8788 33.5136 43.768 33.3604C43.4972 32.9867 43.4387 32.6498 43.5926 32.3496L43.8973 32.0096L45.0975 31.6144L45.3561 31.8442C45.5284 32.028 45.6761 32.1413 45.7992 32.1842L46.4178 32.2853L46.8794 32.2393C46.9595 32.1964 47.181 31.8656 47.5442 31.2468C47.9135 30.6281 48.1105 30.2421 48.1351 30.089Z" fill="#F29600"/>
<path id="Vector_57" d="M46.2516 33.2778C46.227 33.5228 46.0947 33.6821 45.8546 33.7556C45.633 33.823 45.4545 33.7985 45.3191 33.6821C45.0606 33.4616 44.8359 33.3115 44.6451 33.2318L44.3497 33.1859L44.1281 33.1583C43.9127 33.1215 43.7619 32.9469 43.6757 32.6345C43.6203 32.4201 43.6141 32.2056 43.6572 31.9912C43.7188 31.7339 43.848 31.5164 44.045 31.3388C44.2789 31.1305 44.562 31.0416 44.8944 31.0723C45.196 31.1029 45.3991 31.1917 45.5038 31.3388L45.5592 31.3939C45.9469 31.7799 46.1654 32.1229 46.2147 32.4231C46.2701 32.7662 46.2824 33.0511 46.2516 33.2778Z" fill="#0D131A"/>
<path id="Vector_58" d="M46.1778 33.0113L46.1316 32.4415C46.0824 32.172 45.8731 31.8442 45.5038 31.4582L45.4391 31.3939C45.3407 31.2714 45.156 31.1948 44.8852 31.1642C44.5897 31.1274 44.3281 31.2071 44.1004 31.4031C43.8419 31.6359 43.7126 31.9269 43.7126 32.2761L43.7588 32.6069C43.8388 32.8887 43.965 33.045 44.1373 33.0756L44.3589 33.1032L44.6821 33.1491C44.8729 33.2349 45.076 33.3697 45.2914 33.5535C45.4207 33.6515 45.5869 33.6852 45.79 33.6545C46.0116 33.6178 46.1347 33.5044 46.1593 33.3145L46.1778 33.0113ZM46.2978 32.414C46.3593 32.7815 46.3378 33.1154 46.2332 33.4156C46.1162 33.7219 46.0054 33.9027 45.9008 33.9578C45.7961 34.0129 45.6546 33.9609 45.4761 33.8016C45.2976 33.6423 45.0083 33.4769 44.6082 33.3053L44.1096 33.241C43.8634 33.2043 43.6911 33.0082 43.5926 32.6529C43.5311 32.4262 43.5249 32.1995 43.5741 31.9729C43.6357 31.7033 43.7742 31.4736 43.9896 31.2836C44.2358 31.057 44.5405 30.9589 44.9036 30.9896L45.3099 31.0998L45.5684 31.2836L45.6238 31.3388C46.0177 31.7309 46.2424 32.0893 46.2978 32.414Z" fill="#0D131A"/>
<path id="Vector_59" d="M44.9036 31.3112C45.1006 31.3418 45.2299 31.3939 45.2914 31.4674L45.6053 31.8166C45.79 32.0433 45.8977 32.2424 45.9285 32.4139C45.9962 32.8305 45.9931 33.1675 45.9192 33.4248L45.7808 33.6913L45.7161 33.627C45.6176 33.3513 45.3653 33.0664 44.959 32.7723L44.7005 32.708C44.5466 32.6835 44.4174 32.6376 44.3128 32.5702L43.9157 32.1566C43.9404 31.8871 44.0481 31.6726 44.2389 31.5134C44.4235 31.348 44.6451 31.2806 44.9036 31.3112Z" fill="white"/>
<path id="Vector_60" d="M44.1927 32.8458C44.1189 32.8336 44.0512 32.7601 43.9896 32.6253C43.9281 32.4783 43.9034 32.322 43.9158 32.1566L44.3128 32.5701C44.4174 32.6375 44.5467 32.6835 44.7005 32.708L44.959 32.7723C45.3653 33.0664 45.6176 33.3513 45.7161 33.6269C45.353 33.2839 45.0298 33.0511 44.7467 32.9285L44.4789 32.8734L44.1927 32.8458Z" fill="#DBDCDC"/>
<path id="Vector_61" d="M49.6031 28.4716C49.917 28.6125 50.1201 28.8515 50.2124 29.1884C50.274 29.4028 50.2832 29.6356 50.2401 29.8868C50.2094 30.1074 50.157 30.2636 50.0832 30.3555C49.2399 31.1642 48.686 31.5991 48.4213 31.6604C48.2982 31.6788 48.209 31.6543 48.1536 31.5869C48.0181 31.4215 47.9227 31.0723 47.8673 30.5393C47.8058 29.9757 47.8396 29.5621 47.9689 29.2987C48.3444 28.4349 48.8891 28.1592 49.6031 28.4716Z" fill="#0D131A"/>
<path id="Vector_62" d="M49.5385 28.6095C49.1753 28.4502 48.8676 28.4655 48.6152 28.6554C48.4305 28.7902 48.2613 29.0261 48.1074 29.363C47.9904 29.6142 47.9504 30.0155 47.9874 30.5669C48.0181 31.0937 48.0859 31.4215 48.1905 31.5501L48.329 31.5685C48.4705 31.5379 48.7691 31.3296 49.2246 30.9436L49.9632 30.2636L50.0647 30.0063L50.1109 29.5836L50.0647 29.2252C49.9909 28.9372 49.8154 28.732 49.5385 28.6095ZM47.8858 29.2344C48.0397 28.781 48.2767 28.4747 48.5967 28.3154C48.9106 28.1561 49.2646 28.1623 49.6585 28.3338C50.0401 28.4992 50.2771 28.8147 50.3694 29.2803C50.4556 29.7214 50.3786 30.0921 50.1386 30.3923C49.9047 30.7231 49.5692 31.0539 49.1322 31.3847C48.6706 31.7401 48.3536 31.884 48.1813 31.8166C47.9904 31.7431 47.855 31.4184 47.775 30.8425C47.6888 30.236 47.7258 29.7 47.8858 29.2344Z" fill="#0D131A"/>
<path id="Vector_63" d="M48.1997 29.3171C48.3474 28.9924 48.5106 28.7688 48.689 28.6462L49.4923 28.6187C49.6646 28.686 49.8 28.8086 49.8985 28.9862C49.8739 29.3354 49.7816 29.6356 49.6215 29.8868C49.2153 30.4933 48.766 31.0386 48.2736 31.5226C48.1751 31.5348 48.1074 31.2377 48.0705 30.6312C48.0335 30.0124 48.0766 29.5744 48.1997 29.3171Z" fill="white"/>
<path id="Vector_64" d="M49.1414 30.8517C48.6921 31.2683 48.4059 31.4919 48.2828 31.5226H48.2736C48.766 31.0386 49.2153 30.4933 49.6215 29.8868C49.7816 29.6356 49.8739 29.3354 49.8985 28.9862C49.997 29.1762 50.0309 29.409 50.0001 29.6846C49.9755 29.8929 49.9355 30.04 49.8801 30.1257L49.1414 30.8517Z" fill="#DBDCDC"/>
<path id="Vector_65" d="M49.8154 33.9394L50.2586 33.1032C50.4248 32.9133 50.6341 32.8152 50.8864 32.8091C51.1388 32.8091 51.3665 32.9133 51.5696 33.1216C51.7912 33.3421 51.8743 33.627 51.8189 33.9762C51.7635 34.2519 51.5727 34.4694 51.2465 34.6286L50.5356 34.8768C50.1109 35.0054 49.8216 35.0606 49.6677 35.0422L49.4738 35.0238C49.4246 34.8829 49.5385 34.5214 49.8154 33.9394Z" fill="#0D131A"/>
<path id="Vector_66" d="M49.8339 34.114C49.5939 34.6409 49.4831 34.9288 49.5015 34.9779L49.7877 34.9595L50.434 34.8492C50.6495 34.7941 50.9111 34.6899 51.2188 34.5368C51.5204 34.3836 51.6928 34.1906 51.7358 33.9578L51.7451 33.774C51.7451 33.5351 51.6681 33.339 51.5143 33.1859C51.3173 32.9837 51.1111 32.8888 50.8957 32.901C50.6618 32.901 50.474 32.9837 50.3325 33.1491L49.8339 34.114ZM49.3261 35.1433C49.2584 35.082 49.3323 34.7787 49.5477 34.2335C49.7693 33.6699 49.9847 33.2717 50.194 33.0389C50.3848 32.8367 50.6156 32.7325 50.8864 32.7264C51.1634 32.7264 51.4127 32.8397 51.6343 33.0664C51.8805 33.3115 51.9697 33.6178 51.902 33.9854C51.8713 34.163 51.7974 34.3285 51.6804 34.4816L51.3204 34.7849C51.1603 34.8706 50.8095 34.9656 50.2678 35.0697L49.3261 35.1433Z" fill="#0D131A"/>
<path id="Vector_67" d="M51.6158 33.5351C51.4496 33.7862 51.2127 34.0282 50.9049 34.261C50.5233 34.5367 50.0832 34.7573 49.5846 34.9227C49.5292 34.9166 49.6493 34.6348 49.9447 34.0773C50.2278 33.5443 50.4094 33.2318 50.4894 33.1399C50.5941 33.0296 50.7172 32.9653 50.8587 32.9469C51.0619 32.9163 51.2527 32.9929 51.4312 33.1767C51.5358 33.2808 51.5973 33.4003 51.6158 33.5351Z" fill="white"/>
<path id="Vector_68" d="M51.2557 34.4356L50.4433 34.7205C49.9816 34.8676 49.6954 34.9349 49.5846 34.9227C50.0832 34.7573 50.5233 34.5367 50.9049 34.261C51.2126 34.0282 51.4496 33.7862 51.6158 33.5351C51.6404 33.7189 51.6035 33.9118 51.505 34.114C51.425 34.2794 51.3419 34.3866 51.2557 34.4356Z" fill="#DBDCDC"/>
<path id="Vector_69" d="M48.1628 34.1416C47.9904 34.2825 47.8243 34.451 47.6642 34.647C47.338 35.0452 47.1964 35.3883 47.2395 35.6762C47.2641 35.8723 47.3319 36.0653 47.4426 36.2552C47.1164 36.1755 46.8456 35.9887 46.6302 35.6946C46.4147 35.3944 46.307 35.0544 46.307 34.6746C46.307 34.2274 46.4486 33.8445 46.7317 33.5259C47.0087 33.2073 47.3472 33.048 47.7473 33.048C47.9935 33.048 48.2243 33.1154 48.4398 33.2502C48.649 33.3789 48.8214 33.5535 48.9568 33.774C48.5813 33.8965 48.3167 34.0191 48.1628 34.1416Z" fill="#D18200"/>
<path id="Vector_70" d="M48.1628 34.1416C48.2674 34.0619 48.449 33.97 48.7075 33.8659C48.9599 33.7617 49.0922 33.7219 49.1045 33.7464L48.7814 33.9302L48.2921 34.2059C48.1259 34.3345 47.9443 34.552 47.7473 34.8583C47.5196 35.2259 47.4211 35.5231 47.4519 35.7497C47.5073 36.1479 47.7381 36.5247 48.1443 36.8801L48.7168 37.312C48.686 37.3916 48.4582 37.2599 48.0335 36.9168C47.5719 36.5431 47.3072 36.1296 47.2395 35.6762C47.1964 35.3883 47.338 35.0452 47.6642 34.647C47.8243 34.4509 47.9905 34.2825 48.1628 34.1416Z" fill="#0D131A"/>
<path id="Vector_71" d="M44.0635 43.6436L44.2204 44.0204C44.3497 44.3083 44.482 44.5411 44.6174 44.7188L45.8084 45.9134C46.5778 46.7772 47.2949 47.8738 47.9597 49.2033C48.6983 50.6736 49.1599 52.0306 49.3446 53.2742C49.48 54.2238 49.4584 55.1887 49.2799 56.169C49.163 56.8429 48.9783 57.529 48.726 58.2274L48.3567 59.2383C48.3136 59.4527 48.289 59.6886 48.2828 59.9459C48.2705 60.2093 48.2859 60.3594 48.329 60.3962L48.9383 60.8832C49.3753 61.2508 49.6739 61.5418 49.8339 61.7562L50.7202 62.8681L50.9326 62.9784C51.0865 63.0642 51.1757 63.1408 51.2003 63.2082C51.2865 63.4165 51.2742 63.686 51.1634 64.0168C51.028 64.4028 50.7941 64.6846 50.4617 64.8623L49.6954 65.2666C49.6585 64.899 49.5908 64.7428 49.4923 64.798C49.1661 64.994 48.8522 65.0369 48.5506 64.9266V65.6066L47.2487 65.7353L46.5932 65.7629C46.3347 65.1747 46.1224 64.9511 45.9562 65.092C45.7961 65.2329 45.5869 65.2758 45.3283 65.2207C45.1006 65.1717 44.9252 65.0736 44.8021 64.9266L44.7744 65.7537C43.8942 65.723 43.1802 65.6311 42.6324 65.478L42.3739 64.752C42.1892 64.654 42.0292 64.4978 41.8938 64.2833C41.7584 64.0628 41.6691 63.8208 41.626 63.5574C41.7553 62.8467 42.0507 62.133 42.5124 61.4162C42.5493 61.3488 42.5616 61.0792 42.5493 60.6075L42.9186 60.681L43.7588 60.7178L44.1927 60.6535L43.768 60.5799L42.9925 60.4513L42.5401 60.3226V60.3134C42.3985 60.2828 42.1954 60.1787 41.9307 60.001C41.3952 59.6395 40.8197 59.082 40.2042 58.3285C39.5702 57.5505 39.1609 56.6591 38.9763 55.6543C38.8778 55.1213 38.8439 54.4199 38.8747 53.5499C38.9116 52.5268 39.2348 51.4762 39.8441 50.3979L40.7489 49.0838L44.0635 43.6436Z" fill="#F29600"/>
<path id="Vector_72" d="M49.4923 64.798C49.5908 64.7428 49.6585 64.899 49.6954 65.2666C49.3938 65.4137 49.0122 65.527 48.5506 65.6066V64.9266C48.8522 65.0369 49.1661 64.994 49.4923 64.798Z" fill="#D18200"/>
<path id="Vector_73" d="M45.9562 65.092C46.1224 64.9511 46.3347 65.1747 46.5932 65.7629C45.9654 65.7812 45.3591 65.7782 44.7744 65.7537L44.8021 64.9266C44.9252 65.0736 45.1006 65.1717 45.3284 65.2207C45.5869 65.2758 45.7961 65.2329 45.9562 65.092Z" fill="#D18200"/>
<path id="Vector_74" d="M41.626 63.5574C41.6691 63.8208 41.7584 64.0628 41.8938 64.2834C42.0292 64.4978 42.1892 64.654 42.3739 64.752L42.6324 65.478C41.9246 65.2942 41.5614 65.0216 41.5429 64.6601C41.5245 64.3109 41.5522 63.9433 41.626 63.5574Z" fill="#D18200"/>
<path id="Vector_75" d="M49.7046 64.6693L49.6677 64.6877C49.8154 64.3201 50.0032 64.0352 50.2309 63.8331C50.4771 63.6186 50.6556 63.4839 50.7664 63.4287C50.8895 63.3613 50.9849 63.3705 51.0526 63.4563L51.4588 64.0904L51.9297 64.9542C52.1205 65.383 52.1975 65.7843 52.1605 66.158C52.1421 66.3479 52.1051 66.4919 52.0497 66.5899C52.0128 66.3326 51.8282 66.0569 51.4958 65.7629C51.225 65.5239 50.9972 65.3708 50.8126 65.3034C50.5848 65.2299 50.3725 65.1472 50.1755 65.0553C49.8801 64.9082 49.7231 64.7796 49.7046 64.6693Z" fill="white"/>
<path id="Vector_76" d="M49.5754 65.2391C49.4954 65.2084 49.5262 65.0246 49.6677 64.6877L49.7047 64.6693C49.7231 64.7796 49.8801 64.9082 50.1755 65.0553C50.3725 65.1472 50.5848 65.2299 50.8126 65.3034C50.9972 65.3708 51.225 65.5239 51.4958 65.7629C51.8282 66.0569 52.0128 66.3326 52.0498 66.5899C51.6928 66.2223 51.4312 65.9957 51.265 65.9099L50.3786 65.5515L49.5754 65.2391Z" fill="#DBDCDC"/>
<path id="Vector_77" d="M47.5996 63.6493L48.1997 64.4763C48.5567 65.0277 48.7352 65.4657 48.7352 65.7904C48.7352 66.3724 48.6706 66.835 48.5413 67.1781L48.3474 67.5089L48.2643 67.3894C48.2828 67.028 48.0889 66.6634 47.6827 66.2959C47.3995 66.0324 47.1226 65.8456 46.8517 65.7353C46.427 65.5515 46.187 65.3187 46.1316 65.0369C46.2793 64.6203 46.4455 64.3109 46.6302 64.1087C46.8271 63.9004 47.0333 63.7534 47.2487 63.6676L47.5996 63.6493Z" fill="white"/>
<path id="Vector_78" d="M46.8518 65.7353C47.1226 65.8456 47.3996 66.0324 47.6827 66.2959C48.0889 66.6634 48.2828 67.028 48.2644 67.3894L47.8673 66.9208C47.7442 66.8044 47.4211 66.5869 46.8979 66.2683C46.3994 65.962 46.107 65.7966 46.0208 65.7721C45.9839 65.7659 45.9777 65.6894 46.0023 65.5423C46.0208 65.3953 46.0639 65.2268 46.1316 65.0369C46.187 65.3187 46.4271 65.5515 46.8518 65.7353Z" fill="#DBDCDC"/>
<path id="Vector_79" d="M42.8448 63.9985C42.9802 63.8331 43.1217 63.7014 43.2695 63.6033C43.4418 63.4992 43.5588 63.4839 43.6203 63.5574L44.2112 64.265C44.5436 64.6816 44.7282 64.9542 44.7652 65.0828C44.8636 65.4137 44.7898 65.8915 44.5436 66.5164C44.4205 66.8289 44.2851 67.1076 44.1373 67.3527L44.0819 67.2608V67.2148C44.0635 66.9085 43.9527 66.6144 43.7496 66.3326L43.2325 65.7353L42.7986 65.2942L42.4293 64.8807C42.577 64.4457 42.7155 64.1516 42.8448 63.9985Z" fill="white"/>
<path id="Vector_80" d="M43.2325 65.7353L43.7496 66.3326C43.9527 66.6144 44.0635 66.9085 44.0819 67.2148V67.2608C43.8481 66.9116 43.6788 66.6818 43.5741 66.5716L42.3554 65.3953C42.3062 65.3585 42.3308 65.187 42.4293 64.8807L42.7986 65.2942L43.2325 65.7353Z" fill="#DBDCDC"/>
<path id="Vector_81" d="M49.7785 64.5682C49.6431 64.8562 49.5846 65.0583 49.6031 65.1747L49.64 65.2299L49.8616 65.3126L51.2465 65.8639C51.4004 65.9497 51.6497 66.1672 51.9943 66.5164C52.0497 66.4306 52.0867 66.2867 52.1051 66.0845C52.1421 65.7353 52.0682 65.3616 51.8836 64.9634L51.4404 64.1363L51.0434 63.5298C51.0126 63.4869 50.9757 63.4655 50.9326 63.4655C50.828 63.4532 50.6033 63.5941 50.2586 63.8882C50.0863 64.0413 49.9262 64.268 49.7785 64.5682ZM49.7416 65.6342L49.5108 65.5423C49.3815 65.4994 49.3015 65.3983 49.2707 65.2391C49.2399 65.0491 49.3076 64.7796 49.4738 64.4304C49.64 64.0812 49.8277 63.8147 50.037 63.6309L50.5356 63.2449C50.6956 63.153 50.8403 63.1132 50.9695 63.1255C51.1049 63.1438 51.2219 63.2112 51.3204 63.3276L51.7266 63.9617L52.1882 64.8255C52.4037 65.2911 52.4868 65.7353 52.4375 66.158C52.4129 66.3724 52.3637 66.547 52.2898 66.6818L52.179 66.884L52.0497 66.9667C51.9943 66.9789 51.9482 66.9606 51.9113 66.9116L51.7543 66.7553C51.4096 66.4123 51.1849 66.2162 51.0803 66.1672C50.9326 66.0814 50.4863 65.9038 49.7416 65.6342Z" fill="#0D131A"/>
<path id="Vector_82" d="M46.0577 65.7261L46.0947 65.772C46.187 65.8027 46.467 65.962 46.9348 66.2499C47.4272 66.544 47.7319 66.7461 47.8489 66.8564L48.3013 67.417C48.369 67.3618 48.4305 67.2546 48.4859 67.0953C48.609 66.7706 48.6706 66.3326 48.6706 65.7812C48.6706 65.3279 48.3228 64.6662 47.6273 63.7963L47.5904 63.7411L47.498 63.7044C47.4057 63.6983 47.2918 63.732 47.1564 63.8055C46.9841 63.8912 46.821 64.0168 46.6671 64.1822C46.5009 64.3599 46.3501 64.6356 46.2147 65.0093C46.0793 65.3646 46.027 65.6036 46.0577 65.7261ZM45.9839 66.0937C45.8608 66.0569 45.7777 65.965 45.7346 65.818C45.6792 65.6281 45.7284 65.3217 45.8823 64.899C46.0423 64.4824 46.2208 64.1669 46.4178 63.9525C46.5902 63.7626 46.7779 63.6156 46.981 63.5114C47.178 63.4073 47.3565 63.3582 47.5165 63.3644C47.6642 63.3766 47.7812 63.4348 47.8673 63.539L47.895 63.5849C48.6398 64.5161 49.0122 65.2482 49.0122 65.7812C49.0122 66.3816 48.9414 66.8656 48.7998 67.2332C48.7198 67.4415 48.6275 67.5916 48.5229 67.6835L48.3751 67.8029L48.2366 67.8489L48.1166 67.7662L48.0151 67.6008C47.892 67.4047 47.7596 67.2393 47.6181 67.1045C47.5196 67.0126 47.2395 66.8258 46.7779 66.544C46.3286 66.2683 46.0639 66.1182 45.9839 66.0937Z" fill="#0D131A"/>
<path id="Vector_83" d="M43.7034 63.7504L43.6203 63.6493C43.5895 63.6186 43.5557 63.6033 43.5188 63.6033C43.4326 63.6033 43.3279 63.6523 43.2048 63.7504C43.0817 63.8422 42.974 63.9495 42.8817 64.072C42.7832 64.1884 42.6693 64.4151 42.5401 64.752C42.4047 65.1073 42.3616 65.3248 42.4108 65.4045L42.9556 65.9099L43.5741 66.5164C43.7034 66.6573 43.8819 66.9054 44.1096 67.2608C44.3066 66.9299 44.4666 66.5838 44.5897 66.2223C44.7498 65.7384 44.7898 65.3647 44.7098 65.1012C44.6605 64.9297 44.3251 64.4794 43.7034 63.7504ZM42.6139 63.8606C42.694 63.7504 42.8048 63.637 42.9463 63.5206C43.1556 63.3491 43.3464 63.2633 43.5188 63.2633C43.6603 63.2633 43.7803 63.3184 43.8788 63.4287L43.9619 63.5298C44.6144 64.2895 44.9714 64.7796 45.0329 65.0001C45.1437 65.3677 45.0852 65.864 44.8575 66.4888C44.7282 66.8258 44.5774 67.1413 44.4051 67.4354L44.2666 67.6743L44.1189 67.7662L43.9804 67.6835L43.8234 67.4446L43.3249 66.7462L42.1892 65.6526C42.0107 65.4994 42.02 65.1655 42.2169 64.6509C42.3647 64.2772 42.497 64.0138 42.6139 63.8606Z" fill="#0D131A"/>
<path id="Vector_84" d="M43.6295 61.1221L43.1125 61.0119C42.934 60.9506 42.8509 60.9047 42.8632 60.874L43.094 60.9016L43.5649 60.9659L44.322 60.9475C44.6544 60.9292 44.8205 60.9292 44.8205 60.9475L44.3497 61.0578L43.6295 61.1221Z" fill="#0D131A"/>
<path id="Vector_85" d="M35.117 3.31064C35.5602 3.28001 35.9295 3.59246 36.2249 4.24798C36.3049 4.41952 36.4003 4.79629 36.5111 5.3783L36.742 6.66483C36.785 6.91602 36.9974 7.84722 37.379 9.45846C37.5144 10.0466 37.9484 10.9165 38.6808 12.0683L39.2071 12.9873L39.364 13.4927C39.3887 13.6887 39.2871 14.139 39.0594 14.8435C39.1763 15.2295 39.2194 15.7809 39.1886 16.4977L39.7887 18.1977L40.1119 19.0248L40.4904 19.7691C40.5397 19.8488 40.6289 19.8917 40.7582 19.8978C40.869 19.9101 40.9767 20.0142 41.0813 20.2102C41.2844 20.5962 41.0782 21.3161 40.4627 22.3698L39.4841 23.8401C39.5641 24.3609 39.3179 24.7039 38.7454 24.8694L37.4436 25.0256C37.3021 25.044 37.0959 25.1267 36.8251 25.2737C36.5788 25.4023 36.2957 25.4667 35.9756 25.4667C35.594 25.4667 35.1509 25.3258 34.6461 25.044C34.2091 24.8112 33.9414 24.6151 33.8429 24.4558L33.2612 23.739L32.458 22.7741L31.3778 21.5979L30.3899 20.5686C30.2606 20.4216 30.1037 20.3205 29.919 20.2654L29.6882 20.2286C29.2696 19.861 28.9126 19.3832 28.6172 18.7951C28.3833 18.3233 28.2664 17.9894 28.2664 17.7934C28.2664 17.6525 28.3002 17.3676 28.3679 16.9388C28.4418 16.4793 28.5187 16.1086 28.5987 15.8268C28.7834 15.1774 28.8757 14.6383 28.8757 14.2095C28.8757 13.8358 28.7126 13.1864 28.3864 12.2613C28.2448 11.8447 27.7924 11.0115 27.0292 9.76172L26.2259 8.77843L25.2842 7.68488C25.0872 7.44595 24.998 7.14575 25.0165 6.7843C25.0349 6.47185 25.1088 6.26968 25.238 6.17779C25.3673 6.08589 25.5858 6.03688 25.8936 6.03075C26.1828 6.03075 26.4106 6.06445 26.5768 6.13184C26.7183 6.18698 26.9984 6.41672 27.4169 6.82106L28.6449 8.04327C29.6605 9.05412 30.5345 9.81073 31.267 10.3131C31.5747 10.5275 32.0087 10.5735 32.5688 10.4509C33.0181 10.359 33.4644 10.1844 33.9075 9.92713C34.2214 9.74334 34.4215 9.39413 34.5076 8.87952C34.5446 8.64672 34.563 8.20562 34.563 7.55622L34.4615 5.82858C34.3999 5.00152 34.3722 4.51754 34.3784 4.37663C34.3907 4.10707 34.4461 3.88346 34.5446 3.7058C34.6677 3.46074 34.8585 3.32902 35.117 3.31064Z" fill="#F29600"/>
<path id="Vector_86" d="M37.1574 21.5611L37.5914 21.7265L37.9607 21.7724L38.2838 21.7632L38.4592 21.7173L38.5608 21.7357C38.5793 21.7847 38.53 21.8306 38.4131 21.8735L37.9699 21.947C37.6868 21.947 37.3975 21.8735 37.102 21.7265C37.0282 21.6897 36.902 21.6621 36.7235 21.6438L36.3727 21.6346C36.2988 21.6468 36.0926 21.8214 35.7541 22.1584C35.631 22.2809 35.5386 22.2993 35.4771 22.2135C35.434 22.1584 35.4925 22.0665 35.6525 21.9378L36.0403 21.6529C36.2557 21.512 36.4404 21.4416 36.5942 21.4416C36.7543 21.4416 36.942 21.4814 37.1574 21.5611Z" fill="#0D131A"/>
<path id="Vector_87" d="M37.1759 23.0314L36.7697 22.9211L36.4465 23.013C36.3111 23.0314 36.2188 23.0069 36.1695 22.9395C36.1449 22.9027 36.1911 22.8415 36.308 22.7557C36.425 22.6761 36.5204 22.6332 36.5942 22.6271C36.6619 22.6209 36.7789 22.6577 36.9451 22.7373L37.2498 22.9119C37.2928 22.9487 37.3052 22.9824 37.2867 23.013L37.1759 23.0314Z" fill="#0D131A"/>
<path id="Vector_88" d="M40.4627 21.3773C40.4935 21.414 40.475 21.4753 40.4073 21.5611L40.2411 21.7449L39.9272 22.2227C39.878 22.3085 39.8226 22.3452 39.761 22.333C39.6933 22.3146 39.6779 22.2717 39.7149 22.2043C39.758 22.1186 39.8688 21.9532 40.0473 21.7081C40.0903 21.6346 40.1673 21.558 40.2781 21.4784C40.3889 21.3926 40.4504 21.3589 40.4627 21.3773Z" fill="#0D131A"/>
<path id="Vector_89" d="M35.5602 15.8176L35.5325 15.7165C35.5325 15.6736 35.5479 15.6461 35.5786 15.6338L35.7356 15.7073L35.8556 16.0382L35.9756 16.2036L36.0403 16.3506L35.9664 16.5252C35.911 16.5742 35.8649 16.5926 35.8279 16.5803C35.7848 16.562 35.7633 16.4486 35.7633 16.2403L35.6802 16.029L35.5602 15.8176Z" fill="#0D131A"/>
<path id="Vector_90" d="M35.8279 16.6814C35.8833 16.7059 35.8649 16.8958 35.7725 17.2512L35.3478 18.455L35.1078 18.7766C34.9724 18.9114 34.8862 18.9666 34.8493 18.942C34.7877 18.8992 34.8216 18.7797 34.9508 18.5837L35.0708 18.4274L35.1909 18.2436L35.4217 17.6923L35.6433 17.1133C35.7356 16.8009 35.7971 16.6569 35.8279 16.6814Z" fill="#0D131A"/>
<path id="Vector_91" d="M37.9791 15.79L38.0253 15.9371L38.0345 16.1944L37.9791 16.6355C37.9791 16.9295 37.9299 17.0674 37.8314 17.049C37.7699 17.0368 37.7391 16.9908 37.7391 16.9112L37.7576 16.709L37.8591 16.2955C37.9022 15.9646 37.9422 15.7962 37.9791 15.79Z" fill="#0D131A"/>
<path id="Vector_92" d="M33.7598 22.7741L33.7875 23.2704C33.7814 23.3745 33.8275 23.445 33.926 23.4817C34.0245 23.5185 34.1168 23.4787 34.203 23.3623L34.3138 23.5277C34.1722 23.7053 34.0183 23.7942 33.8521 23.7942C33.7413 23.7942 33.6582 23.6624 33.6029 23.399C33.5475 23.1417 33.529 22.8262 33.5475 22.4525L33.7598 22.7741Z" fill="#0D131A"/>
<path id="Vector_93" d="M33.8891 23.5184C33.7783 23.4694 33.7352 23.2213 33.7598 22.7741L34.203 23.3622L34.0183 23.5092L33.8891 23.5184Z" fill="white"/>
<path id="Vector_94" d="M39.0501 15.3673L39.0871 15.6063C39.124 15.8942 39.1271 16.2005 39.0963 16.5252C39.0901 16.6539 39.0255 16.8285 38.9024 17.049C38.7485 17.3186 38.567 17.5024 38.3577 17.6004C38.37 17.2328 38.4315 16.8775 38.5423 16.5344C38.6716 16.1423 38.8409 15.7533 39.0501 15.3673Z" fill="white"/>
<path id="Vector_95" d="M53.3423 16.2403C53.3854 16.2219 53.45 16.2495 53.5362 16.323L53.7024 16.4976C54.361 17.3676 54.9888 18.8042 55.5859 20.8075C56.2075 22.8782 56.6384 25.0378 56.8784 27.2862C56.9031 27.4822 56.9 27.6568 56.8692 27.81C56.8446 27.9509 56.8046 28.0244 56.7492 28.0305C56.6384 28.0428 56.5614 27.8038 56.5184 27.3137C56.3152 25.2798 55.909 23.2274 55.2996 21.1567C54.7334 19.2269 54.124 17.7168 53.4716 16.6263C53.33 16.3935 53.2869 16.2648 53.3423 16.2403Z" fill="#0D131A"/>
<path id="Vector_96" d="M55.9829 17.8944C56.0259 17.8761 56.1183 17.9618 56.2598 18.1517L56.4907 18.5009C57.931 22.4586 58.4726 26.2294 58.1156 29.8133L58.0787 30.2728C58.0479 30.5301 58.011 30.6587 57.9679 30.6587C57.931 30.6587 57.891 30.5454 57.8479 30.3187L57.7925 29.896C57.9402 25.2154 57.3801 21.4263 56.1121 18.5285C55.9398 18.1425 55.8967 17.9312 55.9829 17.8944Z" fill="#0D131A"/>
<path id="Vector_97" d="M17.3533 18.5653L17.4733 18.3815C17.5287 18.3018 17.5749 18.2682 17.6118 18.2804C17.6549 18.2927 17.6765 18.3539 17.6765 18.4642L17.6395 18.7031C17.2825 19.6833 17.0117 21.025 16.8271 22.7282C16.6239 24.5477 16.5839 26.2294 16.707 27.7732V28.1132C16.6947 28.2848 16.667 28.3705 16.6239 28.3705C16.5809 28.3705 16.5378 28.2848 16.4947 28.1132L16.4393 27.7824C16.2485 26.1896 16.2546 24.4129 16.4578 22.4525C16.6547 20.5165 16.9532 19.2208 17.3533 18.5653Z" fill="#0D131A"/>
<path id="Vector_98" d="M16.0792 20.7064C16.1346 20.5226 16.1931 20.4399 16.2546 20.4583C16.2977 20.4644 16.3254 20.5135 16.3377 20.6054V20.8075C15.913 22.4555 15.593 24.1433 15.3775 25.871C15.1498 27.7089 15.0636 29.4365 15.119 31.0539C15.119 31.4092 15.0882 31.5899 15.0267 31.5961C14.9836 31.5961 14.9528 31.5195 14.9344 31.3663L14.9159 31.0539C14.7005 29.4671 14.7159 27.7273 14.9621 25.8342C15.1713 24.1801 15.5437 22.4708 16.0792 20.7064Z" fill="#0D131A"/>
<path id="Vector_99" d="M31.4701 15.6981C31.5501 15.6614 31.6394 15.6736 31.7378 15.7349L33.6305 17.1317L33.7598 17.242C33.8706 17.3094 33.9506 17.4105 33.9999 17.5452L34.1291 17.8117L34.323 18.262L34.2861 18.3907L33.8798 18.4091L32.7257 18.1885L32.6242 18.1609L31.6455 17.9036C31.3932 17.8117 31.2516 17.7045 31.2208 17.582C31.19 17.4411 31.187 17.1807 31.2116 16.8009L31.3039 15.9554C31.3285 15.8207 31.3839 15.7349 31.4701 15.6981Z" fill="white"/>
<path id="Vector_100" d="M31.4701 15.6981C31.5501 15.6614 31.6394 15.6736 31.7378 15.7349L33.6305 17.1317L33.7598 17.242C33.8706 17.3094 33.9506 17.4105 33.9999 17.5452L34.1291 17.8117L34.323 18.262L34.2861 18.3907L33.8798 18.4091L32.7257 18.1885L32.6242 18.1609L31.6455 17.9036C31.3932 17.8117 31.2516 17.7045 31.2208 17.582C31.19 17.4411 31.187 17.1807 31.2116 16.8009L31.3039 15.9554C31.3285 15.8207 31.3839 15.7349 31.4701 15.6981Z" fill="white"/>
<path id="Vector_101" d="M32.4672 16.2495L32.4857 16.2679L33.7598 17.242C33.8706 17.3094 33.9506 17.4105 33.9999 17.5452L34.1291 17.8117L34.323 18.262L34.2861 18.3907L33.8798 18.4091L32.8088 18.2069C32.5442 17.7903 32.4118 17.3216 32.4118 16.8009C32.4118 16.611 32.4303 16.4272 32.4672 16.2495Z" fill="#008086"/>
<path id="Vector_102" d="M38.4869 17.6371L38.2561 17.7566L38.2654 17.5912C38.2715 17.2113 38.3331 16.8499 38.45 16.5068L38.7178 15.8176C38.8039 16.0443 38.847 16.2801 38.847 16.5252C38.847 16.9479 38.727 17.3186 38.4869 17.6371Z" fill="#008086"/>
<path id="Vector_103" d="M38.4685 17.2879C38.4131 17.2879 38.3577 17.2512 38.3023 17.1776L38.45 16.5068C38.5177 16.2924 38.6039 16.0718 38.7085 15.8452C38.7947 16.0167 38.8378 16.225 38.8378 16.47C38.8378 16.6967 38.8008 16.8897 38.727 17.049C38.6593 17.2083 38.5731 17.2879 38.4685 17.2879Z" fill="#00666C"/>
<path id="Vector_104" d="M38.5978 17.0859C38.5547 17.2574 38.4654 17.331 38.33 17.3065C38.3423 17.1778 38.3916 16.9847 38.4777 16.7274C38.5947 16.8254 38.6347 16.9449 38.5978 17.0859Z" fill="#0D131A"/>
<path id="Vector_105" d="M32.4672 16.2495L32.4857 16.2679L33.7598 17.242C33.8706 17.3094 33.9506 17.4105 33.9999 17.5452L34.203 17.968L33.372 18.0231C33.0397 17.9618 32.7627 17.824 32.5411 17.6096C32.4549 17.3523 32.4118 17.0827 32.4118 16.8009C32.4118 16.611 32.4303 16.4272 32.4672 16.2495Z" fill="#00666C"/>
<path id="Vector_106" d="M32.8827 18.1426L32.6611 18.1334C32.4272 17.7352 32.3103 17.291 32.3103 16.8009C32.3103 16.6293 32.3318 16.4241 32.3749 16.1852L32.3841 16.176C32.3903 16.2618 32.4457 16.3046 32.5503 16.3046L32.5042 16.8009C32.5042 17.2849 32.6303 17.7321 32.8827 18.1426Z" fill="#0D131A"/>
<path id="Vector_107" d="M33.3997 17.9679C33.2951 17.9679 33.2089 17.9312 33.1412 17.8577C33.0797 17.7842 33.0489 17.6984 33.0489 17.6004C33.0489 17.5023 33.0797 17.4166 33.1412 17.3431C33.2089 17.2757 33.2859 17.242 33.372 17.242C33.452 17.242 33.5228 17.2787 33.5844 17.3522C33.6459 17.4258 33.6767 17.5115 33.6767 17.6096L33.6121 17.8485L33.3997 17.9679Z" fill="#0D131A"/>
<path id="Vector_108" d="M33.0397 17.4811C32.9474 17.4811 32.8735 17.4474 32.8181 17.38C32.7688 17.3187 32.7442 17.2482 32.7442 17.1686C32.7442 17.0766 32.7719 17 32.8273 16.9388C32.8889 16.8714 32.9597 16.8376 33.0397 16.8376C33.1136 16.8376 33.1813 16.8744 33.2429 16.948C33.2983 17.0154 33.326 17.095 33.326 17.1869L33.2429 17.3892C33.1813 17.4505 33.1136 17.4811 33.0397 17.4811Z" fill="white"/>
<path id="Vector_109" d="M38.5424 16.8746L38.4316 16.7918L38.3946 16.6264C38.3946 16.5467 38.41 16.4824 38.4408 16.4333C38.4654 16.3782 38.4993 16.3506 38.5424 16.3506L38.644 16.4425L38.6809 16.6356L38.644 16.801L38.5424 16.8746Z" fill="white"/>
<path id="Vector_110" d="M31.6824 15.8176C31.5286 15.7257 31.4332 15.7778 31.3962 15.9738L31.3039 16.8101C31.2793 17.1777 31.2824 17.4258 31.3131 17.5545C31.3439 17.677 31.5624 17.7934 31.9687 17.9037L32.7534 18.0874L33.8983 18.3172L34.166 18.3448C34.2153 18.3386 34.2368 18.3141 34.2307 18.2712L33.9168 17.582C33.8798 17.4901 33.809 17.4013 33.7044 17.3155C33.2859 16.9786 32.9781 16.7366 32.7811 16.5895L31.6824 15.8176ZM31.4886 15.496C31.901 15.7288 32.3318 16.0106 32.7811 16.3414L33.7044 17.1042L33.926 17.2971C34.0245 17.3829 34.086 17.4595 34.1106 17.5269L34.5907 18.5285L34.6554 18.694C34.6677 18.7552 34.6461 18.795 34.5907 18.8134L34.5169 18.7583L34.4707 18.6388C34.4584 18.6082 34.4122 18.5776 34.3322 18.5469L34.1014 18.501C33.9106 18.501 33.5321 18.4397 32.9658 18.3172L31.5255 17.968C31.3901 17.9128 31.2793 17.8148 31.1931 17.6739C31.0946 17.5208 31.0454 17.34 31.0454 17.1317C31.0454 16.9602 31.0639 16.7182 31.1008 16.4058L31.1469 15.9187L31.1654 15.7257L31.1469 15.5603C30.9746 15.3765 30.8977 15.2693 30.9161 15.2387C30.9408 15.208 31.1316 15.2938 31.4886 15.496Z" fill="#0D131A"/>
<path id="Vector_111" d="M38.8839 16.4976C38.8839 17.0551 38.7085 17.5024 38.3577 17.8393L38.2192 17.7934C38.3792 17.6525 38.5054 17.4717 38.5977 17.2512C38.6962 17.0245 38.7454 16.7825 38.7454 16.5252C38.7454 16.2985 38.7085 16.0872 38.6347 15.8911L38.7362 15.7165C38.8347 15.9738 38.8839 16.2342 38.8839 16.4976Z" fill="#0D131A"/>
<path id="Vector_112" d="M39.0871 15.6062L39.0501 15.3673C38.8408 15.7533 38.6716 16.1423 38.5423 16.5344C38.4315 16.8775 38.37 17.2328 38.3577 17.6004C38.5669 17.5024 38.7485 17.3186 38.9024 17.049C39.0255 16.8285 39.0901 16.6539 39.0963 16.5252C39.1271 16.2005 39.124 15.8942 39.0871 15.6062ZM36.2157 4.56039C35.9818 3.81297 35.6463 3.43926 35.2093 3.43926C34.92 3.43926 34.7138 3.60467 34.5907 3.9355C34.4984 4.19281 34.4676 4.48381 34.4984 4.80851L34.6184 6.29722L34.6923 8.14432C34.68 8.78146 34.5907 9.25013 34.4245 9.55032C34.3014 9.76474 34.0737 9.97304 33.7413 10.1752C33.4767 10.3345 33.1597 10.4478 32.7904 10.5152L31.941 10.5704L32.301 10.7266L32.735 10.9563L33.0766 11.2228L33.5197 11.5996C33.6613 11.7589 33.7321 11.86 33.7321 11.9028C33.7259 11.9519 33.6244 11.9059 33.4274 11.765L33.0489 11.5169L32.7534 11.2963C32.5934 11.1371 32.4272 11.036 32.2549 10.9931C32.1379 10.9747 31.984 10.9134 31.7932 10.8093C31.5655 10.6929 31.3593 10.552 31.1746 10.3866C30.3622 9.7188 29.6328 9.07859 28.9865 8.46595L26.8445 6.41668C26.6722 6.25739 26.4137 6.16243 26.069 6.1318C25.7243 6.09504 25.475 6.14406 25.3211 6.27884C25.1796 6.40136 25.118 6.6066 25.1365 6.89454C25.1549 7.15184 25.2165 7.35095 25.3211 7.49186L26.189 8.5119L27.1584 9.73411C28.3833 11.6823 28.9957 13.1434 28.9957 14.1175C28.9957 14.5648 28.9557 14.9844 28.8757 15.3765L28.6634 16.1668L28.4787 16.9663C28.4172 17.2971 28.3864 17.536 28.3864 17.6831C28.3864 17.8607 28.4295 18.0721 28.5156 18.3172C28.608 18.599 28.7403 18.8624 28.9126 19.1075C29.3066 19.6833 29.5528 20.0142 29.6513 20.0999L29.8267 20.1275C29.9313 20.1275 30.0113 20.1459 30.0667 20.1826L30.7222 20.6973C31.1223 21.0526 31.4609 21.3987 31.7378 21.7357L33.0027 23.1784C33.452 23.6992 33.7259 24.0514 33.8244 24.2352C33.9168 24.3884 34.166 24.5967 34.5723 24.8601C35.0831 25.191 35.5417 25.3564 35.9479 25.3564C36.1572 25.3564 36.3573 25.3165 36.5481 25.2369L36.8989 25.0623C37.2005 24.9275 37.5113 24.8571 37.8314 24.8509C38.4654 24.8203 38.8685 24.7437 39.0409 24.6212C39.1517 24.5416 39.244 24.3915 39.3179 24.1709C39.0901 24.3915 38.8716 24.5201 38.6623 24.5569C38.3792 24.6181 38.013 24.5416 37.5637 24.3271L37.102 24.1709L36.5573 24.0974L35.911 24.2261C35.5909 24.2873 35.3263 24.2843 35.117 24.2169C34.8893 24.1433 34.7108 24.0392 34.5815 23.9044L34.2676 23.4541C34.0275 23.0865 33.6921 22.6669 33.2612 22.1952C32.4795 21.3558 31.9687 20.8412 31.7286 20.6513C31.6301 20.5717 31.427 20.4798 31.1192 20.3756L30.5468 20.1551C30.4483 20.0938 30.3745 19.9835 30.3252 19.8243C30.2945 19.7201 30.2606 19.5424 30.2237 19.2913C30.1991 19.1136 30.2021 18.9543 30.2329 18.8134C30.2575 18.697 30.2883 18.6388 30.3252 18.6388C30.3806 18.651 30.4114 18.7368 30.4176 18.8961C30.4853 19.4475 30.553 19.7814 30.6207 19.8978C30.6638 19.9713 30.8176 20.0479 31.0823 20.1275C31.3962 20.2255 31.6147 20.3205 31.7378 20.4124L32.7073 21.2303C33.1751 21.6652 33.5259 22.0267 33.7598 22.3146C34.0922 22.7312 34.403 23.1754 34.6923 23.6471L35.0339 23.8768C35.2124 23.9504 35.4124 23.9871 35.634 23.9871L36.1049 23.9228L36.5942 23.8585L37.139 23.9228L37.6652 24.0606C38.133 24.2628 38.41 24.3639 38.4962 24.3639C38.6747 24.3639 38.9086 24.2138 39.1978 23.9136C39.5487 23.5522 39.9026 23.0498 40.2596 22.4065C40.4627 22.0389 40.632 21.6805 40.7674 21.3313C40.9213 20.9393 40.9982 20.6452 40.9982 20.4491C40.9982 20.2899 40.9336 20.1704 40.8043 20.0907L40.3889 19.7875C40.2534 19.6282 40.0965 19.3372 39.918 18.9145C39.758 18.5469 39.641 18.2253 39.5672 17.9496C39.4625 17.5697 39.3333 17.1715 39.1794 16.7549C39.0563 17.1164 38.9147 17.3921 38.7547 17.582L38.4869 17.8209C38.3823 17.8944 38.33 17.971 38.33 18.0507L38.2838 18.1426L38.2007 18.1242C38.1453 18.0139 38.1176 17.8791 38.1176 17.7198L38.2007 17.1225C38.2623 16.7856 38.3207 16.5558 38.3761 16.4333L39.0132 14.7976C39.1732 14.3197 39.2532 13.9092 39.2532 13.5662C39.2532 13.3334 39.2071 13.1189 39.1147 12.9229C39.0409 12.7759 38.9178 12.5951 38.7454 12.3807C38.5793 12.1785 38.3854 11.8845 38.1638 11.4985C37.9114 11.0635 37.7052 10.6469 37.5452 10.2487C37.2005 9.37266 36.9051 8.21171 36.6589 6.76588C36.4373 5.52835 36.2895 4.79319 36.2157 4.56039ZM36.4373 4.12848L36.9358 6.45344L37.4344 8.72326C37.6129 9.36653 37.896 10.0619 38.2838 10.8093L38.9578 12.0407C39.2348 12.5492 39.3948 12.9076 39.4379 13.1159C39.4871 13.3487 39.5056 13.5539 39.4933 13.7316L39.3825 14.2186L39.2071 14.8435L39.2717 15.2846C39.3148 15.6583 39.324 16.0473 39.2994 16.4517L40.0011 18.4274L40.3335 19.1902C40.4689 19.4414 40.5797 19.6037 40.6658 19.6772L41.0444 19.9437C41.2167 20.0785 41.3029 20.2378 41.3029 20.4216C41.3029 20.7953 41.1367 21.3283 40.8043 22.0206C40.4781 22.7128 40.1057 23.304 39.6872 23.7941C39.6626 24.1127 39.521 24.4282 39.2625 24.7407C39.1271 24.8938 38.8624 25.0041 38.4685 25.0715L37.4436 25.191C37.2651 25.2155 37.0097 25.3074 36.6773 25.4666C36.3942 25.6075 36.1295 25.678 35.8833 25.678C35.5756 25.678 35.2032 25.5739 34.7662 25.3656C34.403 25.1879 34.1322 25.0164 33.9537 24.8509L33.3443 24.1525L32.4395 23.0406L30.473 20.8627C30.3006 20.685 30.1067 20.5747 29.8913 20.5318L29.5682 20.4675L29.0696 19.8978L28.571 19.2545L28.1833 18.5469C28.0294 18.2345 27.9524 18.0078 27.9524 17.8669C27.9524 17.6708 28.0663 17.1133 28.294 16.1944C28.4972 15.3306 28.5987 14.6352 28.5987 14.1083C28.5987 13.753 28.451 13.1955 28.1556 12.4358C27.897 11.7619 27.6108 11.1493 27.2969 10.5979C27.063 10.1875 26.6414 9.64834 26.032 8.98057L24.9518 7.8043C24.7118 7.50411 24.6071 7.15184 24.6379 6.7475C24.6625 6.37992 24.7826 6.11036 24.998 5.93882C25.1949 5.77341 25.4935 5.68458 25.8936 5.67232C26.3613 5.65395 26.743 5.78566 27.0384 6.06748L28.7003 7.71241L30.2514 9.24706C30.8669 9.79231 31.3008 10.1201 31.5532 10.2303C31.7132 10.3039 31.981 10.3345 32.3564 10.3222C32.7442 10.3039 33.0489 10.2457 33.2705 10.1476C33.5905 10.0129 33.8275 9.86583 33.9814 9.70654C34.2214 9.44924 34.3415 9.10616 34.3415 8.67731L34.3507 7.42753L34.3138 6.33397L34.166 4.38579C34.1537 4.10397 34.2337 3.82216 34.4061 3.54035C34.5969 3.2279 34.84 3.05024 35.1355 3.00735C35.4309 2.97059 35.7079 3.07168 35.9664 3.31061C36.2065 3.53728 36.3634 3.80991 36.4373 4.12848Z" fill="#0D131A"/>
</g>
</g>
</svg>
