<svg width="53" height="74" viewBox="0 0 53 74" fill="none" xmlns="http://www.w3.org/2000/svg">
<g id="PIKACHU 2">
<g id="Group">
<path id="Vector" d="M31.3064 56.1908C29.1877 57.5881 27.6444 58.5395 26.6766 59.0452C25.9311 59.4444 25.3098 59.3114 24.8128 58.646C24.3289 57.9806 24.2962 57.5215 24.7148 57.2687C25.748 56.6299 27.0166 55.705 28.5207 54.4941C29.9855 53.3097 30.9925 52.4181 31.5418 51.8193C30.5871 50.6349 29.8743 49.8431 29.4035 49.4439L30.9729 48.2462L33.229 47.5875L32.7974 48.9648C32.9805 48.8584 33.569 48.6255 34.563 48.2662L34.3864 50.0627L34.0333 50.422L35.7401 52.9371C35.0862 53.5759 33.6083 54.6604 31.3064 56.1908Z" fill="#763A00"/>
<path id="Vector_2" d="M52.4546 18.0649C52.4285 22.0571 52.4612 24.9914 52.5527 26.8678C50.3032 27.3735 47.5697 28.1653 44.3524 29.2432C40.5203 30.534 37.5842 31.7516 35.5439 32.8961L37.3684 35.5908L39.7422 38.8245C37.4795 40.3549 35.8382 41.5592 34.818 42.4375L38.4277 46.5495L34.3864 50.0627L34.563 48.2662C33.569 48.6255 32.9805 48.8584 32.7974 48.9648L33.229 47.5875L30.9729 48.2462L32.9151 46.5695C31.6857 45.7977 30.1686 44.7064 28.3637 43.2959L32.562 38.4253L27.6378 32.5967L21.4582 25.5504C33.726 17.4993 44.0908 12.3227 52.5527 10.0205C52.5004 12.2961 52.4677 14.9776 52.4546 18.0649Z" fill="#FFE100"/>
<path id="Vector_3" d="M30.9729 48.1863L33.1897 47.308L33.4252 47.328L33.4644 47.5077L33.0524 48.6255L34.4453 47.9867C34.6676 47.9069 34.7788 47.9668 34.7788 48.1664C34.7657 48.6987 34.6742 49.3308 34.5041 50.0627L34.1118 50.3621L34.308 48.5856C33.981 48.6654 33.4971 48.8451 32.8562 49.1245C32.6077 49.2177 32.5162 49.1445 32.5816 48.9049L32.9151 47.8869C31.8557 48.2196 31.0514 48.4858 30.5021 48.6854L30.9729 48.1863Z" fill="#763A00"/>
<path id="Vector_4" d="M31.4437 56.1109L26.6373 58.8855C27.6836 58.2069 29.1615 57.0824 31.071 55.5121L35.0927 51.9989L35.7793 52.9371C34.7984 53.8553 33.3532 54.9133 31.4437 56.1109Z" fill="#542400"/>
<path id="Vector_5" d="M44.1954 29.323C40.9781 30.4275 37.9896 31.5587 35.23 32.7164C36.7864 31.6385 39.4283 30.2146 43.1557 28.4447C47.2493 26.5018 50.3424 25.2908 52.435 24.8118L52.5135 26.8678C50.434 27.3202 47.6613 28.1386 44.1954 29.323Z" fill="#F9BE00"/>
<path id="Vector_6" d="M38.6632 37.4472L39.7814 38.8445L34.4649 42.3377C36.5313 39.7427 37.9308 38.1126 38.6632 37.4472Z" fill="#F9BE00"/>
<path id="Vector_7" d="M38.3493 46.5894L36.6621 47.9668L34.5826 49.7034L34.7003 48.9049C35.9166 47.0419 36.7798 45.8442 37.2899 45.3119L38.3493 46.5894Z" fill="#F9BE00"/>
<path id="Vector_8" d="M34.5826 49.7034L33.7979 50.3022L34.7003 48.9049L34.5826 49.7034Z" fill="#542400"/>
<path id="Vector_9" d="M52.8862 9.82093C52.7947 11.0984 52.762 13.8997 52.7881 18.2246L52.8666 27.0674L52.7293 27.2471C49.9174 27.8592 46.8766 28.7308 43.6069 29.862C40.5334 30.9399 37.9962 31.9912 35.9951 33.0158C36.8322 34.3067 38.2054 36.2362 40.1149 38.8046C40.1934 38.8977 40.1803 38.9776 40.0757 39.0441C38.0092 40.4281 36.4071 41.5725 35.2693 42.4775L38.7613 46.5296C38.8397 46.6094 38.8332 46.6893 38.7416 46.7691L36.1521 48.9449C35.2496 49.7034 34.6742 50.2157 34.4257 50.4819L36.054 52.9371L36.0344 53.1567C35.5243 53.6757 34.3864 54.5141 32.6208 55.6718C30.7506 56.8828 28.828 58.0206 26.8531 59.0852L26.5 59.1251C26.4608 59.0452 26.5327 58.9521 26.7158 58.8456C31.4372 55.8648 34.3145 53.8886 35.3477 52.9172L33.7587 50.5418C33.7063 50.4619 33.7129 50.3887 33.7783 50.3222L35.4262 48.7053L37.8784 46.5495C36.4136 44.753 35.2627 43.4289 34.4257 42.5773C34.3341 42.4841 34.3407 42.4043 34.4453 42.3377C36.0278 41.0469 37.6234 39.8625 39.2321 38.7846C37.5711 36.5224 36.2109 34.5795 35.1515 32.956C35.0731 32.8495 35.0927 32.7697 35.2104 32.7164C37.2768 31.6518 39.8403 30.5606 42.9007 29.4428C46.288 28.1919 49.3746 27.2604 52.1604 26.6482C52.0427 24.8384 51.9903 22.0638 52.0034 18.3244C52.0165 14.6648 52.0754 12.0632 52.18 10.5196C47.8771 11.7172 42.6587 13.893 36.5248 17.0469C30.7963 19.9878 25.9965 22.8756 22.1252 25.71C23.9039 27.6529 27.5071 31.8714 32.9347 38.3654C33.0001 38.4453 33.0001 38.5185 32.9347 38.585L30.7963 41.0003L28.8345 43.2759C31.1625 45.0591 32.6077 46.1303 33.1701 46.4897C33.2878 46.5695 33.2944 46.6626 33.1897 46.7691L29.9724 49.4838C30.5871 50.1093 31.2279 50.8811 31.895 51.7993C31.9603 51.8792 31.9603 51.9524 31.895 52.0189C31.4241 52.5911 30.4171 53.4628 28.8738 54.6338C27.3567 55.7783 26.0292 56.6765 24.8913 57.3286L24.5774 57.3685C24.5251 57.302 24.5709 57.2155 24.7148 57.109L28.3637 54.3344C29.7762 53.2033 30.7048 52.3782 31.1495 51.8592C30.404 50.8745 29.737 50.1226 29.1484 49.6036C29.0569 49.5104 29.0634 49.4239 29.168 49.3441L32.405 46.6493C31.1364 45.7977 29.6716 44.7464 28.0106 43.4955C27.919 43.4156 27.9125 43.3358 27.991 43.2559L32.1108 38.4453L26.5589 31.8781L21.1443 25.73C21.0658 25.6369 21.0723 25.5504 21.1639 25.4705C25.0875 22.5163 30.1686 19.4622 36.4071 16.3083C42.8157 13.0613 48.2433 10.839 52.6901 9.64128C52.847 9.60136 52.9124 9.66124 52.8862 9.82093Z" fill="#0D131A"/>
<path id="Vector_10" d="M5.2733 5.11007C4.4755 5.56253 3.77579 6.60716 3.17417 8.24398C2.6641 9.62796 2.36983 10.972 2.29136 12.2761C1.68974 10.4397 1.22545 8.05102 0.898482 5.11007C0.558436 2.10259 0.604212 0.538958 1.03581 0.419191C1.45433 0.299424 2.09518 0.751878 2.95837 1.77655C3.65154 2.60162 4.42319 3.71279 5.2733 5.11007Z" fill="#0D131A"/>
<path id="Vector_11" d="M36.1717 3.23373C36.6033 3.93903 36.7798 5.24316 36.7014 7.14613C36.6229 8.82287 36.4006 10.28 36.0344 11.5176C35.0665 12.5689 33.9156 13.6069 32.5816 14.6316C31.0775 15.8026 29.7958 16.5811 28.7365 16.967C29.9528 17.9651 30.9271 19.1162 31.6595 20.4203C32.1435 21.272 32.5685 22.3166 32.9347 23.5542C33.5625 25.5637 33.6017 27.7062 33.0524 29.9817C32.5685 31.9779 31.8034 33.5149 30.7571 34.5928C28.3506 36.8817 25.2379 38.2856 21.4189 38.8046C18.1493 39.257 15.0038 39.0242 11.9827 38.1059C10.6879 37.6668 9.49771 36.875 8.41218 35.7306C7.19587 34.4664 6.34575 32.9892 5.86184 31.2992C5.39101 29.6757 5.29292 28.0056 5.56757 26.2889C5.77683 24.9316 6.20189 23.6341 6.84274 22.3965C6.03186 21.465 5.1229 19.8481 4.11584 17.5459C3.2788 15.5897 2.68372 13.9396 2.3306 12.5955C2.39599 10.6393 2.77527 8.93598 3.46844 7.48547C3.99159 6.39426 4.56705 5.62242 5.19483 5.16997C6.22804 6.67371 7.25472 8.75633 8.27486 11.4178C9.34731 14.1991 9.95547 16.4614 10.0993 18.2046C11.9696 16.4614 14.3303 15.277 17.1814 14.6515C19.7841 14.0793 22.0663 14.0926 24.0281 14.6915C25.3622 12.5357 27.409 10.2002 30.1686 7.68508C32.6666 5.42281 34.6676 3.93903 36.1717 3.23373Z" fill="#FFE100"/>
<path id="Vector_12" d="M13.6894 37.1079C16.2136 35.8703 18.4501 35.0319 20.3988 34.5928C21.9682 34.2468 24.0543 34.0804 26.6569 34.0937C29.2204 34.0937 30.5871 34.2601 30.7571 34.5928C31.4895 36.0167 32.2219 38.0261 32.9543 40.621C33.739 43.4422 34.3145 46.2301 34.6807 48.9848C35.6093 56.1176 34.8507 60.6155 32.405 62.4786C30.6132 63.8625 27.4809 63.7095 23.008 62.0194C21.0462 61.3008 19.601 60.8284 18.6724 60.6022C17.4822 60.3227 16.2594 60.2096 15.0038 60.2629C13.7352 60.3161 12.6104 60.1697 11.6295 59.8237C10.7402 59.5176 10.0993 59.1118 9.70697 58.6061C8.81762 57.435 8.48411 55.4589 8.70645 52.6776C8.87647 50.5883 9.29499 48.4658 9.962 46.31L11.0802 43.0763L12.1788 40.0621C12.3227 39.7028 12.617 39.104 13.0616 38.2656L13.6894 37.1079Z" fill="#FFE100"/>
<path id="Vector_13" d="M13.6894 37.1079C14.1079 36.9615 14.4349 37.3607 14.6703 38.3056C14.9188 39.3036 14.873 40.3416 14.533 41.4195C14.1668 42.5639 13.4671 43.6818 12.4339 44.773C11.4137 45.8642 10.5898 46.3765 9.96201 46.31C9.26884 46.3233 8.58874 46.2168 7.92173 45.9906C7.33319 45.7777 7.02584 45.5781 6.99968 45.3918C6.99968 45.1123 7.14355 44.8661 7.43128 44.6532L6.72503 43.3358C6.48962 42.8567 6.38499 42.5773 6.41114 42.4974C6.47654 42.3909 6.73157 42.3577 7.17625 42.3976C7.16317 41.6125 7.4509 41.3796 8.03944 41.699C8.0656 41.0735 8.32063 40.987 8.80454 41.4395C9.1969 40.8007 9.72005 40.1553 10.374 39.5032C10.9364 38.931 11.4726 38.4652 11.9827 38.1059C12.4012 37.6934 12.9701 37.3607 13.6894 37.1079Z" fill="#FFE100"/>
<path id="Vector_14" d="M36.1717 3.23371C37.5319 2.51511 38.9247 1.92292 40.3503 1.45716C42.1159 0.884941 43.1426 0.818404 43.4304 1.25755C43.7966 1.81646 42.9726 3.42667 40.9585 6.08816C39.1013 8.52343 37.4142 10.3998 35.897 11.7172C36.3679 10.2401 36.636 8.74965 36.7014 7.24591C36.7668 5.66232 36.5902 4.32492 36.1717 3.23371Z" fill="#0D131A"/>
<path id="Vector_15" d="M6.62694 58.4863C7.32011 57.9008 8.06559 57.4816 8.86339 57.2288C9.5958 58.9987 11.1718 60.0034 13.5913 60.2429C12.4404 60.8284 11.0737 61.2476 9.49117 61.5005C7.89557 61.74 6.96045 61.6735 6.68579 61.3008C6.14957 61.4339 5.83568 61.3607 5.74413 61.0813C5.66566 60.855 5.71797 60.6022 5.90107 60.3227C5.52179 59.8171 5.76375 59.2049 6.62694 58.4863Z" fill="#FFE100"/>
<path id="Vector_16" d="M28.9326 63.3968C29.992 63.4367 30.9598 63.2504 31.8361 62.8378C32.6601 62.4519 33.2421 61.9529 33.5821 61.3408C34.2622 62.4852 34.6807 63.5698 34.8377 64.5944C34.9946 65.6457 34.8377 66.3111 34.3668 66.5906C34.3537 66.9765 34.1772 67.1694 33.8371 67.1694C33.5363 67.1561 33.2878 67.0297 33.0917 66.7902C32.9347 67.2293 32.3069 67.0364 31.2083 66.2113C30.0836 65.3596 29.325 64.4214 28.9326 63.3968Z" fill="#FFE100"/>
<path id="Vector_17" d="M16.436 31.2193L17.77 30.341C18.0315 30.1414 18.4239 29.9618 18.9471 29.8021L20.0457 29.6025L21.7132 29.4228C21.674 29.8087 21.5301 30.1947 21.2816 30.5806L19.1236 30.7003C18.3781 30.9798 17.9138 31.399 17.7307 31.9579L16.436 31.2193Z" fill="#B50005"/>
<path id="Vector_18" d="M17.7111 31.9379C17.9727 31.4189 18.4501 31.013 19.1432 30.7203C19.9018 30.4009 20.6277 30.361 21.3208 30.6005C20.2484 32.0377 19.0451 32.4835 17.7111 31.9379Z" fill="#E50012"/>
<path id="Vector_19" d="M7.03892 45.1123C7.24818 45.272 7.71901 45.3585 8.45142 45.3718L10.2563 45.1722L9.98162 46.2701C9.2623 46.2967 8.54951 46.1836 7.84326 45.9307C7.09777 45.6646 6.82966 45.3918 7.03892 45.1123Z" fill="#F9BE00"/>
<path id="Vector_20" d="M18.9078 39.2437C18.8947 39.0574 19.346 38.8911 20.2615 38.7447L21.674 38.8245C21.687 38.9842 21.5105 39.1506 21.1443 39.3236L20.2811 39.5831L19.4375 39.5431C19.0844 39.4766 18.9078 39.3768 18.9078 39.2437Z" fill="#F9BE00"/>
<path id="Vector_21" d="M8.70645 53.8354C9.17728 57.3885 11.0998 59.0253 14.4741 58.7458C16.1744 58.5994 17.8157 58.7192 19.3983 59.1051C20.7585 59.4378 22.3998 60.0566 24.3224 60.9615C26.4935 61.9995 28.6384 62.1193 30.7571 61.3208C33.4644 60.3094 34.9423 57.8742 35.1908 54.015C35.1646 57.0358 34.7723 59.2515 34.0137 60.6621C32.7974 62.9643 30.5413 63.8093 27.2455 63.1972C26.1469 62.9975 24.0804 62.3854 21.0462 61.3607C18.5612 60.5224 16.9329 60.1497 16.1613 60.2429C13.7287 60.5357 11.8453 60.183 10.5113 59.185C9.03341 58.0804 8.4318 56.2972 8.70645 53.8354Z" fill="#F9BE00"/>
<path id="Vector_22" d="M7.29395 58.0671C7.35935 57.974 7.634 57.8343 8.11791 57.648L9.00072 57.3286C9.26229 58.1004 9.90969 58.7857 10.9429 59.3846C11.8846 59.9302 12.7608 60.203 13.5717 60.203C12.7478 60.6554 11.8257 60.9948 10.8056 61.221C9.58926 59.3713 8.41872 58.32 7.29395 58.0671Z" fill="#F9BE00"/>
<path id="Vector_23" d="M30.4236 65.5326L29.6193 64.5345C29.3577 64.1353 29.1746 63.7561 29.07 63.3968C30.9794 63.5964 32.4704 62.9177 33.5429 61.3607C33.9745 62.0394 34.236 62.5318 34.3276 62.8378C33.4513 62.8911 32.647 63.1639 31.9146 63.6563C31.1691 64.1486 30.6721 64.7741 30.4236 65.5326Z" fill="#F9BE00"/>
<path id="Vector_24" d="M10.2367 25.1711C10.8514 24.9981 11.4399 25.1045 12.0023 25.4905C12.5516 25.8764 12.9243 26.4353 13.1205 27.1672C13.3298 27.8725 13.2709 28.5113 12.9439 29.0835C12.6431 29.6158 12.1788 29.9817 11.5511 30.1813C10.9233 30.3676 10.3021 30.3011 9.68735 29.9817C9.08573 29.6623 8.69991 29.1899 8.52989 28.5645C8.32063 27.8326 8.37295 27.1406 8.68683 26.4885C9.00072 25.8098 9.51733 25.3707 10.2367 25.1711Z" fill="#0D131A"/>
<path id="Vector_25" d="M10.1189 25.4505L11.0018 25.4905C11.2764 25.6235 11.4661 25.8298 11.5707 26.1093C11.6753 26.4153 11.6753 26.7081 11.5707 26.9875C11.453 27.2803 11.2372 27.4866 10.9233 27.6063L10.0405 27.5664C9.76582 27.4333 9.58272 27.2138 9.49117 26.9077C9.39962 26.5883 9.41924 26.2889 9.55002 26.0094C9.66773 25.73 9.85737 25.5437 10.1189 25.4505Z" fill="white"/>
<path id="Vector_26" d="M24.2832 20.6599C25.0156 20.4203 25.7284 20.5002 26.4215 20.8994C27.1408 21.2986 27.579 21.9041 27.7359 22.7159C27.8798 23.3945 27.7817 24.0466 27.4417 24.6721C27.1147 25.2975 26.6439 25.7167 26.0292 25.9296C25.3098 26.1825 24.6232 26.1359 23.9693 25.7899C23.3415 25.4572 22.9164 24.9582 22.6941 24.2928C22.4325 23.4677 22.4718 22.7025 22.8118 21.9973C23.1257 21.3186 23.6161 20.8728 24.2832 20.6599Z" fill="#0D131A"/>
<path id="Vector_27" d="M24.1458 20.9593C24.4336 20.8262 24.7278 20.8262 25.0286 20.9593C25.3295 21.079 25.5387 21.292 25.6564 21.598C25.7611 21.8775 25.7611 22.1703 25.6564 22.4763C25.5518 22.809 25.3491 23.0286 25.0483 23.135C24.7344 23.2548 24.4401 23.2548 24.1655 23.135C23.8777 23.0153 23.675 22.809 23.5573 22.5162C23.4396 22.2235 23.433 21.9241 23.5377 21.618C23.6423 21.3119 23.845 21.0923 24.1458 20.9593Z" fill="white"/>
<path id="Vector_28" d="M17.5934 28.305C17.5803 28.2518 17.7177 28.1852 18.0054 28.1054L18.437 28.0255L18.3193 28.285L18.0642 28.4647L17.7896 28.4447L17.5934 28.305Z" fill="#0D131A"/>
<path id="Vector_29" d="M31.0121 25.6102C31.5091 25.8098 31.8361 26.3355 31.993 27.1872C32.1631 28.0388 32.0977 28.8706 31.7969 29.6823C31.4699 30.6005 30.9598 31.2859 30.2667 31.7383C29.5735 32.1908 28.9326 32.2706 28.3441 31.9779C27.7555 31.6984 27.3697 31.1594 27.1866 30.361C26.9904 29.5226 27.0885 28.6709 27.4809 27.806C27.8994 26.8877 28.4553 26.2224 29.1484 25.8098C29.8024 25.4372 30.4236 25.3707 31.0121 25.6102Z" fill="#E50012"/>
<path id="Vector_30" d="M10.217 33.1955C10.7925 33.9407 11.1783 34.6793 11.3745 35.4112C11.5707 36.183 11.4857 36.702 11.1195 36.9682C10.7663 37.221 10.2628 37.1478 9.60888 36.7486C9.0465 36.4159 8.44488 35.8902 7.80402 35.1716C7.24164 34.5196 6.84928 33.8476 6.62694 33.1556C6.4046 32.4503 6.4373 31.9512 6.72503 31.6585C7.07816 31.3258 7.61438 31.3191 8.33371 31.6385C9.02688 31.9446 9.65466 32.4636 10.217 33.1955Z" fill="#E50012"/>
<path id="Vector_31" d="M2.38944 0.878305C3.95888 2.39536 5.48255 4.62436 6.96044 7.56531C8.71298 11.0652 9.82467 14.5584 10.2955 18.0449L9.90314 18.4042C9.36692 14.9044 8.17675 11.3446 6.33266 7.725C4.93324 4.95704 3.52728 2.78127 2.11479 1.19768C1.70935 0.771846 1.41508 0.56558 1.23197 0.578887C0.996558 0.605502 0.872311 0.95815 0.859232 1.63683C0.793839 3.95233 1.25813 7.06628 2.25211 10.9787C3.45535 15.7161 5.01171 19.4489 6.9212 22.1769L6.72502 22.6759C4.64551 19.9479 2.97798 16.2285 1.72243 11.5176C0.623816 7.379 0.18568 4.06544 0.408018 1.57695C0.473411 0.698655 0.676131 0.212932 1.01618 0.11978C1.33006 0.039935 1.78782 0.292777 2.38944 0.878305Z" fill="#0D131A"/>
<path id="Vector_32" d="M2.56601 12.9748L2.15403 11.9568C2.27174 10.3466 2.58563 8.92931 3.09569 7.70503C3.59268 6.49405 4.24662 5.56918 5.0575 4.93042L5.35177 5.3496C4.50165 6.02829 3.83464 7.05961 3.35073 8.44359C2.8799 9.77434 2.61832 11.2847 2.56601 12.9748Z" fill="#0D131A"/>
<path id="Vector_33" d="M37.0741 10.1603C39.7683 7.29916 41.7105 4.81066 42.9007 2.69478C43.2799 2.0294 43.3977 1.59691 43.2538 1.3973L41.7824 1.35737C39.4937 1.80983 36.9237 2.99419 34.0726 4.91047C30.2797 7.45219 27.0035 10.7325 24.2439 14.7513L23.7927 14.6116C26.6962 10.2601 30.0116 6.84005 33.739 4.35155C36.5248 2.48851 39.1667 1.34407 41.6647 0.918228C42.7895 0.718616 43.463 0.791808 43.6854 1.1378C43.8816 1.45718 43.7573 2.04936 43.3126 2.91435C42.0702 5.28308 40.0822 7.89134 37.3488 10.7391C34.2622 13.9462 31.4634 16.0821 28.9522 17.1467L28.5403 16.8473C31.0121 15.7827 33.8568 13.5537 37.0741 10.1603Z" fill="#0D131A"/>
<path id="Vector_34" d="M36.309 11.2781L35.5831 11.8969C36.1717 10.0205 36.4725 8.2107 36.4856 6.46742C36.4856 5.01691 36.3286 4.01885 36.0147 3.47324L36.4071 3.19379C36.7471 3.79262 36.9433 4.75741 36.9956 6.08816C37.0479 7.73829 36.8191 9.46826 36.309 11.2781Z" fill="#0D131A"/>
<path id="Vector_35" d="M31.5811 36.9881C31.4895 36.682 31.4895 36.5091 31.5811 36.4691C31.6857 36.4292 31.7903 36.5623 31.895 36.8684C34.1837 43.3225 35.315 49.0979 35.2889 54.1947C35.2496 59.3447 34.0202 62.3987 31.6007 63.3569C30.2797 63.8759 28.3899 63.8559 25.9311 63.297C24.4401 62.9643 22.4848 62.3455 20.0653 61.4406C19.0582 61.068 18.2866 60.8218 17.7504 60.702L15.3177 60.5224L12.2377 60.3228C11.0606 60.0566 10.0928 59.491 9.33423 58.6261C8.36641 57.5482 8.12445 55.226 8.60836 51.6596C9.09228 48.0134 10.1974 44.234 11.9238 40.3216C12.0415 40.0555 12.1527 39.9424 12.2573 39.9823C12.3489 40.0222 12.3358 40.1753 12.2181 40.4414C10.6356 44.3804 9.61542 48.0865 9.15767 51.5598C8.72607 54.9665 8.95495 57.1755 9.8443 58.1869C10.5636 59.012 11.4334 59.5443 12.4535 59.7838L15.3177 60.0034L17.9858 60.183C18.522 60.2895 19.274 60.5357 20.2419 60.9216C25.4864 62.9443 29.1877 63.5365 31.3456 62.6981C33.5559 61.8465 34.6415 58.8989 34.6022 53.8553C34.5761 49.0646 33.569 43.4422 31.5811 36.9881Z" fill="#0D131A"/>
<path id="Vector_36" d="M11.6688 38.0061L12.2377 38.1858C10.8775 39.1439 9.68081 40.3948 8.6476 41.9385C8.50373 42.1647 8.39256 42.2579 8.31409 42.2179C8.23562 42.1647 8.26831 42.025 8.41218 41.7988C9.35384 40.1619 10.4394 38.8977 11.6688 38.0061Z" fill="#0D131A"/>
<path id="Vector_37" d="M14.8861 31.4389C14.7684 31.3591 14.7357 31.2859 14.788 31.2193L15.0627 31.1994C15.5466 31.3857 16.2725 31.1262 17.2403 30.4209C17.8027 30.0083 18.2931 29.7355 18.7116 29.6025C19.1302 29.4561 19.7252 29.3696 20.4969 29.343L21.8113 29.1434C22.1644 29.0103 22.3868 28.7841 22.4783 28.4647C22.5437 28.305 22.6156 28.2385 22.6941 28.2651C22.7726 28.2784 22.7987 28.3715 22.7726 28.5445C22.6156 29.3563 21.8571 29.7888 20.4969 29.842L18.849 30.0815C18.4566 30.2146 18.0054 30.4675 17.4953 30.8401C16.3706 31.6651 15.5008 31.8647 14.8861 31.4389Z" fill="#0D131A"/>
<path id="Vector_38" d="M16.6517 31.0596C17.698 31.8847 18.6659 32.1375 19.5552 31.8181C20.0261 31.6452 20.438 31.3391 20.7912 30.8999C21.1443 30.4608 21.3862 29.9684 21.517 29.4228L22.0467 29.323C21.9552 29.9484 21.6805 30.5273 21.2227 31.0596C20.7912 31.5653 20.2811 31.9313 19.6925 32.1575L18.0054 32.2573C17.3907 32.1242 16.7956 31.8248 16.2202 31.359L16.6517 31.0596Z" fill="#0D131A"/>
<path id="Vector_39" d="M5.90108 58.9454C6.5027 58.147 7.47706 57.4949 8.82416 56.9892L9.00072 57.4683C7.8498 57.9341 6.99315 58.4597 6.43076 59.0452C5.94685 59.5642 5.80299 59.9501 5.99917 60.203L5.7049 60.6222C5.28638 60.2363 5.35177 59.6773 5.90108 58.9454Z" fill="#0D131A"/>
<path id="Vector_40" d="M7.4509 58.8855C7.634 58.7924 7.74517 58.7924 7.78441 58.8855C7.83672 58.9654 7.77133 59.0585 7.58823 59.165C7.14355 59.4311 6.75773 59.7505 6.43076 60.1231C6.07764 60.5091 5.94031 60.8018 6.01878 61.0014L6.6858 61.0613L6.86236 61.5005L6.05802 61.5803C5.74413 61.5404 5.55449 61.4273 5.4891 61.241C5.35831 60.8817 5.53487 60.4425 6.01878 59.9235C6.45038 59.4578 6.92775 59.1118 7.4509 58.8855Z" fill="#0D131A"/>
<path id="Vector_41" d="M13.2971 60.183L14.1014 60.3028C12.6497 61.0347 11.0214 61.5271 9.21652 61.7799C7.43782 62.0194 6.47654 61.893 6.33267 61.4006C6.2542 61.1478 6.41768 60.8284 6.82312 60.4425C7.25472 60.0167 7.75825 59.7306 8.33371 59.5842C8.51681 59.5442 8.62144 59.5642 8.6476 59.6441C8.67376 59.7372 8.60182 59.8171 8.4318 59.8836C8.0002 60.0566 7.62746 60.2762 7.31357 60.5423C7.01276 60.8085 6.88198 61.0214 6.92121 61.1811C6.97353 61.4073 7.62746 61.4605 8.88301 61.3408C10.3478 61.1944 11.8192 60.8085 13.2971 60.183Z" fill="#0D131A"/>
<path id="Vector_42" d="M28.658 63.3768L29.2269 63.3369C29.58 64.3083 30.234 65.1733 31.1887 65.9318C32.0388 66.6105 32.5881 66.8767 32.8366 66.7303C32.9543 66.6504 32.9347 66.3909 32.7778 65.9518C32.6339 65.5127 32.405 65.0336 32.0911 64.5146C31.9996 64.3815 31.993 64.2884 32.0715 64.2351C32.1369 64.1952 32.2219 64.2351 32.3266 64.3549C32.732 64.8473 33.0197 65.4062 33.1897 66.0316C33.3598 66.6837 33.3205 67.0763 33.072 67.2094C32.6928 67.409 31.993 67.1229 30.9729 66.351C29.8351 65.486 29.0634 64.4946 28.658 63.3768Z" fill="#0D131A"/>
<path id="Vector_43" d="M33.5429 64.0954C33.4644 63.9091 33.4709 63.796 33.5625 63.7561C33.641 63.7161 33.726 63.7827 33.8175 63.9557C34.2753 64.834 34.5172 65.6125 34.5434 66.2911C34.5565 66.8767 34.4191 67.2293 34.1314 67.3491L33.6017 67.369C33.3663 67.3158 33.157 67.1894 32.9739 66.9898L33.1701 66.5506C33.4971 66.8833 33.7587 67.0031 33.9548 66.9099C34.1118 66.8301 34.1641 66.5506 34.1118 66.0716C34.0464 65.5393 33.8568 64.8806 33.5429 64.0954Z" fill="#0D131A"/>
<path id="Vector_44" d="M33.3859 61.5404L33.7391 61.1012C34.4584 62.3122 34.8965 63.4966 35.0535 64.6543C35.2104 65.9185 34.9554 66.697 34.2884 66.9898L34.3472 66.4309C34.6742 66.1115 34.7396 65.4594 34.5434 64.4747C34.3472 63.5165 33.9614 62.5384 33.3859 61.5404Z" fill="#0D131A"/>
<path id="Vector_45" d="M21.3601 30.381L21.1835 30.7403C20.608 30.554 19.9737 30.5939 19.2806 30.86C18.5874 31.1262 18.1296 31.5054 17.9073 31.9978L17.5149 31.8781C17.7896 31.2792 18.3062 30.8268 19.0648 30.5207C19.8233 30.2146 20.5884 30.168 21.3601 30.381Z" fill="#0D131A"/>
<path id="Vector_46" d="M7.27434 21.3186C7.4182 21.1056 7.53591 21.0258 7.62746 21.079C7.71901 21.1456 7.69939 21.2853 7.56861 21.4982C6.67926 23.0419 6.11687 24.6388 5.88146 26.2889C5.64604 27.9523 5.75067 29.6025 6.19534 31.2393C6.67926 33.0225 7.54899 34.5262 8.80454 35.7505C10.047 36.9482 11.5838 37.8065 13.4148 38.3255C13.7679 38.432 13.9314 38.5318 13.9052 38.6249L13.3363 38.6848C11.453 38.3122 9.79852 37.4672 8.37294 36.1497C6.94737 34.8323 5.98609 33.2553 5.4891 31.4189C5.03134 29.7422 4.95941 28.0122 5.2733 26.229C5.58719 24.4325 6.2542 22.7957 7.27434 21.3186Z" fill="#0D131A"/>
<path id="Vector_47" d="M20.1241 14.0727C21.8898 14.0194 23.4723 14.259 24.8717 14.7913C25.1071 14.8844 25.2117 14.9776 25.1856 15.0707L24.7736 15.1106C21.7394 14.259 18.522 14.432 15.1215 15.6296C12.9636 16.3749 11.1456 17.4528 9.66773 18.8633C9.48463 19.0363 9.36038 19.0896 9.29499 19.023C9.21652 18.9432 9.26229 18.8101 9.43232 18.6238C10.8187 17.0269 12.6497 15.8292 14.9254 15.0308C16.6648 14.432 18.3978 14.1126 20.1241 14.0727Z" fill="#0D131A"/>
<path id="Vector_48" d="M33.0132 22.5761C33.654 24.4259 33.8371 26.4486 33.5625 28.6443C33.2486 31.1328 32.3854 33.129 30.9729 34.6327C30.8029 34.819 30.6852 34.8789 30.6198 34.8123C30.5413 34.7458 30.574 34.6127 30.7179 34.4131C31.9473 32.7763 32.6928 30.8068 32.9543 28.5046C33.1897 26.4286 33.0001 24.519 32.3854 22.7757C31.483 20.1542 29.992 18.0982 27.9125 16.6077C27.6902 16.448 27.6117 16.3283 27.6771 16.2484C27.7294 16.1686 27.8733 16.1952 28.1087 16.3283C29.2073 16.9803 30.1882 17.852 31.0514 18.9432C31.9015 20.0344 32.5554 21.2454 33.0132 22.5761Z" fill="#0D131A"/>
<path id="Vector_49" d="M8.8634 41.2598L8.62798 41.5592C8.47104 41.4395 8.35987 41.3929 8.29448 41.4195L8.216 41.659L8.0983 41.9185L7.80403 41.8387L7.50976 41.7788C7.41821 41.8187 7.36589 41.9518 7.35281 42.178L7.27434 42.5573H6.92122L6.62694 42.6172C6.57463 42.697 6.72504 43.0497 7.07816 43.6751L7.62746 44.6532L7.41167 44.9327C7.25472 45.0924 7.18279 45.2254 7.19587 45.3319C7.22202 45.4916 7.59477 45.6579 8.31409 45.8309L10.0012 46.0106L9.90315 46.4896C9.34077 46.5429 8.6803 46.4364 7.92173 46.1703C7.16317 45.9174 6.75773 45.6646 6.70542 45.4117C6.66618 45.1722 6.82313 44.9127 7.17625 44.6332C6.43076 43.369 6.1038 42.6238 6.19535 42.3976C6.23458 42.3044 6.35229 42.2446 6.54847 42.2179L7.03892 42.2579C7.01277 42.0849 7.02584 41.9119 7.07816 41.7389C7.1174 41.5659 7.18279 41.4528 7.27434 41.3995L7.56861 41.3596C7.6994 41.3862 7.81057 41.4328 7.90212 41.4993C7.92827 41.1933 8.01982 41.0203 8.17677 40.9803L8.51028 41.0402L8.8634 41.2598Z" fill="#0D131A"/>
<path id="Vector_50" d="M37.2703 39.4633C35.897 41.2332 34.2164 42.4708 32.2285 43.1761C30.8552 43.6552 29.3184 43.0763 27.6182 41.4395C25.9049 39.7893 25.4602 38.3787 26.2842 37.2077C27.1212 36.0233 28.2591 34.8523 29.6977 33.6945C31.3718 32.3372 32.9478 31.4522 34.4257 31.0397C34.9619 30.1747 35.3085 29.7222 35.4654 29.6823L36.0344 29.8021C36.309 29.9352 36.551 30.168 36.7602 30.5007C37.4534 30.5939 38.0354 30.9199 38.5062 31.4788C39.0032 32.051 39.2713 32.7563 39.3106 33.5947C39.389 35.6441 38.7089 37.6003 37.2703 39.4633Z" fill="#FFE100"/>
<path id="Vector_51" d="M39.0948 32.5567C39.8272 34.5662 39.3171 36.7685 37.5646 39.1639C35.9166 41.4395 34.1314 42.7103 32.2088 42.9765C33.9875 42.1381 35.6093 40.6011 37.0741 38.3654C38.5258 36.1431 39.1994 34.2069 39.0948 32.5567Z" fill="#F9BE00"/>
<path id="Vector_52" d="M36.1717 29.6823C36.4594 29.8154 36.7014 30.0416 36.8975 30.361C38.5455 30.5606 39.4479 31.725 39.6048 33.8542C39.7356 35.6374 39.1536 37.4406 37.8588 39.2637C36.4463 41.2199 34.6219 42.5573 32.3854 43.2759L31.9734 43.236C31.9342 43.1295 32.0323 43.0297 32.2677 42.9365C34.2949 42.1514 35.9755 40.8473 37.3095 39.0241C38.6043 37.2542 39.1994 35.5509 39.0948 33.9141C38.964 32.1309 38.2316 31.0796 36.8975 30.7602C36.7275 30.7469 36.6164 30.6804 36.564 30.5606C36.4725 30.3876 36.309 30.2479 36.0736 30.1414L35.4654 30.0416C35.3477 30.0815 35.1908 30.2678 34.9946 30.6005C34.7984 30.9598 34.6415 31.1594 34.5238 31.1994C32.9936 31.8115 31.6465 32.5368 30.4825 33.3751C29.1223 34.3599 27.8144 35.6174 26.5588 37.1478C26.4019 37.3341 26.2777 37.394 26.1861 37.3274C26.1076 37.2609 26.1403 37.1212 26.2842 36.9083C27.6575 35.0984 29.1027 33.6745 30.6198 32.6366C31.7053 31.8913 32.9151 31.2992 34.2491 30.86L34.7396 30.2213C34.975 29.8353 35.1908 29.6224 35.387 29.5825C35.6355 29.516 35.897 29.5492 36.1717 29.6823Z" fill="#0D131A"/>
<path id="Vector_53" d="M35.7205 30.86L36.0736 30.8001C36.139 30.8401 36.1063 30.9332 35.9755 31.0796C35.8316 31.2526 35.7597 31.3657 35.7597 31.4189C35.7597 31.5121 35.7989 31.6185 35.8774 31.7383L35.9951 31.9778L35.8382 32.1974C35.7335 32.3172 35.6812 32.4503 35.6812 32.5966C35.6812 32.7696 35.7335 32.936 35.8382 33.0957L35.9951 33.3951L35.897 33.6346C35.8186 33.7677 35.7859 33.8875 35.7989 33.9939C35.812 34.1004 35.8905 34.2335 36.0344 34.3932L36.2698 34.6926L36.1717 34.992C36.1194 35.1517 36.1063 35.2981 36.1324 35.4311L36.4463 35.7106L36.976 35.8902C37.146 35.9036 37.2311 35.9568 37.2311 36.0499L37.0153 36.2096L36.2894 36.0899C36.0017 35.9701 35.8251 35.8104 35.7597 35.6108C35.7205 35.5043 35.7139 35.3646 35.7401 35.1916C35.7662 35.0053 35.8251 34.8589 35.9166 34.7525L35.5831 34.473C35.4785 34.3399 35.4197 34.2069 35.4066 34.0738C35.3543 33.8342 35.4458 33.608 35.6812 33.3951C35.4327 33.1822 35.2889 32.936 35.2496 32.6565C35.2235 32.3638 35.3543 32.1176 35.642 31.918C35.472 31.7849 35.387 31.6052 35.387 31.379C35.3739 31.2859 35.4066 31.1861 35.4851 31.0796L35.7205 30.86Z" fill="#0D131A"/>
<path id="Vector_54" d="M7.27434 21.3186C7.4182 21.1056 7.53591 21.0258 7.62746 21.079C7.71901 21.1456 7.69939 21.2853 7.56861 21.4982C6.67926 23.0419 6.11687 24.6388 5.88146 26.2889C5.64604 27.9523 5.75067 29.6025 6.19534 31.2393C6.67926 33.0225 7.54899 34.5262 8.80454 35.7505C10.047 36.9482 11.5838 37.8065 13.4148 38.3255C13.7679 38.432 13.9314 38.5318 13.9052 38.6249L13.3363 38.6848C11.453 38.3122 9.79852 37.4672 8.37294 36.1497C6.94737 34.8323 5.98609 33.2553 5.4891 31.4189C5.03134 29.7422 4.95941 28.0122 5.2733 26.229C5.58719 24.4325 6.2542 22.7957 7.27434 21.3186Z" fill="#0D131A"/>
</g>
</g>
</svg>
