<svg width="60" height="58" viewBox="0 0 60 58" fill="none" xmlns="http://www.w3.org/2000/svg">
<g id="BULBASAUR 2">
<g id="Group">
<path id="Vector" d="M40.5434 12.4665L9.65584 36.4294C9.33754 36.4649 8.86453 36.3851 8.23678 36.1902C7.4499 35.9421 6.70279 35.5744 5.99548 35.0871C3.97963 33.7049 2.75951 31.7201 2.33512 29.1329C1.91957 26.652 2.29975 23.9895 3.47567 21.1453C3.86469 20.2061 4.34213 19.2359 4.90798 18.2346L5.94243 16.4936C6.78237 14.9962 7.47642 13.5165 8.02459 12.0545C8.93526 9.60907 9.18282 7.80155 8.76727 6.63198L9.19166 6.68515C9.50995 6.74717 9.76635 6.86235 9.96087 7.0307C9.93434 6.74717 9.85919 6.41491 9.73541 6.03391C9.47901 5.2542 9.11209 4.59853 8.63465 4.06691L10.067 3.86755C11.2782 3.87641 12.5072 4.22196 13.7538 4.90421L13.661 4.17323C13.6256 3.67705 13.6743 3.40238 13.8069 3.34922C14.0102 3.26947 14.302 3.4644 14.6822 3.934C14.691 3.54414 14.775 3.10113 14.9342 2.60494C15.2436 1.6303 15.7653 0.894893 16.4991 0.398712L17.2285 1.74106C17.9093 2.70684 18.7404 3.3758 19.7218 3.74793C20.5794 4.08463 22.5246 4.34158 25.5572 4.51879C28.4925 4.69599 30.5614 5.05927 31.7639 5.60861L33.037 5.71494C34.0715 5.84784 35.0264 6.0915 35.9017 6.44592C38.7221 7.5889 40.2693 9.59578 40.5434 12.4665Z" fill="#68AE28"/>
<path id="Vector_2" d="M3.25022 31.7379C1.25206 27.9634 1.72949 23.6262 4.68254 18.7264C3.18833 22.687 3.6923 25.8546 6.19442 28.2292C7.28192 29.257 8.65235 30.0101 10.3057 30.4886C11.9237 30.9493 13.6389 31.0999 15.4514 30.9404L9.27125 36.5358C8.36942 36.456 7.36592 36.0174 6.26074 35.22C4.99641 34.2897 3.9929 33.1289 3.25022 31.7379Z" fill="#56931F"/>
<path id="Vector_3" d="M52.6651 10.7122C53.4519 11.0578 54.1372 12.2318 54.7207 14.2342C55.2423 16.0506 55.4192 17.3353 55.2512 18.0885C56.2945 19.3023 57.3112 21.6725 58.3015 25.1989C59.4243 29.1506 59.6144 32.0258 58.8717 33.8245C58.633 34.4004 57.9346 35.1845 56.7763 36.1769C55.5739 37.2224 54.3847 38.0287 53.2088 38.5958L53.8056 39.566C54.283 40.4166 54.7118 41.3336 55.092 42.3171C56.3033 45.4892 56.8073 48.7764 56.6039 52.1787C56.542 53.2597 55.649 54.1457 53.925 54.8369C52.2362 55.5014 50.437 55.7229 48.5273 55.5014C47.8818 55.4128 47.0286 54.6552 45.9677 53.2287C44.7564 51.5718 44.0358 49.8529 43.8059 48.072C42.1879 49.0112 40.8219 49.6447 39.7079 49.9725L39.3631 50.5573C39.0625 51.0358 38.7088 51.4788 38.3021 51.8863C37.0201 53.1977 35.5038 53.9287 33.7532 54.0793C32.0114 54.2299 30.6587 54.0926 29.695 53.6673C29.3944 53.5344 29.1468 53.3793 28.9523 53.2021L28.7666 52.9762L18.1701 53.335L17.0826 54.2919C16.1101 54.9387 14.9872 55.2799 13.7141 55.3153C11.9723 55.3685 10.6019 55.209 9.60278 54.8369C8.3473 54.3584 7.45431 53.4856 6.92382 52.2186C6.15462 50.3934 5.74791 48.3023 5.7037 45.9455C5.64181 42.8798 6.32703 40.3723 7.75934 38.423C9.13861 36.5446 10.9378 34.6308 13.157 32.6815C13.7759 32.141 15.4602 30.7676 18.2099 28.5614C19.6157 27.445 20.8668 26.364 21.9631 25.3185C23.0771 24.2553 23.7535 23.4933 23.9922 23.0325C24.2486 21.2693 24.5846 19.4795 25.0002 17.6632C25.8401 14.0304 26.6535 12.09 27.4404 11.8419C28.2273 11.6027 29.3855 11.8552 30.9151 12.5995C31.6755 12.9805 32.3562 13.3792 32.9575 13.7956L33.8593 13.4766C34.655 13.2374 35.5259 13.0336 36.4719 12.8653C39.4957 12.3425 42.7052 12.3115 46.1003 12.7722C46.6131 12.2229 47.7448 11.6913 49.4954 11.1774C51.1841 10.6812 52.2407 10.5261 52.6651 10.7122Z" fill="#7CBEB3"/>
<path id="Vector_4" d="M55.0655 16.0018L55.3308 18.0884L53.9648 16.055C54.1062 15.4613 54.1681 14.6595 54.1504 13.6494L54.0708 12.3203C54.4776 13.1975 54.8091 14.4247 55.0655 16.0018Z" fill="#68A198"/>
<path id="Vector_5" d="M24.6951 18.3543C25.4113 15.0582 26.1142 13.1532 26.8038 12.6393C26.6358 14.5532 26.5784 16.4448 26.6314 18.3144C26.6668 19.4131 26.7817 21.0877 26.9762 23.3382C27.0912 24.6761 26.9541 25.8634 26.5651 26.9001C26.2203 27.8038 25.7694 28.4196 25.2124 28.7475C24.6642 29.0664 24.2133 28.9956 23.8596 28.5348C23.4794 28.0298 23.3512 27.1615 23.475 25.9299C23.7226 23.4755 24.1293 20.9503 24.6951 18.3543Z" fill="#68A198"/>
<path id="Vector_6" d="M48.6334 52.1389C49.3141 53.4148 50.1276 54.2122 51.0736 54.5312L50.5696 55.5413C49.2346 55.8071 48.0542 55.4571 47.0286 54.4913C45.7997 53.3129 44.7122 51.1731 43.7661 48.072C42.2366 49.0023 40.539 49.6978 38.6735 50.1586C36.8344 50.6193 34.6241 50.8984 32.0424 50.9959C31.6357 51.1288 31.3395 51.4123 31.1538 51.8465C30.9681 52.2629 30.9637 52.6395 31.1406 52.9762L30.3979 53.8533L28.8064 52.8831C28.8506 52.5819 29.0982 51.6826 29.5491 50.1852C29.9912 48.7498 30.2697 47.5049 30.3846 46.4505C30.7206 43.2962 29.8453 40.4432 27.7587 37.8914C29.6154 39.7609 32.8691 40.9349 37.5197 41.4134C42.4885 41.9184 46.7103 41.4666 50.185 40.0578C49.071 40.7754 48.2753 41.8918 47.7978 43.407C47.3734 44.7715 47.2452 46.2822 47.4132 47.9391C47.5812 49.5339 47.9879 50.9339 48.6334 52.1389Z" fill="#68A198"/>
<path id="Vector_7" d="M5.57109 44.5101C5.95127 47.6201 7.64883 49.6181 10.6638 50.5041C11.822 50.8408 13.0421 50.9649 14.3241 50.8762C15.4912 50.7965 16.4505 50.5661 17.202 50.1851L18.1701 53.4546C17.4805 54.128 16.5522 54.6552 15.3851 55.0362C13.051 55.7982 10.7035 55.4659 8.34288 54.0394C7.20234 53.3483 6.3845 51.5939 5.88938 48.7763C5.73023 47.8283 5.62414 46.8669 5.57109 45.8923C5.52688 45.0771 5.52688 44.6164 5.57109 44.5101Z" fill="#68A198"/>
<path id="Vector_8" d="M33.9654 22.8465C34.3102 22.7845 34.6771 22.842 35.0662 23.0193C33.7311 24.0471 33.0326 25.6242 32.9707 27.7507C32.9089 29.6911 33.3509 31.5119 34.297 33.2131C32.4403 33.0093 31.1317 32.584 30.3714 31.9372C30.1503 31.7423 30.0575 31.1974 30.0929 30.3025C30.1282 29.3721 30.2918 28.3975 30.5836 27.3786C31.3439 24.6673 32.4712 23.1566 33.9654 22.8465Z" fill="white"/>
<path id="Vector_9" d="M38.5541 27.9102C38.9696 29.0266 39.2261 30.0322 39.3233 30.9271C39.4294 31.8841 39.3233 32.522 39.005 32.841C38.7928 33.0536 38.2225 33.1998 37.2942 33.2796C36.3482 33.3505 35.3491 33.3283 34.2969 33.2131C33.3509 31.5119 32.9088 29.6911 32.9707 27.7507C33.0326 25.6242 33.7311 24.0471 35.0662 23.0193C36.3835 23.6306 37.5462 25.2609 38.5541 27.9102Z" fill="#D60040"/>
<path id="Vector_10" d="M54.0841 22.1819C55.1893 23.0857 55.848 24.4369 56.0602 26.2356C56.1928 27.3608 56.1398 28.9424 55.901 30.9803C55.512 31.1309 55.1362 31.2328 54.7737 31.286C54.4024 31.348 54.1239 31.348 53.9382 31.286C53.4166 31.1176 53.1558 29.7797 53.1558 27.2722C53.1469 24.7116 53.4564 23.0148 54.0841 22.1819Z" fill="#D60040"/>
<path id="Vector_11" d="M54.0841 22.1819C54.2433 21.9604 54.4112 21.832 54.5881 21.7965C55.4457 21.6105 56.2768 22.6604 57.0814 24.9464C57.8682 27.2146 58.023 28.8361 57.5455 29.8107C57.3245 30.2715 56.7763 30.6613 55.901 30.9803C56.1397 28.9424 56.1928 27.3608 56.0602 26.2356C55.848 24.4369 55.1893 23.0857 54.0841 22.1819Z" fill="white"/>
<path id="Vector_12" d="M46.2992 20.8263C46.0428 20.9238 45.3753 20.6535 44.2966 20.0156C43.1649 19.3599 42.6212 18.8239 42.6654 18.4074C42.7273 17.8581 43.6424 17.1005 45.4107 16.1347C47.2055 15.1601 48.3991 14.8012 48.9915 15.0582C49.3716 15.2177 49.1727 16.1569 48.3947 17.8758C47.6078 19.6036 46.9093 20.5871 46.2992 20.8263Z" fill="#006359"/>
<path id="Vector_13" d="M40.3975 21.9693C40.371 21.8541 40.5036 21.637 40.7954 21.3181C41.096 20.9902 41.3657 20.7953 41.6044 20.7333L41.8962 21.1453C42.1437 21.5617 42.3913 22.1465 42.6388 22.8996L42.4664 23.3116C42.2984 23.6129 42.0907 23.8211 41.8431 23.9363L41.2065 23.3249C40.7645 22.8376 40.4948 22.3857 40.3975 21.9693Z" fill="#006359"/>
<path id="Vector_14" d="M50.6492 24.8666C50.9233 26.4349 50.9454 27.3121 50.7155 27.4982C50.5122 27.6665 49.8933 27.6 48.8588 27.2988C47.8155 26.9975 47.2232 26.7051 47.0817 26.4216C47.1259 25.7659 47.4619 24.9464 48.0896 23.9629C48.735 22.9794 49.2567 22.4876 49.6546 22.4876C50.0436 22.4876 50.3751 23.2806 50.6492 24.8666Z" fill="#006359"/>
<path id="Vector_15" d="M51.4449 47.9789C51.4096 47.4739 51.719 46.7518 52.3733 45.8126C53.0099 44.8911 53.4696 44.4481 53.7525 44.4835C54.1769 44.5278 54.4687 45.4183 54.6278 47.1549C54.7781 48.9004 54.6411 49.844 54.2167 49.9858C53.7481 50.1453 53.1867 50.0567 52.5324 49.72C51.7809 49.3213 51.4184 48.7409 51.4449 47.9789Z" fill="#006359"/>
<path id="Vector_16" d="M9.40386 40.5096L11.5921 40.6026C12.5735 40.7976 13.1394 41.0147 13.2897 41.2539C13.5372 41.6526 13.3737 42.4943 12.799 43.7791C12.2331 45.055 11.7557 45.7107 11.3667 45.7461C11.0307 45.7727 10.3499 45.436 9.32429 44.736C8.28984 44.036 7.77704 43.5487 7.78588 43.274C7.79472 42.9196 7.96713 42.4146 8.3031 41.7589C8.67444 41.0235 9.04136 40.6071 9.40386 40.5096Z" fill="#006359"/>
<path id="Vector_17" d="M22.0162 29.1196C22.2461 29.5183 21.8747 30.6259 20.9022 32.4422C19.9296 34.2586 19.1825 35.2244 18.6608 35.3396C18.1834 35.4548 17.4054 35.2466 16.3267 34.7149C15.3099 34.2276 14.6336 33.7802 14.2976 33.3726C14.1915 33.2397 14.2622 32.8498 14.5098 32.203L14.9077 31.2594L16.6848 29.8506C17.8872 28.9025 18.5592 28.4108 18.7006 28.3753L20.3584 28.5215C21.331 28.6899 21.8836 28.8892 22.0162 29.1196Z" fill="#006359"/>
<path id="Vector_18" d="M35.4773 24.3616C35.7602 24.3616 36.0078 24.6407 36.22 25.1989C36.4322 25.7926 36.5339 26.5324 36.525 27.4184C36.5073 28.2602 36.3924 28.9247 36.1802 29.412C35.9857 29.855 35.747 30.0765 35.464 30.0765C35.1988 30.0765 34.9689 29.8373 34.7744 29.3589C34.5622 28.8538 34.4473 28.2159 34.4296 27.445C34.3942 26.5147 34.4915 25.7571 34.7214 25.1723C34.9247 24.6318 35.1767 24.3616 35.4773 24.3616Z" fill="white"/>
<path id="Vector_19" d="M53.4608 24.654L53.726 23.4578C53.8321 23.3161 53.9338 23.2496 54.0311 23.2585C54.1902 23.2673 54.3405 23.4401 54.482 23.7768C54.6853 24.2287 54.7959 24.8666 54.8135 25.6906C54.8224 26.4704 54.7516 27.0773 54.6013 27.5115C54.4599 27.9013 54.283 28.0962 54.0709 28.0962C53.9382 28.0962 53.8056 27.9988 53.673 27.8038C53.5315 27.5912 53.4343 27.3121 53.3812 26.9665C53.2751 26.3552 53.3017 25.5843 53.4608 24.654Z" fill="white"/>
<path id="Vector_20" d="M47.8111 13.3836C45.3886 12.914 42.9351 12.7324 40.4506 12.8387C37.7805 12.945 35.327 13.3792 33.0901 14.1412C33.0105 14.1677 32.9 14.0791 32.7586 13.8753C32.6083 13.6716 32.5729 13.5519 32.6525 13.5165C35.19 12.657 37.9396 12.1963 40.9015 12.1343C43.5009 12.0723 45.8748 12.3159 48.0233 12.8653C49.1197 13.1488 49.6413 13.357 49.5883 13.4899L47.8111 13.3836Z" fill="#0D131A"/>
<path id="Vector_21" d="M54.9727 17.0917C56.7675 19.6966 58.076 22.718 58.8983 26.1558C59.6144 29.1506 59.7913 31.4676 59.4288 33.1068C59.0309 34.9232 57.0504 36.7838 53.4873 38.6888C49.9507 40.5849 46.5335 41.6349 43.2357 41.8387C39.7079 42.0513 36.388 41.7589 33.2758 40.9615C30.1636 40.1641 28.1566 39.0875 27.2548 37.7319C26.963 37.2889 26.8701 37.0186 26.9762 36.9212C27.0912 36.8237 27.352 36.9965 27.7587 37.4395C28.9523 38.7508 31.0787 39.7521 34.1378 40.4432C37.0467 41.0988 40.0837 41.3292 43.2489 41.1343C46.5556 40.9305 49.8933 39.8894 53.2619 38.011C56.4978 36.2035 58.2926 34.4934 58.6463 32.8808C59.0176 31.2062 58.8629 28.9468 58.1821 26.1027C57.4218 22.9218 56.2061 20.0599 54.535 17.517C53.8454 16.4626 53.5757 15.8778 53.726 15.7626C53.8675 15.6474 54.283 16.0904 54.9727 17.0917Z" fill="#0D131A"/>
<path id="Vector_22" d="M24.2442 23.1787C23.6607 24.2774 22.4804 25.5843 20.7032 27.0994C19.6423 27.9943 17.8563 29.412 15.3453 31.3524C13.0554 33.1777 11.2871 34.7858 10.0404 36.1769C8.32521 38.0907 7.18466 39.9736 6.61881 41.8254C5.93802 44.0493 5.90265 46.548 6.51271 49.3213C7.07857 51.9351 7.88314 53.5477 8.92643 54.159C10.0493 54.8147 11.5612 55.1027 13.4621 55.0229C15.4249 54.9432 16.7821 54.4824 17.5336 53.6407C18.6918 52.3382 19.1427 50.2294 18.8863 47.3144C18.6211 44.3373 17.7192 41.9627 16.1808 40.1906C15.5796 39.4907 15.3232 39.0654 15.4116 38.9148C15.5 38.7641 15.8758 39.0432 16.5389 39.7521C18.4752 41.8342 19.5538 44.3816 19.7749 47.3941C19.9782 50.256 19.3814 52.4711 17.9845 54.0394C17.1446 54.9875 15.6327 55.5191 13.4488 55.6343C11.3357 55.7495 9.66027 55.4438 8.42247 54.7172C7.16698 53.9818 6.24747 52.2452 5.66393 49.5073C5.07156 46.6897 5.12903 44.0848 5.83634 41.6925C6.37567 39.885 7.44106 38.073 9.03253 36.2566C10.1908 34.9276 11.8662 33.3726 14.0589 31.5917L19.4964 27.1792C21.4592 25.4869 22.9224 23.9319 23.8862 22.5142C23.9304 22.4522 24.0099 22.5275 24.1249 22.7401C24.2487 22.9617 24.2884 23.1078 24.2442 23.1787Z" fill="#0D131A"/>
<path id="Vector_23" d="M27.4935 11.4432C28.0416 11.266 28.9656 11.4432 30.2653 11.9748C31.5738 12.5153 32.648 13.1754 33.488 13.9551C34.1511 14.5753 34.4075 14.9253 34.2572 15.005C34.1157 15.0936 33.709 14.8766 33.0371 14.3538C32.1706 13.6981 31.1671 13.1444 30.0265 12.6925C28.9125 12.2406 28.1654 12.0811 27.7852 12.214C27.1663 12.4178 26.4502 13.9905 25.6368 16.9322C24.7791 20.0422 24.2221 23.3028 23.9657 26.714C23.895 27.6975 23.7712 28.1494 23.5944 28.0697C23.4087 27.9899 23.3336 27.5247 23.3689 26.6741C23.4839 23.7236 23.9259 20.6358 24.6951 17.4106C25.5705 13.7601 26.5032 11.771 27.4935 11.4432Z" fill="#0D131A"/>
<path id="Vector_24" d="M45.6759 12.5861C46.4451 12.0014 47.6254 11.4432 49.2169 10.9115C51.0117 10.309 52.2584 10.1673 52.9568 10.4862C53.6465 10.7964 54.2742 11.8374 54.8401 13.6095C55.3617 15.2575 55.6535 16.9144 55.7154 18.5802C55.7154 18.6599 55.6048 18.5758 55.3838 18.3277C55.1539 18.0796 55.039 17.9112 55.039 17.8226C54.9859 16.4758 54.6765 15.0582 54.1106 13.5696C53.5713 12.152 53.0718 11.3368 52.612 11.1242C52.1788 10.9293 51.1885 11.0533 49.6413 11.4963C48.0763 11.9393 46.9623 12.4134 46.2992 12.9184C46.2373 12.9716 46.1003 12.945 45.8881 12.8387C45.6847 12.7235 45.614 12.6393 45.6759 12.5861Z" fill="#0D131A"/>
<path id="Vector_25" d="M46.1666 20.4542C46.5998 20.4453 47.2055 19.6169 47.9835 17.9688C48.7527 16.3474 49.0401 15.4879 48.8456 15.3905C48.4123 15.169 47.3381 15.4924 45.6229 16.3607C43.8988 17.229 43.0323 17.898 43.0235 18.3675C43.0146 18.6599 43.3948 19.072 44.164 19.6036C44.9509 20.1352 45.6184 20.4187 46.1666 20.4542ZM45.1056 16.0018C46.9889 14.9829 48.3328 14.5487 49.1373 14.6994C49.4114 14.7525 49.491 15.1158 49.376 15.7892C49.2699 16.4094 49.0312 17.136 48.6599 17.9688C47.7315 20.0422 46.9004 21.0611 46.1666 21.0257C45.5831 20.9902 44.805 20.6535 43.8325 20.0156C42.8157 19.3511 42.3073 18.7884 42.3073 18.3277C42.3073 17.7872 43.2401 17.0119 45.1056 16.0018Z" fill="#0D131A"/>
<path id="Vector_26" d="M42.3736 22.9794C42.4002 22.9085 42.3029 22.5806 42.0819 21.9959C41.8608 21.4022 41.7017 21.101 41.6044 21.0921C41.5248 21.0832 41.348 21.2029 41.0739 21.451C40.7998 21.699 40.6628 21.8851 40.6628 22.0092C40.6716 22.1243 40.8573 22.4256 41.2198 22.9129C41.5823 23.3825 41.7945 23.6173 41.8564 23.6173C41.9095 23.6173 42.0023 23.5287 42.1349 23.3515L42.3736 22.9794ZM42.4001 21.5839C42.6742 22.2395 42.8157 22.687 42.8245 22.9262C42.8334 23.1211 42.6919 23.3869 42.4001 23.7236C42.0995 24.0692 41.8741 24.2065 41.7238 24.1356C41.547 24.0559 41.2419 23.7281 40.8087 23.1521C40.3401 22.5408 40.1235 22.1199 40.1588 21.8895C40.1942 21.6503 40.402 21.3491 40.7822 20.9858C41.1623 20.6402 41.4497 20.4719 41.6442 20.4807C41.8476 20.4985 42.0995 20.8662 42.4001 21.5839Z" fill="#0D131A"/>
<path id="Vector_27" d="M49.5617 22.873C49.2876 22.8553 48.8367 23.3737 48.209 24.428C47.5989 25.4736 47.3292 26.0982 47.4 26.302C47.4707 26.4881 47.9702 26.714 48.8986 26.9798C49.8358 27.2456 50.3707 27.3165 50.5033 27.1925C50.7067 26.9976 50.6669 26.2311 50.384 24.8932C50.101 23.5642 49.8269 22.8908 49.5617 22.873ZM47.758 23.9895C48.5273 22.6604 49.1329 22.018 49.575 22.0623C50.132 22.1155 50.5785 23.037 50.9144 24.8268C51.2416 26.6077 51.215 27.5912 50.8349 27.7773C50.5077 27.9456 49.7872 27.8437 48.6731 27.4716C47.5768 27.1083 46.9756 26.7982 46.8695 26.5412C46.7015 26.1602 46.9977 25.3097 47.758 23.9895Z" fill="#0D131A"/>
<path id="Vector_28" d="M30.9018 25.5179C31.9363 23.418 33.0459 22.4345 34.2306 22.5674C35.9017 22.7623 37.3384 24.1755 38.5409 26.8071C39.0448 27.9235 39.3764 29.0266 39.5355 30.1164C39.7035 31.2505 39.646 32.1543 39.3631 32.8277C39.2128 33.1998 38.6469 33.4479 37.6655 33.572C36.7637 33.6783 35.716 33.6694 34.5224 33.5454C33.32 33.4213 32.2944 33.2043 31.4456 32.8941C30.5084 32.5663 30 32.1897 29.9204 31.7644C29.5226 29.7443 29.8497 27.6621 30.9018 25.5179ZM37.1351 25.7039C36.2067 24.1268 35.2165 23.2806 34.1643 23.1655C33.7488 23.1212 33.2979 23.3515 32.8116 23.8566C32.0778 24.6186 31.4854 25.7172 31.0345 27.1526C30.557 28.712 30.4156 30.205 30.6101 31.6315C30.6808 32.1809 32.0026 32.5973 34.5755 32.8809C37.1483 33.1732 38.5453 33.0625 38.7663 32.5486C38.9962 31.9904 38.9564 31.0157 38.6469 29.6247C38.3198 28.1716 37.8159 26.8647 37.1351 25.7039Z" fill="#0D131A"/>
<path id="Vector_29" d="M56.6703 24.6407C56.0071 22.9927 55.3396 22.1686 54.6677 22.1686C54.0753 22.1686 53.7128 23.573 53.5802 26.3818C53.4475 29.1728 53.6155 30.7056 54.0841 30.9803C54.3936 31.1575 54.9771 31.06 55.8347 30.6879C56.6924 30.3158 57.1565 29.9658 57.2273 29.6379C57.5721 28.0697 57.3864 26.4039 56.6703 24.6407ZM52.9568 26.1558C53.1071 23.0901 53.6774 21.5573 54.6677 21.5573C55.5253 21.5573 56.3564 22.4743 57.161 24.3084C58.0009 26.24 58.2352 28.0431 57.8638 29.7177C57.7312 30.2847 57.077 30.7898 55.901 31.2328C54.7605 31.667 54.0355 31.7511 53.7261 31.4853C53.4343 31.2461 53.2177 30.5904 53.0762 29.5183C52.9347 28.4905 52.895 27.3697 52.9568 26.1558Z" fill="#0D131A"/>
<path id="Vector_30" d="M18.5548 28.1228L20.8756 28.269C21.7775 28.4285 22.2947 28.6367 22.4273 28.8937C22.666 29.381 22.2328 30.6303 21.1276 32.6416C20.0224 34.6706 19.1781 35.6852 18.5945 35.6852C18.0375 35.6852 17.1269 35.4061 15.8625 34.8479C14.5275 34.2631 13.86 33.7846 13.86 33.4125C13.86 33.1998 13.9572 32.8809 14.1517 32.4556L14.7883 31.2062C14.8325 31.1354 14.9519 31.0911 15.1464 31.0733C15.3497 31.0645 15.4293 31.0955 15.3851 31.1664C15.1464 31.6094 14.9563 32.0391 14.8148 32.4556C14.6911 32.8188 14.6292 33.0802 14.6292 33.2397C14.6645 33.4789 15.2348 33.8466 16.34 34.3428C17.4186 34.8301 18.1657 35.0782 18.5813 35.0871C18.9703 34.963 19.6069 34.0593 20.491 32.3758C21.3752 30.6923 21.7554 29.6645 21.6316 29.2924C21.5609 29.1418 21.1807 29 20.491 28.8671L18.4354 28.7209C18.347 28.7298 18.3249 28.6323 18.3691 28.4285C18.4133 28.2336 18.4752 28.1317 18.5548 28.1228Z" fill="#0D131A"/>
<path id="Vector_31" d="M9.52322 40.7489C9.24914 40.8818 8.93526 41.2495 8.58161 41.852C8.22795 42.4456 8.06438 42.8576 8.09091 43.088C8.12627 43.3272 8.59487 43.7658 9.4967 44.4038C10.3985 45.0417 10.9821 45.343 11.2473 45.3075C11.5125 45.2721 11.9237 44.6607 12.4807 43.4734C13.0377 42.2861 13.2455 41.6172 13.104 41.4665C12.9449 41.3071 12.3657 41.121 11.3667 40.9083C10.3499 40.6957 9.73541 40.6425 9.52322 40.7489ZM8.05112 41.5064C8.46667 40.8153 8.86011 40.3723 9.23145 40.1774L11.5258 40.2837C12.799 40.5229 13.5417 40.8109 13.7539 41.1476C13.9484 41.4577 13.7273 42.326 13.0907 43.7525C12.4542 45.1702 11.9325 45.9543 11.5258 46.105C11.2164 46.229 10.4869 45.8879 9.33755 45.0816C8.17048 44.2664 7.556 43.6285 7.49411 43.1677C7.4499 42.769 7.63557 42.2153 8.05112 41.5064Z" fill="#0D131A"/>
<path id="Vector_32" d="M51.7367 47.9523V47.9656C51.7544 48.701 52.1125 49.2371 52.8109 49.5738C53.4387 49.875 53.8631 49.9238 54.0841 49.72C54.314 49.5073 54.3936 48.701 54.3228 47.3011C54.2521 45.8746 54.0443 45.0816 53.6995 44.9221C53.5138 44.8423 53.1381 45.2411 52.5722 46.1182C52.0152 46.9954 51.7367 47.6068 51.7367 47.9523ZM52.1213 45.6664C52.8021 44.5765 53.3282 44.036 53.6995 44.0449C54.3007 44.0538 54.6765 45.0151 54.8268 46.929C54.9771 48.8074 54.8533 49.8928 54.4555 50.1851C54.1283 50.4332 53.5315 50.3889 52.6651 50.0522C51.6748 49.6624 51.1664 49.0111 51.1399 48.0985C51.1311 47.5492 51.4582 46.7385 52.1213 45.6664Z" fill="#0D131A"/>
<path id="Vector_33" d="M57.9434 32.4821C57.9346 32.8277 57.8859 33.1112 57.7975 33.3327L57.5323 33.7713C57.099 34.2852 56.0646 34.932 54.4289 35.7117C52.7402 36.518 51.277 37.0452 50.0392 37.2933C47.7846 37.754 44.3232 37.7939 39.6549 37.4129C34.9866 37.0408 32.038 36.4826 30.809 35.7383C30.6057 35.6054 30.42 35.3883 30.252 35.0871C30.1017 34.8301 29.9912 34.5466 29.9204 34.2365C29.7878 33.6783 29.779 33.3637 29.8939 33.2928C30.0089 33.222 30.1901 33.4789 30.4377 34.0637C30.588 34.4093 30.7471 34.6751 30.9151 34.8611L31.4456 35.2599C32.4358 35.8003 35.0838 36.2788 39.3896 36.6952C44.0491 37.1471 47.5591 37.1338 49.9198 36.6554C50.9808 36.4339 52.2407 36.0041 53.6995 35.3662C55.0523 34.7725 56.0646 34.232 56.7366 33.7447C56.9841 33.5587 57.1654 33.3682 57.2803 33.1732C57.4041 32.9694 57.4837 32.7214 57.519 32.429C57.5809 31.8973 57.6693 31.6492 57.7843 31.6847C57.8992 31.729 57.9522 31.9948 57.9434 32.4821Z" fill="#0D131A"/>
<path id="Vector_34" d="M37.8379 21.5706C38.1474 21.8541 38.448 22.1997 38.7398 22.6073C39.0492 23.0325 39.2703 23.418 39.4029 23.7635C39.5974 24.2597 39.6062 24.5388 39.4294 24.6008C39.2437 24.654 39.036 24.4591 38.8061 24.0161C38.4259 23.2629 37.9617 22.5807 37.4136 21.9693C36.9008 21.3757 36.6974 21.0301 36.8035 20.9326C36.9184 20.8352 37.2633 21.0478 37.8379 21.5706Z" fill="#0D131A"/>
<path id="Vector_35" d="M52.7844 21.6636C52.6164 22.1509 52.5103 22.6737 52.4661 23.2319C52.4308 23.7192 52.3202 23.9585 52.1346 23.9496C51.9489 23.9496 51.8693 23.7104 51.8958 23.2319C51.9224 22.6471 52.0727 22.0712 52.3468 21.5041C52.5943 20.9991 52.7756 20.7599 52.8905 20.7864C52.9966 20.8219 52.9612 21.1143 52.7844 21.6636Z" fill="#0D131A"/>
<path id="Vector_36" d="M46.9623 35.5921C46.7678 35.4947 46.6131 35.3706 46.4981 35.22C46.3832 35.0782 46.3434 34.9763 46.3788 34.9143L46.7899 34.9276C47.0463 34.9808 47.2364 35.0649 47.3602 35.1801C47.5193 35.3396 47.5503 35.4769 47.453 35.5921C47.3558 35.7073 47.1922 35.7073 46.9623 35.5921Z" fill="#0D131A"/>
<path id="Vector_37" d="M51.4847 34.9276C51.2991 35.158 51.1311 35.2377 50.9808 35.1668C50.8305 35.0959 50.8216 34.9497 50.9542 34.7282C51.0515 34.5687 51.2062 34.427 51.4184 34.3029C51.6129 34.1789 51.7367 34.139 51.7898 34.1833C51.8251 34.2188 51.8163 34.3118 51.7632 34.4624L51.4847 34.9276Z" fill="#0D131A"/>
<path id="Vector_38" d="M35.5436 23.0857C35.6232 23.1123 35.6585 23.2408 35.6497 23.4711C35.6409 23.7015 35.6011 23.7945 35.5303 23.7502C35.0794 23.4667 34.655 23.6838 34.2572 24.4015C33.8858 25.0571 33.6294 25.9653 33.488 27.126C33.3377 28.3222 33.3554 29.4386 33.541 30.4753C33.7621 31.6537 34.1732 32.4954 34.7744 33.0005C34.8451 33.0536 34.8009 33.1334 34.6418 33.2397C34.4826 33.3372 34.3677 33.3593 34.297 33.3061C33.572 32.7657 33.0724 31.8708 32.7983 30.6215C32.5596 29.4962 32.5331 28.2912 32.7188 27.0064C32.9044 25.7394 33.2448 24.7293 33.74 23.9762C34.2793 23.1699 34.8805 22.8731 35.5436 23.0857Z" fill="#0D131A"/>
<path id="Vector_39" d="M53.8587 22.2883C54.1681 22.049 54.5262 22.1509 54.9329 22.594C55.3396 23.0281 55.6888 23.6749 55.9806 24.5344C56.7056 26.6874 56.7365 28.8051 56.0734 30.8873C56.0469 30.967 55.9452 31.0246 55.7684 31.06C55.5916 31.0866 55.512 31.06 55.5297 30.9803C56.069 29.2968 56.0867 27.3874 55.5827 25.2521C55.3794 24.3926 55.1274 23.7148 54.8268 23.2186C54.5262 22.7136 54.2521 22.5275 54.0045 22.6604C53.9338 22.7047 53.8763 22.6648 53.8321 22.5408C53.7879 22.4256 53.7968 22.3414 53.8587 22.2883Z" fill="#0D131A"/>
<path id="Vector_40" d="M52.8772 38.7952C52.833 38.7243 52.9259 38.6179 53.1557 38.4762C53.3768 38.3256 53.505 38.2857 53.5404 38.3566C56.0513 42.4235 57.1698 47.1682 56.8957 52.5908C56.8692 53.0958 56.4846 53.6186 55.7419 54.159C55.0346 54.6729 54.1593 55.1027 53.116 55.4482C50.5873 56.2811 48.6864 56.2501 47.4132 55.3552C46.5733 54.7615 45.7024 53.6274 44.8006 51.9528C43.9341 50.3491 43.492 49.1308 43.4744 48.2979C43.4744 48.2182 43.5981 48.1296 43.8457 48.0321L44.2038 47.9922C44.2215 48.8162 44.6326 49.9814 45.4372 51.4876C46.2948 53.0914 47.1568 54.1989 48.0233 54.8103C49.1285 55.5811 50.7951 55.6033 53.0231 54.8767C53.925 54.5843 54.6853 54.2211 55.3042 53.7869C55.9496 53.3439 56.2812 52.9363 56.2989 52.5642C56.5553 47.496 55.4147 42.9064 52.8772 38.7952Z" fill="#0D131A"/>
<path id="Vector_41" d="M45.4637 47.2214C43.1738 49.02 40.4418 50.2383 37.2677 50.8763C34.3235 51.461 31.6932 51.43 29.3767 50.7832C29.2971 50.7566 29.2839 50.6193 29.3369 50.3712C29.3811 50.132 29.443 50.0212 29.5226 50.039C31.7948 50.6769 34.3368 50.7168 37.1483 50.1586C40.0041 49.5915 42.5947 48.515 44.92 46.929C45.8041 46.3265 46.2948 46.0872 46.3921 46.2113C46.4805 46.3265 46.171 46.6632 45.4637 47.2214Z" fill="#0D131A"/>
<path id="Vector_42" d="M39.2703 49.906C39.3145 49.8352 39.5178 49.7731 39.8803 49.72L40.3578 49.7598C39.6681 50.894 38.8149 51.8819 37.7982 52.7236C36.6311 53.6894 35.4861 54.2432 34.3633 54.385L30.3846 54.2653C29.3413 54.0084 28.7268 53.6185 28.5412 53.0958C28.5147 53.016 28.581 52.8831 28.7401 52.6971C28.8904 52.5021 28.9788 52.4445 29.0054 52.5243C29.1822 53.0205 29.7259 53.3926 30.6366 53.6407C31.6268 53.9154 32.8425 53.9641 34.2837 53.7869C35.1236 53.6806 36.0122 53.2597 36.9494 52.5243C37.8777 51.7977 38.6514 50.925 39.2703 49.906Z" fill="#0D131A"/>
<path id="Vector_43" d="M8.4092 6.37947C8.47993 6.32631 8.65234 6.32631 8.92643 6.37947C9.35081 6.45921 9.72216 6.64971 10.0404 6.95097C10.1112 7.00413 10.1156 7.0883 10.0537 7.20349C10.0007 7.30981 9.93877 7.33639 9.86804 7.28323C9.68237 7.12374 9.50112 7.01742 9.32429 6.96426L9.07231 6.95097L9.12536 7.37626L9.20493 8.1737C9.23145 9.37871 8.83801 10.9559 8.0246 12.9051C7.38801 14.4557 6.57018 16.0594 5.5711 17.7163C2.42354 22.9528 1.72949 27.4716 3.48894 31.2727C4.15204 32.7081 5.1025 33.8821 6.3403 34.7947C7.43664 35.5921 8.48877 36.0263 9.4967 36.0972C9.57627 36.106 9.56301 36.2079 9.45691 36.4028C9.35966 36.6066 9.26682 36.7041 9.17841 36.6952C8.00249 36.6155 6.82658 36.1503 5.65067 35.2997C4.34214 34.3428 3.34747 33.1024 2.66668 31.5784C0.898392 27.6266 1.66318 22.9174 4.96104 17.4505C6.51713 14.8633 7.57368 12.7368 8.1307 11.071C8.72307 9.30782 8.82033 7.87687 8.42246 6.77819C8.34289 6.5744 8.33847 6.44149 8.4092 6.37947Z" fill="#0D131A"/>
<path id="Vector_44" d="M15.279 5.9143C15.3409 5.97632 15.3409 6.07378 15.279 6.20669C15.2171 6.34846 15.1552 6.38833 15.0933 6.32631C14.4302 5.6352 13.5682 5.08142 12.5072 4.66499C11.5081 4.28399 10.6107 4.11564 9.81499 4.15994C9.44364 4.18653 9.24471 4.23526 9.21819 4.30614C9.19166 4.36816 9.28008 4.55866 9.48343 4.87763C10.4471 6.40162 10.4737 8.65215 9.563 11.6292C9.06788 13.2241 8.29426 15.2088 7.24212 17.5834C5.68603 21.6858 5.56225 25.3451 6.87078 28.5614C7.41011 29.8905 8.15721 31.0157 9.11209 31.9372C9.99623 32.7967 10.9511 33.377 11.9767 33.6783C12.0475 33.696 11.9944 33.7846 11.8176 33.9441C11.6407 34.0947 11.5125 34.1612 11.433 34.1434C8.71865 33.346 6.85752 31.317 5.8496 28.0564C4.79746 24.6806 5.05387 21.0833 6.6188 17.2644L7.78587 14.6196C8.34288 13.326 8.76285 12.1963 9.04578 11.2305C9.91224 8.32432 9.81056 6.18454 8.74075 4.81118C8.37825 4.34158 8.21026 4.04033 8.23679 3.90742C8.26331 3.7568 8.52855 3.65047 9.03252 3.58845C9.97855 3.4644 11.0395 3.6106 12.2154 4.02704C13.4621 4.47006 14.4833 5.09914 15.279 5.9143Z" fill="#0D131A"/>
<path id="Vector_45" d="M14.3507 3.34922L14.8414 3.74793C14.8944 3.80995 14.8811 3.93843 14.8016 4.13336C14.722 4.31943 14.6557 4.38145 14.6026 4.31943L14.3241 3.98716C14.165 3.82768 14.0456 3.76565 13.9661 3.80109C13.8953 3.83654 13.8688 3.95172 13.8865 4.14665L14.0058 4.90421C14.0235 4.97509 13.9528 5.01053 13.7937 5.01053C13.6345 5.00167 13.5505 4.95737 13.5417 4.87763L13.409 4.05361C13.3737 3.60174 13.4444 3.30491 13.6212 3.16315C13.7715 3.04796 14.0147 3.10998 14.3507 3.34922Z" fill="#0D131A"/>
<path id="Vector_46" d="M34.6948 7.09716C36.5957 8.63 37.5948 10.4818 37.6921 12.6526C37.7009 12.7412 37.586 12.8077 37.3473 12.852C37.1085 12.9051 36.9892 12.8874 36.9892 12.7988C36.9008 10.8141 36.0078 9.0996 34.3102 7.65536C32.2679 5.91873 29.4121 4.98396 25.7429 4.85105C22.6042 4.73587 20.3584 4.38588 19.0057 3.8011C17.9093 3.3315 17.118 2.5385 16.6318 1.42209C16.5257 1.18286 16.4372 1.05438 16.3665 1.03666C16.2869 1.01008 16.1587 1.09869 15.9819 1.30247C15.3895 1.95814 15.0403 2.76001 14.9342 3.70807C14.8281 4.68271 15.0315 5.44027 15.5443 5.98075C16.5787 7.04399 17.3965 8.29774 17.9978 9.74198C18.3691 10.6369 18.82 12.1298 19.3505 14.2209C19.9959 16.7638 20.7077 18.6555 21.4857 19.896C22.1135 20.8972 23.033 21.8009 24.2442 22.6072C24.2973 22.6338 24.2619 22.7623 24.1381 22.9927C24.0232 23.2142 23.9304 23.3028 23.8596 23.2585C22.3035 22.2307 21.1851 21.1408 20.5043 19.989C19.8766 18.9258 19.2709 17.198 18.6874 14.8057C18.0597 12.2096 17.5911 10.5217 17.2816 9.74198C16.8042 8.51039 16.0836 7.39398 15.1199 6.39276C14.4302 5.67507 14.2092 4.61625 14.4568 3.21631C14.6955 1.89612 15.1773 0.952489 15.9023 0.385425C16.2295 0.128475 16.4594 0.0132897 16.592 0.0398708C16.7246 0.0664519 16.8528 0.25252 16.9766 0.598074C17.5071 1.98029 18.2674 2.89291 19.2577 3.33593C20.3717 3.82325 22.5378 4.12893 25.7561 4.25298C29.5403 4.38588 32.5198 5.33394 34.6948 7.09716Z" fill="#0D131A"/>
<path id="Vector_47" d="M38.5674 7.76167C40.2561 9.21477 40.9855 10.7875 40.7556 12.4798C40.7468 12.5596 40.6142 12.595 40.3578 12.5861C40.1014 12.5773 39.9776 12.533 39.9864 12.4532C40.1809 11.0001 39.6062 9.63564 38.2623 8.35975C36.7151 6.89779 34.5622 6.06491 31.8037 5.86112C31.7152 5.85226 31.4588 5.74594 31.0345 5.54215C30.6012 5.3295 30.4244 5.22318 30.504 5.22318C33.9168 5.22318 36.6046 6.06934 38.5674 7.76167Z" fill="#0D131A"/>
<path id="Vector_48" d="M17.6264 42.0115C18.1039 40.1419 18.7714 38.742 19.629 37.8116L29.4563 40.6824C30.3139 43.9607 30.3979 47.084 29.7083 50.0523C29.2927 51.8155 28.6429 53.3882 27.7587 54.7704C27.2813 55.5235 26.3087 56.0197 24.841 56.2589C23.2938 56.5159 21.804 56.3608 20.3717 55.7938C19.3284 55.3862 18.5106 54.3894 17.9182 52.8034C17.37 51.3592 17.0738 49.627 17.0296 47.6068C16.9854 45.6309 17.1843 43.7658 17.6264 42.0115Z" fill="#7CBEB3"/>
<path id="Vector_49" d="M19.7351 45.6664C19.7881 45.1259 20.438 44.3949 21.6846 43.4734C22.9313 42.5519 23.7226 42.2197 24.0586 42.4766C24.4034 42.7336 24.4697 44.1335 24.2575 46.6764C24.0453 49.2194 23.7226 50.5085 23.2893 50.544C23.0329 50.5617 22.3698 49.8529 21.3 48.4175C20.2214 46.9644 19.6997 46.0473 19.7351 45.6664Z" fill="#006359"/>
<path id="Vector_50" d="M17.3744 42.5697C17.4186 46.3708 18.2718 49.5384 19.934 52.0724C21.5255 54.5267 23.5148 55.878 25.902 56.126C24.9294 56.3741 23.8773 56.4539 22.7456 56.3653C20.4822 56.1881 18.957 55.2489 18.1701 53.5477C17.3833 51.8553 17.0163 49.5162 17.0694 46.5303L17.3744 42.5697Z" fill="#68A198"/>
<path id="Vector_51" d="M19.0587 39.2736C17.9093 41.2494 17.3877 44.0803 17.4938 47.7663C17.6087 51.6028 18.4133 54.0704 19.9075 55.1691C20.9243 55.9134 22.2859 56.2102 23.9923 56.0596C25.6368 55.9089 26.7243 55.4571 27.2547 54.7039C28.4572 52.9939 29.2441 50.9294 29.6154 48.5105C29.9514 46.3309 29.9072 44.2575 29.4828 42.2905C29.2706 41.307 29.2441 40.7799 29.4032 40.709C29.5624 40.6381 29.7746 41.0811 30.0398 42.038C30.588 44.0316 30.6985 46.1891 30.3714 48.5105C30.0177 51.0357 29.2087 53.2021 27.9444 55.0096C27.2901 55.9399 25.9374 56.4849 23.8862 56.6443C21.8791 56.795 20.3673 56.4981 19.3505 55.7539C18.6167 55.2134 18.011 54.2565 17.5336 52.8831C17.0738 51.5718 16.7953 50.0655 16.6981 48.3643C16.4593 44.5012 17.0694 41.3779 18.5282 38.9945C19.041 38.1528 19.3947 37.7496 19.5892 37.785C19.7926 37.8116 19.6157 38.3078 19.0587 39.2736Z" fill="#0D131A"/>
<path id="Vector_52" d="M20.0534 45.5335C20.0357 45.8436 20.491 46.7119 21.4194 48.1384C22.3654 49.5915 22.9711 50.3003 23.2363 50.2649C23.5281 50.2206 23.7668 49.02 23.9525 46.6632C24.1381 44.2974 24.0939 43.0171 23.8198 42.8222C23.5634 42.645 22.8738 42.9772 21.7509 43.819C20.6369 44.6607 20.0711 45.2322 20.0534 45.5335ZM19.4433 45.4006C19.4698 44.7538 20.2081 43.9386 21.6581 42.9551C23.0816 41.9982 23.9348 41.6526 24.2177 41.9184C24.6863 42.3703 24.8189 43.9076 24.6156 46.5303C24.4034 49.1529 24.0276 50.6193 23.4883 50.9294C23.1169 51.1509 22.3433 50.451 21.1674 48.8295C19.9915 47.2169 19.4168 46.0739 19.4433 45.4006Z" fill="#0D131A"/>
<path id="Vector_53" d="M9.44364 54.797C9.39944 54.6641 9.56742 54.4381 9.94761 54.1191C10.3366 53.8002 10.6284 53.654 10.8229 53.6806C11.1766 53.7249 11.4197 54.1103 11.5523 54.8368C11.6761 55.5102 11.685 55.8956 11.5789 55.9931C11.4551 56.1083 11.1103 56.0374 10.5444 55.7805C9.93434 55.5058 9.56742 55.178 9.44364 54.797Z" fill="white"/>
<path id="Vector_54" d="M13.3958 55.7938C12.7769 55.5102 12.4674 55.2267 12.4674 54.9432C12.4674 54.6951 12.6487 54.3938 13.0112 54.0394C13.3648 53.685 13.6345 53.5521 13.8202 53.6407C14.1119 53.7825 14.3507 54.1989 14.5363 54.89C14.7132 55.5545 14.722 55.94 14.5629 56.0463C14.3949 56.1615 14.0058 56.0773 13.3958 55.7938Z" fill="white"/>
<path id="Vector_55" d="M15.478 54.9831C15.4161 54.5223 15.584 54.097 15.9819 53.7072L16.6052 53.2553C16.9324 53.397 17.1888 53.8223 17.3744 54.5312C17.5424 55.1691 17.5822 55.5413 17.4938 55.6476L16.4461 55.621C15.8272 55.4704 15.5045 55.2577 15.478 54.9831Z" fill="white"/>
<path id="Vector_56" d="M20.69 56.0994C20.6723 55.8691 20.7519 55.621 20.9287 55.3552C21.1409 55.0362 21.4105 54.8811 21.7377 54.89C22.0648 54.8989 22.3168 55.0229 22.4936 55.2621C22.6351 55.4837 22.697 55.7539 22.6793 56.0729C22.6616 56.3653 22.5599 56.6931 22.3743 57.0564C22.1974 57.4196 22.056 57.6013 21.9499 57.6013C21.8349 57.6013 21.6051 57.4108 21.2602 57.0298C20.8977 56.6311 20.7077 56.321 20.69 56.0994Z" fill="white"/>
<path id="Vector_57" d="M23.3291 56.3918C23.3026 55.9577 23.422 55.5988 23.6872 55.3153C23.8994 55.0761 24.1116 54.9565 24.3238 54.9565C24.483 54.9565 24.6686 55.0761 24.8808 55.3153C25.093 55.5634 25.2256 55.8115 25.2787 56.0596C25.3141 56.2191 25.2743 56.4937 25.1593 56.8836C25.0444 57.3 24.9073 57.5481 24.7482 57.6279C24.5891 57.7165 24.3238 57.619 23.9525 57.3355C23.5546 57.0431 23.3468 56.7285 23.3291 56.3918Z" fill="white"/>
<path id="Vector_58" d="M25.9418 56.3121C25.6942 56.0463 25.7163 55.6431 26.0081 55.1027C26.2999 54.5622 26.5872 54.3318 26.8701 54.4116C27.1354 54.5002 27.3918 54.8723 27.6393 55.528C27.8692 56.1571 27.9267 56.5602 27.8117 56.7374C27.7057 56.8969 27.4316 56.9323 26.9895 56.8437C26.5386 56.7463 26.1893 56.5691 25.9418 56.3121Z" fill="white"/>
<path id="Vector_59" d="M30.4509 53.8932C30.4156 53.7071 30.588 53.4768 30.9682 53.2021C31.3395 52.9363 31.6092 52.8388 31.7771 52.9097C32.0689 53.0426 32.259 53.4148 32.3474 54.0261C32.4358 54.6198 32.4005 54.952 32.2413 55.0229C32.0822 55.0938 31.7683 55.0096 31.2997 54.7704C30.7957 54.5046 30.5128 54.2122 30.4509 53.8932Z" fill="white"/>
<path id="Vector_60" d="M34.045 54.797C33.5056 54.6109 33.1918 54.3983 33.1033 54.159C33.0238 53.9552 33.1608 53.6628 33.5145 53.2819C33.8681 52.9097 34.1245 52.7591 34.2837 52.83C34.5931 52.9629 34.8097 53.304 34.9335 53.8533C35.0396 54.3318 35.0485 54.6596 34.96 54.8368L34.045 54.797Z" fill="white"/>
<path id="Vector_61" d="M35.4905 53.6938C35.3844 53.4812 35.5347 53.1755 35.9415 52.7768C36.3393 52.3869 36.6267 52.2275 36.8035 52.2983C37.0068 52.3869 37.2058 52.7103 37.4003 53.2686C37.586 53.8179 37.6346 54.1546 37.5462 54.2786L36.5383 54.2521C35.9547 54.1103 35.6055 53.9242 35.4905 53.6938Z" fill="white"/>
<path id="Vector_62" d="M50.5299 55.7406C50.4061 55.6166 50.5033 55.2976 50.8216 54.7837C51.1399 54.2609 51.4096 54.004 51.6306 54.0128C51.9224 54.0305 52.2495 54.3495 52.612 54.9697C52.9568 55.5545 53.0895 55.9001 53.0099 56.0064C52.9126 56.1305 52.5369 56.1703 51.8826 56.126C51.2018 56.0817 50.7509 55.9532 50.5299 55.7406Z" fill="white"/>
<path id="Vector_63" d="M53.421 55.0096C53.2972 54.8767 53.3768 54.5445 53.6597 54.0128C53.9338 53.4812 54.1725 53.2243 54.3759 53.242C54.5704 53.2597 54.8445 53.5698 55.1981 54.1723C55.5341 54.766 55.6712 55.1292 55.6093 55.2621C55.5297 55.395 55.207 55.4438 54.6411 55.4083C54.0399 55.3729 53.6332 55.24 53.421 55.0096Z" fill="white"/>
<path id="Vector_64" d="M55.6358 53.7869C55.4943 53.6097 55.5385 53.273 55.7684 52.7768C55.9894 52.2983 56.1663 52.068 56.2989 52.0857C56.5288 52.1123 56.8117 52.4047 57.1477 52.9629C57.4748 53.5122 57.5986 53.8578 57.519 53.9995C57.4571 54.1502 57.1786 54.2078 56.6835 54.1723C56.1618 54.1369 55.8126 54.0084 55.6358 53.7869Z" fill="white"/>
<path id="Vector_65" d="M10.0139 54.0394L10.5975 54.7704C10.9865 55.3109 11.2031 55.7318 11.2473 56.033L10.319 55.5546C9.7089 55.209 9.42155 54.9609 9.45692 54.8103C9.49228 54.6597 9.59838 54.4869 9.77521 54.2919L10.0139 54.0394Z" fill="#DBDCDC"/>
<path id="Vector_66" d="M12.9979 54.0926L13.5019 54.7172C13.8555 55.2134 14.0898 55.6609 14.2048 56.0596C13.1173 55.6786 12.5602 55.302 12.5337 54.9299C12.516 54.6995 12.5868 54.4913 12.7459 54.3052L12.9979 54.0926Z" fill="#DBDCDC"/>
<path id="Vector_67" d="M17.1622 55.7406C16.5964 55.6165 16.1897 55.4925 15.9421 55.3685C15.6592 55.2355 15.5 55.0716 15.4647 54.8767C15.4293 54.7084 15.4647 54.5134 15.5708 54.2919L15.7432 54.0128C15.9819 54.128 16.2737 54.4115 16.6185 54.8634C16.9103 55.2533 17.0915 55.5457 17.1622 55.7406Z" fill="#DBDCDC"/>
<path id="Vector_68" d="M21.2205 55.1691L21.3531 55.9799C21.468 56.5912 21.6095 57.0697 21.7775 57.4152L21.2735 56.9766C20.9464 56.6134 20.7917 56.2412 20.8093 55.8602C20.827 55.5944 20.8933 55.3995 21.0083 55.2755C21.0967 55.178 21.1674 55.1425 21.2205 55.1691Z" fill="#DBDCDC"/>
<path id="Vector_69" d="M23.6076 55.5944L24.1116 56.4184L24.7747 57.6411C24.5272 57.5614 24.2796 57.4462 24.032 57.2956C23.5369 56.9943 23.307 56.6709 23.3424 56.3254C23.3778 55.9887 23.4308 55.7672 23.5015 55.6608L23.6076 55.5944Z" fill="#DBDCDC"/>
<path id="Vector_70" d="M26.0081 55.1159L26.6314 55.714C27.0735 56.1659 27.3432 56.5425 27.4404 56.8437L26.6182 56.5779C26.07 56.3652 25.8047 56.157 25.8224 55.9532L25.9285 55.3552L26.0081 55.1159Z" fill="#DBDCDC"/>
<path id="Vector_71" d="M30.8886 53.2951C30.9681 53.3483 31.1361 53.5477 31.3925 53.8932C31.7108 54.3274 31.8877 54.6774 31.923 54.9432L30.9681 54.4913C30.7206 54.3407 30.5924 54.1502 30.5835 53.9198C30.5747 53.7514 30.6233 53.5964 30.7294 53.4546L30.8886 53.2951Z" fill="#DBDCDC"/>
<path id="Vector_72" d="M33.3686 53.3749L33.8062 53.6806C34.1422 53.9907 34.434 54.3983 34.6815 54.9033L33.9654 54.7039C33.4791 54.5267 33.2094 54.3229 33.1564 54.0926C33.1033 53.8622 33.121 53.6761 33.2094 53.5344L33.3686 53.3749Z" fill="#DBDCDC"/>
<path id="Vector_73" d="M35.8619 52.8433L36.4057 53.242C36.7947 53.5875 37.0599 53.9464 37.2014 54.3185L36.4454 54.2122C35.9149 54.0793 35.6011 53.8799 35.5038 53.6141C35.4508 53.4901 35.4729 53.335 35.5701 53.1489C35.6585 52.9717 35.7558 52.8698 35.8619 52.8433Z" fill="#DBDCDC"/>
<path id="Vector_74" d="M50.8747 54.7172C51.6174 55.0716 52.2142 55.5147 52.6651 56.0463L51.6704 56.0596C51.0073 56.0241 50.6625 55.8912 50.636 55.6609C50.6094 55.4305 50.6404 55.2045 50.7288 54.983L50.8747 54.7172Z" fill="#DBDCDC"/>
<path id="Vector_75" d="M53.6465 54.1458C53.7968 54.1901 54.0487 54.323 54.4024 54.5445C54.8798 54.8369 55.176 55.116 55.291 55.3818L54.3626 55.3419C53.7349 55.271 53.4166 55.1337 53.4077 54.9299C53.3901 54.735 53.4254 54.5445 53.5138 54.3584L53.6465 54.1458Z" fill="#DBDCDC"/>
<path id="Vector_76" d="M55.7419 52.8433L56.3254 53.2021C56.7587 53.5034 57.0593 53.8223 57.2273 54.159L56.5376 54.1059C56.0602 54.035 55.764 53.9154 55.6491 53.747C55.5341 53.5787 55.5164 53.3749 55.596 53.1357L55.7419 52.8433Z" fill="#DBDCDC"/>
<path id="Vector_77" d="M50.2779 55.8203C50.2071 55.5634 50.3486 55.1514 50.7023 54.5843C51.0559 54.0084 51.361 53.716 51.6174 53.7071C51.8738 53.6983 52.2318 54.035 52.6916 54.7172C53.1425 55.3818 53.337 55.8336 53.2751 56.0729C53.2221 56.2855 52.727 56.352 51.7898 56.2722C50.8526 56.1925 50.3486 56.0418 50.2779 55.8203ZM51.1399 54.7837C50.9189 55.1381 50.8305 55.395 50.8747 55.5545C50.9631 55.6786 51.277 55.7805 51.8163 55.8602C52.3379 55.94 52.6209 55.9355 52.6651 55.8469C52.7093 55.7495 52.5899 55.4659 52.307 54.9963C52.0064 54.5179 51.7721 54.2742 51.6041 54.2653C51.5068 54.2565 51.3521 54.4293 51.1399 54.7837Z" fill="#0D131A"/>
<path id="Vector_78" d="M55.3308 55.1558C55.3838 55.0761 55.2689 54.7926 54.9859 54.3052C54.7119 53.8179 54.5041 53.561 54.3626 53.5344C54.2565 53.5255 54.1062 53.7116 53.9117 54.0926C53.7083 54.4736 53.6244 54.7394 53.6597 54.89C53.6862 55.0229 53.9647 55.1204 54.4952 55.1824L55.3308 55.1558ZM54.4289 52.9363C54.7119 52.9718 55.0478 53.366 55.4369 54.1192C55.8082 54.8369 55.9541 55.2799 55.8745 55.4482C55.7949 55.6254 55.375 55.6786 54.6146 55.6077C53.8365 55.528 53.3679 55.3773 53.2088 55.1558C53.0673 54.9609 53.1602 54.54 53.4873 53.8932C53.8144 53.2198 54.1283 52.9009 54.4289 52.9363Z" fill="#0D131A"/>
<path id="Vector_79" d="M55.9408 52.923C55.8082 53.2243 55.7817 53.4724 55.8613 53.6673C55.8966 53.7736 56.1309 53.8578 56.5642 53.9198L57.267 53.8799C57.3201 53.7913 57.2273 53.5344 56.9885 53.1091C56.7498 52.6572 56.542 52.4357 56.3652 52.4446C56.2149 52.4623 56.0735 52.6218 55.9408 52.923ZM55.6491 52.5908C55.9231 52.0857 56.1574 51.8332 56.352 51.8332C56.6791 51.8332 57.0239 52.2009 57.3864 52.9363C57.7401 53.6451 57.8638 54.0882 57.7577 54.2654L56.5774 54.3052C55.8524 54.2166 55.459 54.0926 55.3971 53.9331C55.2645 53.5875 55.3485 53.1401 55.6491 52.5908Z" fill="#0D131A"/>
<path id="Vector_80" d="M24.7482 55.5014C24.5979 55.3242 24.452 55.2444 24.3105 55.2622C24.1072 55.271 23.9259 55.3995 23.7668 55.6476C23.6077 55.8868 23.5413 56.1172 23.5679 56.3387C23.5944 56.5425 23.7668 56.7728 24.0851 57.0298C24.3945 57.269 24.6023 57.3665 24.7084 57.3222C24.7791 57.2956 24.8543 57.1671 24.9339 56.9368C25.04 56.671 25.0753 56.4229 25.04 56.1925C25.0134 55.9178 24.9162 55.6874 24.7482 55.5014ZM23.3689 55.3286C23.6695 54.8856 23.9967 54.6774 24.3503 54.7039C24.6067 54.7217 24.8366 54.8546 25.04 55.1027C25.2433 55.3508 25.3715 55.6564 25.4246 56.0197C25.4865 56.3741 25.4599 56.7596 25.345 57.176C25.2301 57.5836 25.0886 57.8184 24.9206 57.8804C24.7084 57.9601 24.368 57.845 23.8994 57.5348C23.3955 57.1893 23.1081 56.8127 23.0374 56.4051C22.9843 56.095 23.0948 55.7362 23.3689 55.3286Z" fill="#0D131A"/>
<path id="Vector_81" d="M22.2151 55.4748C22.1002 55.3153 21.972 55.2267 21.8305 55.209C21.6625 55.1913 21.4857 55.2622 21.3 55.4216C21.1055 55.5811 21.0083 55.7539 21.0083 55.94C21.0171 56.1703 21.1453 56.445 21.3929 56.764C21.6139 57.0652 21.7775 57.2159 21.8836 57.2159C21.9808 57.207 22.0869 57.0785 22.2019 56.8304C22.3256 56.5823 22.392 56.3343 22.4008 56.0862C22.4096 55.8558 22.3478 55.652 22.2151 55.4748ZM20.8491 55.0362C21.1763 54.7438 21.5167 54.6198 21.8703 54.6641C22.1621 54.6995 22.4141 54.859 22.6263 55.1425C22.8296 55.4261 22.9224 55.7406 22.9048 56.0862C22.8959 56.3697 22.7854 56.733 22.5732 57.176C22.3433 57.6367 22.1444 57.876 21.9764 57.8937C21.7819 57.9203 21.4769 57.6943 21.0613 57.2159C20.6192 56.7197 20.3894 56.2988 20.3717 55.9533C20.354 55.6254 20.5132 55.3197 20.8491 55.0362Z" fill="#0D131A"/>
<path id="Vector_82" d="M27.3211 55.209C27.1177 54.9255 26.932 54.7837 26.7641 54.7837C26.5961 54.766 26.4281 54.89 26.2601 55.1558C26.0833 55.4305 26.017 55.6875 26.0612 55.9267C26.1054 56.1393 26.3529 56.3254 26.8038 56.4849C27.2371 56.6266 27.489 56.6665 27.5598 56.6045C27.6217 56.5513 27.6349 56.3653 27.5996 56.0463C27.5642 55.7007 27.4714 55.4216 27.3211 55.209ZM26.8569 54.1989C27.2901 54.2609 27.6305 54.7172 27.8781 55.5678C28.108 56.3653 28.1522 56.8437 28.0107 57.0032L26.7641 56.9235C26.0214 56.7197 25.6191 56.4539 25.5572 56.126C25.4865 55.7628 25.5881 55.3463 25.8622 54.8767C26.1628 54.3717 26.4944 54.1457 26.8569 54.1989Z" fill="#0D131A"/>
<path id="Vector_83" d="M17.6132 54.4248C17.8342 55.2754 17.8563 55.7539 17.6795 55.8602C17.4496 55.9931 16.9987 55.9665 16.3267 55.7805C15.6282 55.5856 15.2392 55.3508 15.1597 55.0761C15.0536 54.7482 15.1773 54.3274 15.531 53.8135C15.8935 53.2819 16.256 53.0293 16.6185 53.0559C17.0429 53.0825 17.3744 53.5388 17.6132 54.4248ZM15.7167 54.8634C15.7432 55.0495 15.9863 55.2178 16.4461 55.3685C16.8882 55.5102 17.1578 55.5368 17.2551 55.4482C17.3258 55.3862 17.286 55.0894 17.1357 54.5577C16.9766 53.9907 16.7909 53.6894 16.5787 53.654C16.4019 53.6274 16.2074 53.747 15.9952 54.0128C15.7564 54.2964 15.6636 54.5799 15.7167 54.8634Z" fill="#0D131A"/>
<path id="Vector_84" d="M12.7857 54.9432C12.7857 55.147 13.0288 55.3596 13.5151 55.5811C13.9926 55.7938 14.2666 55.8514 14.3374 55.7539C14.417 55.6564 14.3948 55.3685 14.2711 54.89C14.1384 54.3761 13.966 54.097 13.7538 54.0527C13.5505 54.0084 13.3383 54.1014 13.1173 54.3318C12.9139 54.5445 12.8034 54.7394 12.7857 54.9166V54.9432ZM12.7724 53.8932C13.1526 53.5388 13.4886 53.3882 13.7804 53.4413C14.2224 53.5211 14.5407 53.9863 14.7352 54.8368C14.9209 55.6431 14.9253 56.1216 14.7485 56.2722C14.5805 56.4317 14.1119 56.3431 13.3427 56.0064C12.5381 55.6697 12.1535 55.2887 12.1889 54.8634C12.2154 54.5622 12.4099 54.2388 12.7724 53.8932Z" fill="#0D131A"/>
<path id="Vector_85" d="M35.7558 53.5078C35.7823 53.685 36.0387 53.8533 36.525 54.0128C36.9936 54.1634 37.2588 54.1989 37.3207 54.1191C37.3826 54.0394 37.3428 53.7647 37.2014 53.2951C37.0511 52.7989 36.8875 52.542 36.7107 52.5243C36.5604 52.5066 36.357 52.6217 36.1006 52.8698C35.8442 53.1268 35.7293 53.3394 35.7558 53.5078ZM35.7691 52.6173C36.2288 52.1743 36.5913 51.9971 36.8566 52.0857C37.1925 52.2097 37.4666 52.6306 37.6788 53.3483C37.8822 54.0305 37.9175 54.4337 37.7849 54.5577C37.6523 54.6729 37.2191 54.633 36.4852 54.4381C35.7337 54.2343 35.3137 54.0084 35.2253 53.7603C35.1192 53.4502 35.3005 53.0692 35.7691 52.6173Z" fill="#0D131A"/>
<path id="Vector_86" d="M34.0715 54.571C34.4605 54.704 34.686 54.7394 34.7479 54.6774C34.8098 54.6154 34.7965 54.3628 34.7081 53.9198C34.6108 53.4502 34.4738 53.1933 34.297 53.149C34.1201 53.1047 33.9124 53.2021 33.6736 53.4413C33.4349 53.6894 33.3377 53.9065 33.3819 54.0926C33.4349 54.2787 33.6648 54.4381 34.0715 54.571ZM34.4031 52.6572C34.6948 52.7281 34.938 53.1135 35.1325 53.8135C35.3093 54.4957 35.327 54.9432 35.1855 55.1558C35.0971 55.2887 34.7037 55.2311 34.0052 54.9831C33.2802 54.7261 32.8912 54.4559 32.8381 54.1723C32.7762 53.8888 32.9442 53.5477 33.3421 53.149C33.7488 52.7414 34.1024 52.5775 34.4031 52.6572Z" fill="#0D131A"/>
<path id="Vector_87" d="M31.3925 54.5445C31.7816 54.7571 32.0159 54.8369 32.0954 54.7837C32.1662 54.7394 32.175 54.4824 32.1219 54.0128C32.0601 53.5167 31.9363 53.2376 31.7506 53.1755C31.5738 53.1135 31.3616 53.1755 31.114 53.3616C30.8753 53.5388 30.7604 53.716 30.7692 53.8932C30.778 54.1059 30.9858 54.323 31.3925 54.5445ZM31.8965 52.6838C32.2678 52.7635 32.4889 53.2021 32.5596 53.9996C32.6215 54.7527 32.5773 55.1824 32.427 55.2887C32.259 55.3951 31.8434 55.271 31.1803 54.9166C30.5084 54.5445 30.1591 54.2211 30.1326 53.9464C30.1061 53.6894 30.2962 53.3971 30.7029 53.0692C31.1361 52.7325 31.534 52.6041 31.8965 52.6838Z" fill="#0D131A"/>
<path id="Vector_88" d="M10.4914 55.3818C10.96 55.621 11.2296 55.6963 11.3004 55.6077C11.3799 55.5191 11.3667 55.24 11.2606 54.7704C11.1456 54.2831 11.0086 54.0173 10.8495 53.973C10.6638 53.911 10.4383 53.9818 10.1731 54.1856C9.90784 54.3894 9.77522 54.5888 9.77522 54.7837C9.78406 54.9343 10.0228 55.1337 10.4914 55.3818ZM10.9688 53.3749C11.349 53.4546 11.6187 53.9198 11.7778 54.7704C11.9281 55.5856 11.9237 56.0419 11.7645 56.1393C11.4905 56.3254 10.9953 56.2279 10.2792 55.8469C9.57186 55.4748 9.20494 55.1425 9.17842 54.8502C9.14305 54.5135 9.35083 54.1635 9.80174 53.8002C10.2438 53.4458 10.6328 53.304 10.9688 53.3749Z" fill="#0D131A"/>
</g>
</g>
</svg>
