<svg width="51" height="56" viewBox="0 0 51 56" fill="none" xmlns="http://www.w3.org/2000/svg">
<g id="jigglypuff 1" clip-path="url(#clip0_6_633)">
<g id="Group">
<path id="Vector" d="M21.2757 50.531C22.0568 50.5722 23.1515 51.0608 24.5596 51.9971C25.9574 52.923 26.4918 53.5094 26.1629 53.7563C25.4024 54.3119 23.5061 54.7594 20.474 55.0989C17.3392 55.459 15.1602 55.423 13.9371 54.9909C13.6082 54.888 13.4746 54.5948 13.5363 54.1113C13.598 53.638 13.8189 53.2111 14.1992 52.8304C14.7748 52.2646 15.9568 51.7193 17.7452 51.1946C19.3588 50.7213 20.5357 50.5001 21.2757 50.531Z" fill="#F6C8DD"/>
<path id="Vector_2" d="M17.776 51.2255C18.4132 50.6802 19.6723 50.3047 21.5532 50.0989L25.4846 50.2224C26.4713 50.5413 27.1188 51.0146 27.4272 51.6421C27.8177 52.424 27.386 53.1751 26.1321 53.8952L24.945 54.3273L23.172 54.6977C23.3056 54.3685 22.8071 53.7358 21.6765 52.7995C20.3918 51.7399 19.0916 51.2152 17.776 51.2255Z" fill="#D5ADBF"/>
<path id="Vector_3" d="M25.2071 50.2841C25.3099 50.1503 25.5206 50.1503 25.8392 50.2841C27.0726 50.8088 27.7406 51.4569 27.8434 52.2285C27.9359 52.959 27.5145 53.5351 26.5792 53.9569C24.133 55.0475 21.4145 55.6545 18.4235 55.778C15.6176 55.9014 13.8703 55.5928 13.1817 54.852C12.7192 54.245 13.0172 53.5043 14.0759 52.6298C15.2168 51.7039 16.815 51.0043 18.8706 50.531L20.0578 50.3458L21.2449 50.2687L21.8924 50.3767C22.1596 50.4487 22.2264 50.4898 22.0928 50.5001C19.2149 50.8499 16.964 51.4929 15.3401 52.4292C13.9834 53.2111 13.4746 53.8335 13.8138 54.2965C14.4716 55.0166 16.3987 55.2378 19.5952 54.96C22.6478 54.6925 24.9244 54.1884 26.425 53.4477C27.1548 53.0876 27.4683 52.6452 27.3655 52.1205C27.2524 51.5547 26.6357 51.066 25.5154 50.6545C25.1968 50.5413 25.094 50.4178 25.2071 50.2841Z" fill="#0D131A"/>
<path id="Vector_4" d="M32.1756 49.0958L35.9066 49.281L39.5142 49.6514C39.6067 49.6102 40.1155 49.8263 41.0405 50.2995C41.945 50.7625 42.4846 51.0763 42.6593 51.2409C43.5535 52.0639 44.0777 52.8613 44.2319 53.6329C44.3449 54.2399 44.2833 54.5588 44.0469 54.5897C41.8679 54.96 39.4217 54.5485 36.7083 53.3551C35.3208 52.7378 33.9024 51.925 32.4532 50.9168C32.0318 50.6287 31.8622 50.2532 31.9444 49.7903L32.1756 49.0958L31.8827 49.1575L32.1756 48.9261V49.0958Z" fill="#F6C8DD"/>
<path id="Vector_5" d="M32.484 49.1267C33.9949 48.6226 35.2642 48.4374 36.292 48.5711C36.8059 48.6328 37.8492 48.9518 39.4217 49.5279C39.802 49.6617 40.3005 49.924 40.9172 50.315C41.5339 50.7059 41.7086 50.8654 41.4414 50.7934L40.3159 50.5156C39.7301 50.4538 39.1288 50.567 38.5121 50.8551C37.2993 51.4415 36.6363 52.2286 36.5233 53.2162C35.9888 53.1956 35.3259 52.9899 34.5345 52.5989C33.3217 52.0125 32.5148 51.1946 32.114 50.1452C32.042 49.96 32.0523 49.7543 32.1448 49.5279C32.227 49.3119 32.3401 49.1781 32.484 49.1267Z" fill="#D5ADBF"/>
<path id="Vector_6" d="M33.4244 48.2779C36.0248 48.103 38.6868 48.7357 41.4105 50.1761C42.4178 50.7008 43.2452 51.3438 43.8927 52.1051C44.571 52.9076 44.8742 53.638 44.8023 54.2965C44.7612 54.5022 44.6327 54.6823 44.4169 54.8366C44.2319 54.9806 44.0263 55.0732 43.8002 55.1144C43.276 55.2173 42.5874 55.2121 41.7343 55.099C40.0384 54.8726 38.2397 54.3685 36.3383 53.5866L34.4882 52.7224C33.7996 52.352 33.2394 51.9662 32.8077 51.565C32.4686 51.2563 32.2116 50.886 32.0369 50.4539C31.8313 49.96 31.8108 49.5434 31.9752 49.2039C32.0266 49.1215 32.0986 49.0804 32.1911 49.0804L32.2065 49.0958L32.3298 49.2501L32.2836 49.7285C32.3144 50.2327 32.484 50.6442 32.7923 50.9631C33.2343 51.4261 33.815 51.8479 34.5345 52.2286C34.9661 52.4549 35.6342 52.743 36.5387 53.0928C38.1832 53.7101 39.7917 54.137 41.3643 54.3736L43.1218 54.4971L43.8002 54.4045L44.1085 54.1885C44.1599 53.7666 43.8567 53.1751 43.1989 52.4137C42.5206 51.6216 41.7548 50.994 40.9018 50.531C39.7609 49.9034 38.7331 49.4765 37.8183 49.2501C36.9755 49.0444 35.6856 48.8798 33.9486 48.7563C33.7944 48.746 33.6146 48.6689 33.409 48.5248C33.2035 48.3808 33.2086 48.2985 33.4244 48.2779Z" fill="#0D131A"/>
<path id="Vector_7" d="M39.8996 14.6666C44.8743 18.5555 47.3616 23.7407 47.3616 30.2222C47.3616 36.6935 45.1107 41.9147 40.6088 45.8859C36.364 49.6308 31.0913 51.5032 24.7908 51.5032C18.3567 51.5032 13.1046 49.4405 9.03447 45.3149C5.12879 41.3643 3.17595 36.4826 3.17595 30.6698C3.17595 24.4557 5.14935 19.3477 9.09614 15.3456C12.971 11.4052 17.8428 9.43506 23.7116 9.43506C30.0224 9.43506 35.4184 11.1789 39.8996 14.6666Z" fill="#F6C8DD"/>
<path id="Vector_8" d="M39.8842 6.61096C40.8298 10.3867 41.1227 13.2622 40.763 15.2376C40.2388 14.7952 39.4834 14.2448 38.4967 13.5863C37.325 12.8044 36.4616 12.3209 35.9066 12.1357C35.5572 11.3435 35.0946 10.5307 34.5191 9.6974C33.8818 8.77147 33.26 8.06159 32.6536 7.56776C32.263 7.24882 31.6874 6.85787 30.9269 6.39491C30.0224 5.83935 29.2412 5.42782 28.5835 5.16033C30.4541 3.74057 32.078 2.63974 33.4553 1.85784C35.1717 0.890757 36.3948 0.484375 37.1246 0.638698C38.029 0.834172 38.9489 2.82493 39.8842 6.61096Z" fill="#F6C8DD"/>
<path id="Vector_9" d="M47.2074 27.0741L48.6103 26.6574C49.5662 26.4311 50.0904 26.4311 50.1829 26.6574C50.3679 27.0792 50.2394 27.9743 49.7975 29.3426C49.2425 31.0299 48.3996 32.4342 47.269 33.5556L47.4078 29.9908L47.3153 27.9846L47.2074 27.0741Z" fill="#F6C8DD"/>
<path id="Vector_10" d="M18.701 23.2469C21.2089 23.2469 23.2697 24.1008 24.8833 25.8086C26.2503 27.2593 26.9338 28.8076 26.9338 30.4537C26.9338 33.0052 26.0859 35.14 24.39 36.8581C22.7763 38.4836 20.88 39.2964 18.701 39.2964C16.6763 39.2964 14.929 38.4322 13.4592 36.7038C12.0408 35.0371 11.3316 33.1544 11.3316 31.0556C11.3316 29.0288 12.0203 27.2387 13.3975 25.6852C14.8467 24.0597 16.6146 23.2469 18.701 23.2469Z" fill="white"/>
<path id="Vector_11" d="M36.8933 20.6851C37.4792 19.7592 38.1215 19.2962 38.8204 19.2962C40.3005 19.2962 41.6572 20.1347 42.8906 21.8117C44.0726 23.4372 44.6636 25.145 44.6636 26.9352C44.6636 28.9105 44.4888 30.3611 44.1394 31.2871C43.646 32.5731 42.7467 33.2161 41.4414 33.2161C39.9408 33.2161 38.6303 32.2181 37.51 30.2222C36.4616 28.3601 35.9374 26.3848 35.9374 24.2963C35.9374 22.8971 36.2561 21.6934 36.8933 20.6851Z" fill="white"/>
<path id="Vector_12" d="M19.2715 24.1265C20.8749 24.1265 22.3189 24.6975 23.6037 25.8395C24.9399 27.0329 25.6079 28.463 25.6079 30.1297C25.6079 32.1461 24.9296 33.7665 23.5729 34.9908C22.3395 36.1019 20.844 36.6575 19.0865 36.6575C17.6167 36.6575 16.296 36.035 15.1243 34.7902C13.9834 33.5762 13.4129 32.2387 13.4129 30.7778C13.4129 28.9362 13.9731 27.3673 15.0934 26.071C16.2343 24.7747 17.627 24.1265 19.2715 24.1265Z" fill="#2CB5A9"/>
<path id="Vector_13" d="M37.5562 21.0709C37.9674 20.3713 38.4247 20.0215 38.9284 20.0215C40.2028 20.0215 41.354 20.6903 42.3818 22.0277C43.4302 23.3961 43.9544 24.9856 43.9544 26.7963C43.9544 28.1337 43.7385 29.2294 43.3068 30.0833C42.8752 30.9475 42.3099 31.3796 41.6109 31.3796C40.429 31.3796 39.3343 30.5617 38.3271 28.9259C37.3507 27.3313 36.8625 25.6697 36.8625 23.9413C36.8625 22.8096 37.0937 21.8528 37.5562 21.0709Z" fill="#2CB5A9"/>
<path id="Vector_14" d="M38.5892 13.6018C37.438 12.8816 36.5438 12.3929 35.9066 12.1357C35.4132 11.1172 34.9764 10.3147 34.5961 9.72827C34.37 9.3579 33.9794 8.88979 33.4244 8.32394L32.6536 7.56776L33.2548 6.56467C33.7276 5.81364 34.1593 5.24264 34.5499 4.85169C35.1666 4.23441 35.7987 3.68914 36.4462 3.21588L37.1862 4.7128C37.7207 5.93709 38.0855 7.12537 38.2808 8.27764C38.4761 9.4402 38.5892 10.6748 38.62 11.9814L38.5892 13.6018Z" fill="#0D131A"/>
<path id="Vector_15" d="M34.442 35.9013C33.3011 35.1708 32.3709 34.785 31.6515 34.7439L30.7573 34.8056L30.4643 34.8828L30.4489 34.5278C30.4489 34.2809 30.4952 34.142 30.5877 34.1112L31.6823 33.9105C32.4223 33.7768 33.0441 33.6173 33.5478 33.4321L35.2437 32.7223C35.7576 32.4959 36.0299 32.4085 36.0608 32.4599L36.4308 33.463C36.6363 34.1523 36.7391 34.749 36.7391 35.2531L36.6158 38.7408L35.922 37.5834C35.3773 36.7501 34.8839 36.1894 34.442 35.9013Z" fill="#922F00"/>
<path id="Vector_16" d="M34.3957 35.7933C35.0432 36.4208 35.6085 37.1719 36.0916 38.0464C36.328 38.4887 36.5027 38.8694 36.6158 39.1883L36.1841 41.2254C35.7627 42.5731 35.2437 43.247 34.627 43.247C33.9692 43.247 33.3165 42.7532 32.669 41.7655C32.1756 41.0042 31.7183 40.0165 31.2969 38.8025C31.0194 37.9692 30.7984 37.0536 30.6339 36.0556L30.4643 34.8056L31.8519 34.7439C32.9105 34.8159 33.7585 35.1657 34.3957 35.7933Z" fill="#ED8599"/>
<path id="Vector_17" d="M4.22431 37.1667C3.56651 35.1708 3.22219 33.2984 3.19136 31.5494C3.24275 33.0515 3.7361 34.7387 4.67141 36.6112C5.73005 38.7511 7.16899 40.7213 8.98822 42.5217C13.5209 47.0176 18.958 49.2656 25.2996 49.2656C31.8467 49.2656 37.3044 47.1154 41.6726 42.8149C43.3274 41.1791 44.6738 39.3735 45.7119 37.3982C46.6061 35.6904 47.1149 34.1832 47.2382 32.8766C47.2382 34.677 46.786 36.606 45.8815 38.6637C44.8948 40.8962 43.5124 42.9229 41.7343 44.7439C37.325 49.2501 31.6206 51.5032 24.6212 51.5032C17.3752 51.5032 11.7582 48.9466 7.77026 43.8334C6.22854 41.8581 5.04656 39.6359 4.22431 37.1667Z" fill="#D5ADBF"/>
<path id="Vector_18" d="M50.1521 26.7346L50.1058 27.7994C49.9927 28.7047 49.7358 29.641 49.3349 30.608C48.9341 31.5751 48.4407 32.3519 47.8549 32.9383L47.0995 33.5247L47.5311 30.0525C48.7748 29.1471 49.6484 28.0412 50.1521 26.7346Z" fill="#D5ADBF"/>
<path id="Vector_19" d="M19.0094 46.0248C19.1636 45.6853 19.5438 45.6081 20.1503 45.7933C21.1781 46.102 22.4731 46.1277 24.0354 45.8705C25.7107 45.5927 27.2165 45.0577 28.5526 44.2655L28.4139 44.8211C28.1877 45.2738 27.7355 45.711 27.0571 46.1328C26.5227 46.4621 25.5 46.8273 23.9891 47.2285C23.1977 47.4446 22.4834 47.5372 21.8461 47.5063C21.0239 47.4754 20.2171 47.2542 19.4256 46.8427C18.9837 46.6164 18.8449 46.3437 19.0094 46.0248Z" fill="#F6C8DD"/>
<path id="Vector_20" d="M46.9299 30.2531C46.9299 24.214 44.7509 19.2808 40.393 15.4536C36.0454 11.6367 30.4284 9.72828 23.542 9.72828C20.8594 9.72828 18.3105 10.2324 15.8951 11.2406C13.4798 12.2489 11.3419 13.6995 9.48157 15.5925C7.60068 17.5267 6.1566 19.7746 5.14935 22.3364C4.14209 24.8981 3.63847 27.6193 3.63847 30.5C3.63847 33.2264 4.13695 35.8344 5.13393 38.3241C6.13091 40.8036 7.5647 43.0104 9.43532 44.9446C11.3984 46.961 13.6956 48.5043 16.3268 49.5742C18.958 50.6545 21.7588 51.1946 24.7292 51.1946C27.792 51.1946 30.6699 50.7214 33.3628 49.7748C36.0659 48.8283 38.4145 47.4652 40.4084 45.6853C42.536 43.782 44.1548 41.5238 45.2648 38.9106C46.3749 36.2871 46.9299 33.4013 46.9299 30.2531ZM40.8555 15.0524C45.3368 18.9825 47.5774 24.0494 47.5774 30.2531C47.5774 36.5803 45.4447 41.7501 41.1793 45.7625C36.9241 49.7646 31.4408 51.7656 24.7292 51.7656C18.2539 51.7656 12.9659 49.6771 8.86489 45.5001C4.90781 41.4775 2.92928 36.4774 2.92928 30.5C2.92928 23.9979 5.01059 18.751 9.17323 14.7592C13.0686 11.0246 17.8582 9.15729 23.542 9.15729C30.6031 9.15729 36.3743 11.1223 40.8555 15.0524Z" fill="#0D131A"/>
<path id="Vector_21" d="M40.3467 7.25912C41.2307 11.1995 41.4465 13.9053 40.9943 15.3765L40.8555 15.5462L40.6397 15.5771C40.4649 15.5256 40.4033 15.4073 40.4547 15.2221C40.8761 13.8127 40.6551 11.1995 39.7917 7.38257C38.9078 3.49366 37.9931 1.35373 37.0475 0.962777C36.6055 0.777591 35.5571 1.11196 33.9024 1.96587C32.0831 2.90209 30.2896 4.11095 28.5218 5.59244L28.3059 5.65417L28.1209 5.54614L28.0438 5.33009L28.1518 5.1449C29.9299 3.65312 31.7388 2.42884 33.5786 1.47204C35.4287 0.515243 36.662 0.165447 37.2787 0.42265C38.399 0.895904 39.4217 3.17473 40.3467 7.25912Z" fill="#0D131A"/>
<path id="Vector_22" d="M36.9395 2.7529L37.4175 2.78376C37.4072 2.87636 37.2582 2.98953 36.9704 3.12327C36.5284 3.31875 35.9271 3.82287 35.1666 4.63563C34.2313 5.613 33.4501 6.68297 32.8232 7.84553C32.782 7.91754 32.6793 7.88668 32.5148 7.75293C32.3401 7.61919 32.2733 7.51631 32.3144 7.44429C32.9825 6.22 33.8253 5.12946 34.8428 4.17266C35.7062 3.37019 36.4051 2.89693 36.9395 2.7529Z" fill="#0D131A"/>
<path id="Vector_23" d="M38.5892 8.32395C39.0517 10.3919 39.1904 12.182 39.0054 13.6944L38.6508 13.7098C38.4453 13.5143 38.3476 13.3651 38.3579 13.2623C38.584 11.9248 38.4658 10.253 38.0033 8.24679C37.6025 6.50809 37.0372 4.86713 36.3074 3.32391C36.5336 3.16959 36.6569 3.10786 36.6774 3.13873C37.4997 4.59964 38.1369 6.32805 38.5892 8.32395Z" fill="#0D131A"/>
<path id="Vector_24" d="M36.2766 24.25C36.2766 26.6162 36.8316 28.6893 37.9417 30.4691C39.0003 32.1461 40.1515 32.9846 41.3951 32.9846C43.3685 32.9846 44.3552 31.1944 44.3552 27.6142C44.3552 25.536 43.8053 23.6738 42.7056 22.0277C41.5955 20.3816 40.3468 19.5586 38.9592 19.5586C38.3117 19.5586 37.7258 19.9341 37.2016 20.6851C36.585 21.5802 36.2766 22.7685 36.2766 24.25ZM35.6908 24.25C35.6908 22.6862 36.0402 21.4104 36.7391 20.4228C37.3764 19.5277 38.1267 19.0802 38.99 19.0802C40.5626 19.0802 41.9656 19.9392 43.1989 21.6573C44.4426 23.3858 45.0644 25.3714 45.0644 27.6142C45.0644 29.8261 44.6481 31.4105 43.8156 32.3673C43.2092 33.0772 42.3921 33.4321 41.3643 33.4321C39.874 33.4321 38.5584 32.5113 37.4175 30.6698C36.2663 28.8179 35.6908 26.678 35.6908 24.25Z" fill="#0D131A"/>
<path id="Vector_25" d="M37.7412 21.2407C37.361 21.9197 37.1708 22.7685 37.1708 23.787C37.1708 25.6286 37.6333 27.3055 38.5584 28.8179C39.4834 30.3303 40.5112 31.0864 41.6418 31.0864C42.2585 31.0864 42.757 30.6698 43.1373 29.8364C43.4867 29.0751 43.6614 28.18 43.6614 27.1512C43.6614 25.3199 43.1938 23.7201 42.2585 22.3518C41.3129 20.9835 40.2131 20.2993 38.9592 20.2993C38.4967 20.2993 38.0907 20.6131 37.7412 21.2407ZM36.6004 23.787C36.6004 22.573 36.847 21.5802 37.3404 20.8086C37.8029 20.0884 38.3425 19.7283 38.9592 19.7283C40.4701 19.7283 41.7446 20.5154 42.7827 22.0895C43.7488 23.5607 44.2319 25.2479 44.2319 27.1512C44.2319 28.3549 44.0109 29.3837 43.5689 30.2377C43.0859 31.1842 42.4435 31.6574 41.6418 31.6574C40.3467 31.6574 39.1853 30.8498 38.1575 29.2346C37.1194 27.6296 36.6004 25.8138 36.6004 23.787Z" fill="#0D131A"/>
<path id="Vector_26" d="M24.4208 25.7315C22.951 24.25 21.1781 23.5092 19.1019 23.5092C16.9538 23.5092 15.1756 24.214 13.7675 25.6234C12.3697 27.0329 11.6708 28.8179 11.6708 30.9784C11.6708 33.1801 12.3749 35.0577 13.783 36.6112C15.1911 38.175 16.8869 38.9569 18.8706 38.9569C20.8543 38.9569 22.617 38.2315 24.1587 36.7809C25.8135 35.2274 26.6409 33.319 26.6409 31.0556C26.6409 28.9774 25.9009 27.2027 24.4208 25.7315ZM13.3204 25.2376C14.8827 23.7047 16.8099 22.9382 19.1019 22.9382C21.3425 22.9382 23.2542 23.7304 24.8371 25.3148C26.4199 26.9095 27.2113 28.823 27.2113 31.0556C27.2113 33.4836 26.3223 35.5309 24.5441 37.1976C22.8894 38.7614 20.9982 39.5433 18.8706 39.5433C16.7225 39.5433 14.8673 38.7048 13.305 37.0278C11.7325 35.3509 10.9462 33.3344 10.9462 30.9784C10.9462 28.6944 11.7376 26.7808 13.3204 25.2376Z" fill="#0D131A"/>
<path id="Vector_27" d="M25.3458 30.2222C25.3458 28.6276 24.7548 27.2592 23.5729 26.1173C22.3909 24.9856 20.9674 24.4197 19.3023 24.4197C17.8428 24.4197 16.5735 24.9804 15.4943 26.1018C14.3226 27.3158 13.7367 28.8693 13.7367 30.7624C13.7367 32.285 14.3174 33.6173 15.4788 34.7593C16.63 35.9013 17.9816 36.4723 19.5336 36.4723C21.1061 36.4723 22.468 35.855 23.6191 34.6204C24.7703 33.3755 25.3458 31.9095 25.3458 30.2222ZM13.1508 30.7624C13.1508 28.6944 13.7984 27.002 15.0934 25.6852C16.2857 24.4609 17.6886 23.8487 19.3023 23.8487C21.1318 23.8487 22.6941 24.4712 23.9891 25.716C25.2842 26.9609 25.9317 28.463 25.9317 30.2222C25.9317 32.0741 25.2996 33.6739 24.0354 35.0216C22.7712 36.3694 21.2706 37.0433 19.5336 37.0433C17.8377 37.0433 16.3525 36.4157 15.078 35.1605C13.7932 33.9054 13.1508 32.4393 13.1508 30.7624Z" fill="#0D131A"/>
<path id="Vector_28" d="M35.3362 32.3828L35.7987 32.1667C35.9117 32.1358 36.0094 32.1358 36.0916 32.1667C36.4513 32.321 36.7134 33 36.8779 34.2038C37.0321 35.356 37.0577 36.642 36.955 38.0618C36.6877 41.6832 35.9066 43.4939 34.6116 43.4939C33.3473 43.4939 32.1911 42.0124 31.1427 39.0495C30.7521 37.9281 30.4695 36.8529 30.2947 35.8241C30.1303 34.8159 30.1252 34.2192 30.2793 34.034C30.3307 33.9723 30.4181 33.9208 30.5414 33.8797L31.1427 33.7562L33.3011 33.1852C34.2056 32.8972 34.8839 32.6297 35.3362 32.3828ZM36.2458 34.4507C36.1327 33.5762 36.0094 33.0155 35.8758 32.7686C35.7935 32.82 35.7062 32.8663 35.6137 32.9074C34.7914 33.3498 34.0257 33.6688 33.3165 33.8642L31.2506 34.3272L30.7264 34.4352L30.711 34.6359C30.711 35.3252 30.9063 36.3694 31.2969 37.7686C31.7594 39.4147 32.3041 40.7007 32.9311 41.6266C33.5067 42.4806 34.0668 42.9075 34.6116 42.9075C35.0844 42.9075 35.4698 42.5474 35.7678 41.8273C36.1995 40.8087 36.4154 39.3272 36.4154 37.3828C36.4154 36.3643 36.3588 35.3869 36.2458 34.4507Z" fill="#0D131A"/>
<path id="Vector_29" d="M30.4181 34.6667C31.744 34.2037 33.1418 34.533 34.6116 35.6544C36.1738 36.8272 36.8573 38.2881 36.662 40.0371C36.6518 40.1194 36.5901 40.1606 36.477 40.1606C36.364 40.1606 36.3126 40.1194 36.3229 40.0371C36.4565 38.8231 35.8552 37.5937 34.5191 36.3488C33.1212 35.0525 31.7851 34.6255 30.5106 35.0679C30.4386 35.0885 30.3873 35.0319 30.3564 34.8982C30.3256 34.7644 30.3461 34.6873 30.4181 34.6667Z" fill="#0D131A"/>
<path id="Vector_30" d="M22.0928 41.3643C21.8461 41.1997 21.7485 41.0762 21.7999 40.9939C21.841 40.9013 21.99 40.927 22.247 41.0711C22.7403 41.3488 23.3673 41.6112 24.1279 41.8581L25.9934 42.4445C26.9903 42.7737 27.6636 43.0258 28.013 43.2007C28.5475 43.4785 28.8404 43.7923 28.8918 44.1421C28.9637 44.6976 28.64 45.2583 27.9205 45.8242C27.2627 46.3386 26.3891 46.7758 25.2996 47.1359C22.7403 47.9693 20.8183 47.9538 19.5336 47.0896C19.2149 46.8838 19.0916 46.7347 19.1636 46.6421C19.2252 46.5598 19.4102 46.6215 19.7186 46.8273C20.4483 47.3108 21.5995 47.424 23.172 47.1668C24.6623 46.9199 25.9523 46.4569 27.0417 45.7779C27.9565 45.212 28.383 44.6925 28.3214 44.2192C28.2905 44.0238 28.0182 43.8128 27.5042 43.5865L25.8238 43.0001L23.9891 42.3519C23.2697 42.0536 22.6376 41.7244 22.0928 41.3643Z" fill="#0D131A"/>
<path id="Vector_31" d="M46.9607 26.6728C48.8416 26.1893 49.9568 26.0864 50.3062 26.3642C50.7688 26.7448 50.7225 27.7274 50.1675 29.3117C49.5302 31.1019 48.4459 32.9023 46.9145 34.713C46.8631 34.7644 46.8682 34.5741 46.9299 34.142C46.9813 33.7099 47.0327 33.4579 47.0841 33.3858C48.3483 31.822 49.2168 30.3045 49.6896 28.8333C50.0493 27.7428 50.1367 27.0741 49.9516 26.8272L48.8416 26.8889C48.266 27.0432 47.675 27.2593 47.0686 27.537C46.9967 27.5679 46.9402 27.4393 46.899 27.1512C46.8682 26.8529 46.8888 26.6934 46.9607 26.6728Z" fill="#0D131A"/>
<path id="Vector_32" d="M23.542 27.4444C23.542 28.1132 23.3056 28.6893 22.8328 29.1728C22.3498 29.6461 21.7742 29.8827 21.1061 29.8827C20.438 29.8827 19.8676 29.6461 19.3948 29.1728C18.922 28.6893 18.6856 28.1132 18.6856 27.4444C18.6856 26.7757 18.922 26.1996 19.3948 25.716C19.8676 25.2428 20.438 25.0061 21.1061 25.0061C21.7742 25.0061 22.3498 25.2428 22.8328 25.716C23.3056 26.1996 23.542 26.7757 23.542 27.4444Z" fill="white"/>
<path id="Vector_33" d="M41.873 21.9351C42.13 22.3981 42.2328 22.8559 42.1814 23.3086C42.13 23.7613 41.9399 24.0802 41.611 24.2654C41.2821 24.4403 40.912 24.4352 40.5009 24.25C40.0898 24.0545 39.7558 23.7253 39.4988 23.2623C39.2419 22.8096 39.1391 22.357 39.1905 21.9043C39.2419 21.4516 39.432 21.1327 39.7609 20.9475C40.0795 20.7623 40.4495 20.7674 40.8709 20.9629C41.2718 21.1584 41.6058 21.4825 41.873 21.9351Z" fill="white"/>
<path id="Vector_34" d="M28.4601 26.0247C27.3706 26.0247 26.3479 25.6029 25.3921 24.7592C24.3848 23.8745 23.8812 22.8559 23.8812 21.7037C23.8812 21.2716 23.9686 20.7777 24.1433 20.2222C24.3283 19.6358 24.5339 19.2294 24.76 19.003L22.8637 18.5709C21.99 18.3446 21.4042 18.1234 21.1061 17.9073L19.1173 16.3024C18.1203 15.4279 17.5704 14.8003 17.4677 14.4197C17.2415 13.6789 17.1285 12.8044 17.1285 11.7962C17.1285 10.253 17.9507 8.74062 19.5952 7.25913C21.3631 5.67475 23.3365 4.88257 25.5154 4.88257C28.5886 4.88257 31.2557 6.09657 33.5169 8.52457C35.6548 10.8188 36.7237 13.3497 36.7237 16.1172C36.7237 19.2448 36.0094 21.6728 34.5807 23.4012C33.1315 25.1502 31.0913 26.0247 28.4601 26.0247Z" fill="#F6C8DD"/>
<path id="Vector_35" d="M1.81923 11.2715C2.4462 10.6439 4.73821 10.6336 8.69529 11.2406C12.4468 11.8065 15.0934 12.4649 16.6351 13.216C17.1696 13.4834 16.1315 15.9372 13.5209 20.5771C11.1466 24.7952 9.52268 27.4393 8.64904 28.5093C8.1043 29.1883 7.25121 29.3066 6.08979 28.8642C4.91808 28.4115 4.04958 27.6245 3.48429 26.5031C2.61065 24.7952 1.94257 22.0329 1.48005 18.216C0.996982 14.2962 1.11004 11.9814 1.81923 11.2715Z" fill="#F6C8DD"/>
<path id="Vector_36" d="M4.51724 13.7406C5.81228 13.6069 7.19469 13.5812 8.66446 13.6635C10.1342 13.7355 11.825 14.0287 13.7367 14.5431C13.0584 15.8189 12.2156 17.2335 11.2083 18.787C10.5813 19.7541 9.92353 21.1893 9.2349 23.0926C8.89572 24.0391 8.61307 24.893 8.38695 25.6543C8.04777 25.1502 7.66235 24.5175 7.23066 23.7561C6.3673 22.2541 5.72492 20.8909 5.30352 19.6666C4.88212 18.4423 4.62516 17.0843 4.53266 15.5925L4.51724 13.7406Z" fill="#0D131A"/>
<path id="Vector_37" d="M34.3649 23.6018C33.0287 25.2273 31.1478 26.0401 28.7222 26.0401C26.7796 26.0401 25.3664 25.2325 24.4825 23.6172C24.2872 23.2675 24.1484 22.7376 24.0662 22.0277L24.02 21.2098C24.0816 21.7654 24.5904 22.4187 25.5463 23.1697C26.6666 24.0648 27.792 24.5123 28.9226 24.5123C31.0399 24.5123 32.8643 23.5504 34.3957 21.6265C35.701 20.001 36.3948 18.2828 36.477 16.4721C36.4256 19.5792 35.7216 21.9557 34.3649 23.6018Z" fill="#D5ADBF"/>
<path id="Vector_38" d="M1.48006 11.7653C1.42867 14.255 1.77298 16.9608 2.51301 19.8827C3.3147 23 4.32709 25.3302 5.55019 26.8734C6.44439 27.9949 6.52147 28.4938 5.78145 28.3704C5.04142 28.2469 4.44015 27.8817 3.97764 27.2747C3.46373 26.6162 2.99094 25.7417 2.55926 24.6512C1.96313 23.1389 1.56742 21.467 1.37214 19.6357C1.18713 17.9176 1.15116 16.0915 1.26422 14.1573L1.48006 11.7653Z" fill="#D5ADBF"/>
<path id="Vector_39" d="M16.003 12.6604C16.4655 12.9382 16.6506 13.1388 16.558 13.2622C16.4655 13.396 16.1418 13.3343 15.5868 13.0771C14.5281 12.5729 12.159 12.0997 8.47945 11.6573C4.67655 11.184 2.5644 11.1738 2.14299 11.6264C1.37214 12.4495 1.21796 14.8106 1.68048 18.7098C2.14299 22.5782 2.86246 25.2016 3.83888 26.5802C4.36307 27.3313 4.58919 27.7479 4.51724 27.8302C4.45557 27.9126 4.09584 27.6348 3.43804 26.9969C2.28689 25.8858 1.42866 23.2315 0.863369 19.0339C0.287794 14.7746 0.493357 12.1151 1.48006 11.0554C2.09674 10.4073 4.31168 10.2993 8.12486 10.7314C11.9175 11.1532 14.5435 11.7962 16.003 12.6604Z" fill="#0D131A"/>
<path id="Vector_40" d="M9.21947 14.0801C7.27691 13.8847 5.75061 13.8435 4.64057 13.9567C4.58918 14.5945 4.66627 15.4948 4.87183 16.6573C5.09795 17.9948 5.43199 19.2345 5.87395 20.3765C6.30563 21.4979 7.09704 23.0565 8.24819 25.0524C8.74154 23.3343 9.62546 21.2767 10.8999 18.8796C11.6811 17.3878 12.4828 15.9989 13.305 14.7129C12.308 14.4557 10.9462 14.2447 9.21947 14.0801ZM14.1376 14.1264C14.2917 14.1779 14.3791 14.2293 14.3996 14.2808C14.4202 14.3322 14.3842 14.4248 14.2917 14.5585C13.5723 15.6388 12.8014 16.8888 11.9791 18.3086C10.3552 21.1584 9.28114 23.5195 8.75696 25.3919C8.62334 25.8549 8.49487 26.0915 8.37153 26.1018C8.25847 26.1018 8.08374 25.9063 7.84734 25.5154C6.63453 23.4475 5.79686 21.8014 5.33435 20.5771C4.83072 19.2705 4.48126 17.825 4.28598 16.2406C4.10097 14.646 4.16778 13.6532 4.4864 13.2622C4.70224 12.9947 4.86669 12.8816 4.97975 12.9227C5.08253 12.9536 5.04656 13.0976 4.87183 13.3548C6.17715 13.2519 7.88846 13.2982 10.0057 13.4937C11.9894 13.6789 13.3667 13.8898 14.1376 14.1264Z" fill="#0D131A"/>
<path id="Vector_41" d="M36.8933 16.5802C36.8933 19.718 36.1481 22.1255 34.6578 23.8024C33.2086 25.4383 31.1632 26.2562 28.5218 26.2562C26.3839 26.2562 24.8885 25.3302 24.0354 23.4784C23.6756 22.6965 23.5317 21.894 23.6037 21.0709C23.6756 20.2273 23.9634 19.5174 24.4671 18.9413C24.8885 19.0442 25.0632 19.1368 24.9912 19.2191C24.5596 19.6512 24.318 20.2325 24.2666 20.9629C24.205 21.6831 24.3334 22.3981 24.6521 23.108C25.4229 24.8261 26.7128 25.6852 28.5218 25.6852C31.153 25.6852 33.1469 24.7181 34.5036 22.7839C35.6548 21.1584 36.2304 19.0905 36.2304 16.5802C36.2304 13.4526 35.1666 10.7777 33.039 8.55543C30.9114 6.33319 28.3419 5.22207 25.3304 5.22207C23.2234 5.22207 21.3219 6.02969 19.6261 7.64493C17.7966 9.37333 17.0771 11.3126 17.4677 13.4629C17.5602 13.9773 17.5396 14.2448 17.406 14.2653C17.2621 14.2859 17.1439 14.039 17.0514 13.5246C16.63 11.148 17.2724 9.03382 18.9785 7.18196C20.6744 5.35067 22.7917 4.43503 25.3304 4.43503C28.4858 4.43503 31.2044 5.63874 33.4861 8.04616C35.7576 10.4433 36.8933 13.288 36.8933 16.5802Z" fill="#0D131A"/>
<path id="Vector_42" d="M25.9779 19.0648C26.8105 19.4145 27.2935 19.8621 27.4272 20.4074C27.5402 20.8395 27.5042 21.0812 27.3192 21.1327C27.1342 21.1738 26.9852 20.9783 26.8721 20.5462C26.7694 20.1553 26.3325 19.8158 25.5617 19.5277C25.0992 19.3528 24.354 19.1522 23.3262 18.9259L21.9232 18.5401C21.4813 18.3754 21.1524 18.1851 20.9365 17.9691C20.7618 17.7942 20.6898 17.6707 20.7207 17.5987C20.7618 17.5267 20.8903 17.5575 21.1061 17.6913C21.3631 17.8662 21.7125 17.9999 22.1545 18.0925L23.4495 18.3549C24.6418 18.6224 25.4846 18.859 25.9779 19.0648Z" fill="#0D131A"/>
</g>
</g>
<defs>
<clipPath id="clip0_6_633">
<rect width="51" height="56" fill="white"/>
</clipPath>
</defs>
</svg>
