<svg width="68" height="61" viewBox="0 0 68 61" fill="none" xmlns="http://www.w3.org/2000/svg">
<g id="SQUIRTLE 2" clip-path="url(#clip0_2_726)">
<g id="Group">
<path id="Vector" d="M31.1525 31.4644C30.5098 31.1319 29.3851 29.7629 27.7784 27.3575C26.3978 25.2846 25.4814 23.766 25.0291 22.8016C24.6126 21.937 24.1603 20.7509 23.6724 19.2433C23.0892 17.5141 22.8987 16.5774 23.1011 16.4333C23.4105 16.2227 24.3388 16.0952 25.8861 16.0509L26.4216 14.3716C26.8382 13.2409 27.1893 12.6756 27.4749 12.6756C27.7606 12.6756 29.2899 13.7231 32.063 15.8181L36.1334 18.9607L36.9903 20.5735C37.8353 21.8815 38.9243 23.0842 40.2573 24.1816L40.0431 26.4762C39.6741 28.1722 38.9005 29.447 37.7222 30.3005C36.3654 31.287 35.1455 31.8579 34.0625 32.0131C33.1104 32.1461 32.1404 31.9632 31.1525 31.4644Z" fill="#84CABF"/>
<path id="Vector_2" d="M59.1452 3.96287C61.9659 5.83621 63.3762 7.94787 63.3762 10.2979C63.3762 10.7413 63.2453 11.1071 62.9835 11.3953L62.3943 10.647C61.5255 12.2654 61.0911 13.6898 61.0911 14.9202C61.0911 16.7271 61.3946 17.6305 62.0016 17.6305C62.2753 17.6305 62.5253 17.5086 62.7514 17.2647L63.0192 16.8823L63.519 17.4642C63.8404 17.9741 64.0011 18.5173 64.0011 19.0937C64.0011 19.6812 63.7928 20.1911 63.3762 20.6234L62.7514 21.1056C62.3705 22.7462 61.0971 24.2648 58.931 25.6615C56.5506 27.1912 53.9025 27.956 50.9866 27.956C46.5592 27.956 42.7031 26.4762 39.4182 23.5166C36.2286 20.6567 34.6338 17.431 34.6338 13.8395C34.6338 10.0374 36.2286 6.91698 39.4182 4.47831C42.346 2.25026 45.7439 1.13623 49.612 1.13623C53.1349 1.13623 56.3126 2.07844 59.1452 3.96287Z" fill="#84CABF"/>
<path id="Vector_3" d="M58.6989 26.3266C59.2702 26.5593 59.8355 26.8143 60.3949 27.0914C61.2994 27.5459 62.5431 28.2719 64.126 29.2696H65.2686C66.0422 29.3028 66.4409 29.3971 66.4647 29.5522C66.5242 29.785 66.429 30.3504 66.1791 31.2482L66.8396 31.5143C67.2919 31.7138 67.5358 31.8912 67.5715 32.0463C67.6311 32.2791 67.1788 32.8444 66.2148 33.7423C66.5242 34.1635 66.5956 34.546 66.429 34.8896C66.2743 35.2 65.5185 35.5769 64.1617 36.0203C62.6264 36.508 61.1566 36.7519 59.7522 36.7519C58.4668 36.7519 57.2409 36.5856 56.0746 36.253L54.6999 35.7542C54.8784 34.3575 54.938 32.9719 54.8784 31.5974C54.8427 30.7439 54.6642 29.8238 54.3429 28.8373L53.8609 27.6069L56.146 26.9418C56.5506 26.8087 57.1755 26.515 58.0205 26.0605L58.6989 26.3266Z" fill="#84CABF"/>
<path id="Vector_4" d="M26.8858 40.3101C27.5285 40.3101 28.2723 40.6593 29.1174 41.3576C30.1052 42.1668 30.8907 43.2254 31.4739 44.5334C32.8664 47.6815 33.3186 49.7544 32.8307 50.7521C32.6521 51.14 32.182 51.8107 31.4203 52.764C30.4206 54.0165 29.7422 54.9033 29.3851 55.4243L27.1 58.5004C26.2312 59.6089 25.7194 60.1908 25.5647 60.2462C25.3743 60.3238 24.5412 59.6643 23.0654 58.2676C20.6017 59.1876 19.3104 59.6199 19.1914 59.5645C19.0843 59.5202 18.9593 58.7332 18.8165 57.2034C16.8884 56.2501 15.9125 55.6294 15.8887 55.3412C15.8768 55.1638 16.2993 54.7149 17.1562 53.9944L18.4416 52.9635C18.5249 52.0545 18.6856 51.0347 18.9236 49.9041C19.4116 47.6317 20.0721 45.9246 20.9052 44.7829C23.0594 41.801 25.0529 40.3101 26.8858 40.3101Z" fill="#84CABF"/>
<path id="Vector_5" d="M47.2376 48.0252C48.2254 47.4266 49.2906 46.4567 50.4332 45.1154L51.8614 43.2698L53.718 44.8826C54.9439 46.235 55.5568 47.6095 55.5568 49.0062C55.5568 49.9927 55.4735 50.7964 55.3069 51.4171L55.0391 52.049L56.503 52.7307C57.4552 53.2184 57.9015 53.5621 57.842 53.7616C57.7944 53.9833 57.3302 54.3713 56.4495 54.9255C56.3781 54.9698 56.4316 55.0585 56.6101 55.1915C56.7887 55.3356 56.8303 55.4354 56.7351 55.4908C55.5092 56.1781 53.8549 56.8654 51.7721 57.5526C49.7965 58.2177 48.5646 58.5225 48.0767 58.4671C47.7672 58.4339 47.1364 57.8574 46.1843 56.7379C45.3393 55.7402 44.8275 55.0585 44.649 54.6927C44.5419 54.4821 43.7683 53.8059 42.3282 52.6642L40.1859 51.0181C43.2922 49.965 45.6428 48.9674 47.2376 48.0252Z" fill="#84CABF"/>
<path id="Vector_6" d="M0.856918 31.614C0.856918 28.599 1.92211 26.1104 4.05251 24.1484C6.07579 22.275 8.50372 21.3384 11.3363 21.3384C13.8833 21.3384 15.9184 22.1753 17.4418 23.8491C19.0248 25.5783 19.8162 27.9727 19.8162 31.0321L19.477 34.2412C19.2509 36.048 19.1378 37.5832 19.1378 38.8469C19.1378 40.2325 19.4711 41.5904 20.1376 42.9206C20.4589 43.5746 20.7862 44.0956 21.1195 44.4836L20.3339 46.0133L19.477 48.0751C18.6439 48.064 17.6323 47.9254 16.4421 47.6594C14.0618 47.1051 11.979 46.1685 10.1938 44.8494C7.58729 42.9095 5.43905 40.8256 3.74902 38.5975C1.82095 36.048 0.856918 33.7202 0.856918 31.614Z" fill="#84CABF"/>
<path id="Vector_7" d="M40.2573 24.1816L42.0782 25.279C43.5778 26.1104 45.0477 26.781 46.4878 27.2909C47.9279 27.8008 49.5882 28.0059 51.4686 27.9062L53.8609 27.6069L54.4321 29.3028C54.8011 30.6663 54.9856 31.9632 54.9856 33.1936C54.9856 38.1596 53.1349 42.455 49.4334 46.0798C45.6725 49.7599 41.144 51.6 35.8477 51.6C34.9551 51.6 34.1696 51.5058 33.4912 51.3174L32.7414 51.0181C32.8723 50.5193 32.9021 49.8431 32.8307 48.9896C32.6759 47.2825 32.0749 45.5366 31.0276 43.752C29.9921 41.9673 28.915 40.8533 27.7963 40.4099C27.4511 40.2658 27.1238 40.1993 26.8144 40.2103L26.4395 40.2602L27.4928 39.379C28.314 38.5587 29.04 37.5888 29.6708 36.4692C30.3135 35.3496 30.7538 34.2024 30.9919 33.0274L31.1525 31.614L31.6524 31.8302C32.0809 31.9743 32.5331 32.063 33.0092 32.0962C34.5445 32.1849 36.056 31.6584 37.5437 30.5166C38.8053 29.5523 39.6324 28.2054 40.0252 26.4762L40.2573 24.1816Z" fill="#F2E100"/>
<path id="Vector_8" d="M29.6529 30.1674C29.9505 30.5554 30.4801 31.0321 31.2418 31.5974L30.974 33.1437C30.6884 34.3631 30.2718 35.4438 29.7243 36.3861C29.1888 37.3394 28.4628 38.276 27.5463 39.1961L26.3324 40.2935L25.7789 40.4764L24.6364 40.9253C24.315 41.0805 23.9163 41.3853 23.4403 41.8398L22.8154 42.4883C22.9226 41.8564 23.0654 41.1747 23.2439 40.4431C23.589 38.991 23.9223 38.0266 24.2436 37.55C24.4579 37.2396 24.9637 36.6798 25.7611 35.8706C26.5228 35.0836 27.0941 34.3852 27.4749 33.7756C27.9034 33.0883 28.189 32.0352 28.3318 30.6164L28.439 28.6876L29.6529 30.1674Z" fill="#EEEEEF"/>
<path id="Vector_9" d="M28.314 30.5665C28.2069 32.0962 27.9272 33.2047 27.4749 33.892C27.0941 34.4906 26.4692 35.2222 25.6004 36.0868C24.7554 36.9181 24.2377 37.4946 24.0473 37.816C23.6188 38.5254 23.1903 40.0164 22.7619 42.2888L21.1195 44.4836C20.7862 44.1843 20.4589 43.7076 20.1376 43.0536C19.4711 41.7345 19.1378 40.1715 19.1378 38.3647C19.1378 34.1303 20.1019 30.1952 22.0299 26.5593C22.994 24.7414 23.958 23.3503 24.922 22.3859L26.5466 25.3123L28.3318 28.4715L28.314 30.5665Z" fill="#CF7100"/>
<path id="Vector_10" d="M32.4915 16.1839L34.4552 14.9202L35.5264 18.7445L32.4915 16.1839Z" fill="#EEEEEF"/>
<path id="Vector_11" d="M43.7028 14.3882C43.5838 14.1886 43.56 13.6677 43.6314 12.8252C43.7266 11.8941 43.917 10.9796 44.2027 10.0817C45.0358 7.56544 46.3212 6.30731 48.0588 6.30731C48.761 6.30731 49.2787 6.76179 49.612 7.67075C50.0166 8.74598 49.9274 10.1094 49.3442 11.7611C49.0347 12.6257 48.642 13.4182 48.1659 14.1388C47.7018 14.8371 47.309 15.2472 46.9877 15.3692C46.702 15.4689 46.095 15.3636 45.1667 15.0533C44.2741 14.754 43.7861 14.5323 43.7028 14.3882Z" fill="#C6000B"/>
<path id="Vector_12" d="M62.3943 10.647C62.5728 10.647 62.793 10.8854 63.0549 11.362C63.4119 12.0049 63.5904 12.792 63.5904 13.7231C63.5904 14.7761 63.3941 15.7184 63.0013 16.5497C62.6324 17.3257 62.2515 17.7136 61.8588 17.7136C61.2875 17.7136 61.0018 16.9654 61.0018 15.4689C61.0018 14.2718 61.2339 13.1079 61.6981 11.9772L62.3943 10.647Z" fill="#C6000B"/>
<path id="Vector_13" d="M47.1126 15.4191C47.7434 14.8648 48.2492 14.2662 48.6301 13.6233C49.0109 12.9693 49.3501 12.2931 49.6477 11.5948L49.4334 13.4072C49.2311 14.6376 48.9931 15.3193 48.7193 15.4523L47.6661 15.5521L47.1126 15.4191Z" fill="white"/>
<path id="Vector_14" d="M47.3269 8.00328C47.6244 8.05871 47.8505 8.34691 48.0053 8.8679C48.16 9.42214 48.1659 10.0651 48.0231 10.7967C47.8922 11.4507 47.6482 11.9938 47.2912 12.4261C46.9222 12.8806 46.5414 13.0691 46.1486 12.9915C45.7677 12.9139 45.5119 12.598 45.3809 12.0437C45.25 11.5338 45.2619 10.9519 45.4167 10.2978C45.5952 9.54408 45.8868 8.94549 46.2914 8.5021C46.6604 8.11413 47.0055 7.94786 47.3269 8.00328Z" fill="#0D131A"/>
<path id="Vector_15" d="M61.4838 15.8015C61.3053 15.7461 61.2042 15.5188 61.1804 15.1198C61.1566 14.7762 61.1923 14.3937 61.2875 13.9725C61.3827 13.5513 61.5315 13.1688 61.7338 12.8252C61.9718 12.4372 62.192 12.2876 62.3943 12.3763C62.6086 12.465 62.7216 12.7255 62.7335 13.1578C62.7573 13.5125 62.7097 13.9337 62.5907 14.4214C62.4955 14.8094 62.317 15.153 62.0551 15.4523C61.8171 15.7184 61.6267 15.8348 61.4838 15.8015Z" fill="#0D131A"/>
<path id="Vector_16" d="M47.8267 6.47358C48.0528 6.59551 48.2433 6.85601 48.398 7.25506C48.5646 7.7428 48.5706 8.21944 48.4159 8.68501C48.2492 9.19491 47.9457 9.5718 47.5054 9.81566C47.1126 10.0484 46.7437 10.1094 46.3985 9.99856C45.9701 9.87663 45.6844 9.59951 45.5416 9.1672C45.3988 8.72381 45.4404 8.21944 45.6666 7.65412C45.857 7.18855 46.2141 6.83384 46.7377 6.58997C47.2138 6.36827 47.5768 6.32948 47.8267 6.47358Z" fill="white"/>
<path id="Vector_17" d="M62.3586 11.229C62.4657 11.2622 62.5491 11.3953 62.6086 11.628C62.6681 11.8719 62.6681 12.1213 62.6086 12.3763C62.43 13.1411 62.2039 13.5014 61.9302 13.457C61.7635 13.4238 61.6564 13.2908 61.6088 13.058C61.5612 12.8252 61.5791 12.5481 61.6624 12.2266C61.8766 11.495 62.1087 11.1625 62.3586 11.229Z" fill="white"/>
<path id="Vector_18" d="M40.2573 24.1816L42.471 25.3788C44.3276 26.2545 46.1724 26.9141 48.0052 27.3575C49.1597 27.6235 50.4867 27.7233 51.9863 27.6567L53.8787 27.4738L54.1465 28.0891C53.8609 28.3218 53.4443 28.5602 52.8968 28.804C51.8019 29.2696 50.5939 29.5024 49.2728 29.5024C47.8208 29.5024 46.0355 28.8151 43.917 27.4406C42.0128 26.1991 40.7929 25.1128 40.2573 24.1816Z" fill="#CBBD00"/>
<path id="Vector_19" d="M46.4342 48.4907C43.197 50.5636 39.7277 51.6 36.0263 51.6L33.7054 51.3174L32.7414 51.0181L32.9378 50.22C33.033 49.5881 33.0211 49.0284 32.9021 48.5406L32.5807 46.9278L32.4558 46.1795C34.8599 46.9887 37.871 47.3601 41.4891 47.2936C45.4643 47.2271 48.3623 46.5897 50.1833 45.3814C49.3025 46.4234 48.0529 47.4599 46.4342 48.4907Z" fill="#CBBD00"/>
<path id="Vector_20" d="M29.4744 19.7089C29.3554 20.0636 29.2126 20.2853 29.0459 20.374C28.8912 20.4627 28.7782 20.3629 28.7067 20.0747C28.5996 19.5648 28.558 18.9108 28.5818 18.1127L28.6532 17.0652C28.6532 16.6883 28.7127 16.4167 28.8317 16.2504C28.9626 16.0398 29.1293 16.1895 29.3316 16.6994C29.7481 17.7413 29.7957 18.7445 29.4744 19.7089Z" fill="#72B0A6"/>
<path id="Vector_21" d="M31.0276 31.5143C30.2778 30.9822 29.2126 29.7019 27.832 27.6734C26.6061 25.8554 25.7313 24.3756 25.2077 23.2339C24.7911 22.3471 24.3746 21.2996 23.958 20.0913C23.6009 19.0715 23.357 18.29 23.226 17.7469C23.0713 17.1483 23.1011 16.7825 23.3153 16.6495C23.5652 16.4832 24.0056 16.849 24.6364 17.7469L31.2775 25.2292C34.8837 29.2751 36.4845 31.4034 36.0798 31.614C35.4252 31.9577 34.6635 32.1516 33.7947 32.196C32.6878 32.2625 31.7655 32.0353 31.0276 31.5143Z" fill="#72B0A6"/>
<path id="Vector_22" d="M59.4665 36.7352C58.1454 36.7352 56.9553 36.5745 55.896 36.2531L54.6999 35.7542L54.9856 33.1936C55.783 33.637 57.2588 34.0638 59.413 34.4739C62.067 34.9838 64.4057 35.1224 66.429 34.8896C66.2029 35.2 65.7446 35.5104 65.0543 35.8207C63.6618 36.4304 61.7992 36.7352 59.4665 36.7352Z" fill="#72B0A6"/>
<path id="Vector_23" d="M46.6663 48.4409C46.0712 48.8399 45.8868 49.4163 46.1129 50.1701C46.3152 50.8906 46.8448 51.6111 47.7018 52.3316C49.7964 54.0941 52.2779 54.8091 55.1462 54.4766L54.6107 54.2604C54.206 54.1163 54.0275 54.0387 54.0751 54.0276L56.0031 53.8614L57.9491 53.4789C57.6991 53.9445 57.2112 54.4156 56.4852 54.8922C56.4376 54.9144 56.4673 55.0086 56.5744 55.1749C56.6815 55.3301 56.7053 55.4243 56.6458 55.4576C56.146 55.7569 55.1105 56.2668 53.5395 56.9873C51.9804 57.6856 50.6296 58.1401 49.487 58.3507L47.8624 58.4172C47.5887 58.3396 46.5771 57.0815 44.8275 54.6428L40.0966 51.1844L41.4891 50.7188L43.8813 49.8209C44.7978 49.433 45.7261 48.9729 46.6663 48.4409Z" fill="#72B0A6"/>
<path id="Vector_24" d="M16.0315 55.4576C15.9839 55.2469 16.5195 55.3689 17.6382 55.8234C18.7094 56.2557 19.1735 56.6769 19.0307 57.087L17.3883 56.5716L16.0315 55.4576Z" fill="#72B0A6"/>
<path id="Vector_25" d="M22.9404 58.2011L20.6196 59.1987L19.6377 59.3982L19.0307 59.4648L19.1914 58.9327C19.2628 59.0324 19.7508 58.8551 20.6553 58.4006C21.7026 57.8907 22.3334 57.6136 22.5476 57.5692C22.8809 57.4916 23.0832 57.5582 23.1546 57.7688C23.2141 57.9572 23.1427 58.1013 22.9404 58.2011Z" fill="#72B0A6"/>
<path id="Vector_26" d="M24.6899 59.7308C24.809 59.7862 25.1779 59.4703 25.7968 58.783C26.4157 58.0958 26.8798 57.4805 27.1893 56.9374L30.0814 51.733C31.6643 48.718 32.3963 46.9333 32.2772 46.3791L32.7771 48.0584C33.0627 49.311 33.0508 50.2976 32.7414 51.0181C32.4677 51.661 32.063 52.2707 31.5274 52.8471C30.73 53.6895 30.129 54.399 29.7243 54.9754C27.2012 58.5669 25.8444 60.3626 25.654 60.3626L25.0648 60.0467L24.6899 59.7308Z" fill="#72B0A6"/>
<path id="Vector_27" d="M20.4768 45.6142L19.477 48.0751C18.6796 48.1083 17.668 47.9808 16.4421 47.6926C13.9904 47.1162 11.6993 46.0299 9.56891 44.4337C7.34331 42.771 5.4688 40.9142 3.94539 38.8635L2.33867 36.2863C4.63569 37.4613 5.95082 38.0654 6.28406 38.0987C6.62921 38.143 7.77177 37.9102 9.71173 37.4003C10.9019 39.6838 12.699 41.668 15.1032 43.3529C17.2574 44.8605 19.0486 45.6142 20.4768 45.6142Z" fill="#72B0A6"/>
<path id="Vector_28" d="M1.24967 28.3385C1.51151 27.5514 1.87451 26.7977 2.33867 26.0771L2.94566 25.2292C2.5648 27.1801 2.70167 28.937 3.35626 30.5C3.92754 31.8634 4.82016 32.9387 6.03413 33.7257C7.15288 34.4573 8.31924 34.8065 9.53321 34.7732C10.771 34.7289 11.7291 34.291 12.4075 33.4597L12.1754 34.2744C11.973 34.8841 11.7291 35.3884 11.4434 35.7875C11.0626 36.3306 10.4496 36.835 9.60462 37.3006C8.64059 37.8326 7.72416 38.0987 6.85534 38.0987C5.93892 38.0987 5.03439 37.8437 4.14177 37.3338C3.27295 36.8461 2.61241 36.242 2.16015 35.5214C0.72005 33.249 0.416558 30.8547 1.24967 28.3385Z" fill="#72B0A6"/>
<path id="Vector_29" d="M21.4586 27.8396C21.8752 26.9085 22.3215 26.0827 22.7976 25.3622L23.3867 24.5474C22.5417 26.6425 22.2323 29.3583 22.4584 32.6948C22.6726 35.8096 23.1546 37.7384 23.9044 38.4811L22.7619 42.2887L21.1195 44.4835C20.7624 44.2618 20.4113 43.8295 20.0662 43.1866C19.3759 41.9008 19.0843 40.1882 19.1914 38.0488C19.3818 34.2023 20.1376 30.7993 21.4586 27.8396Z" fill="#A95B00"/>
<path id="Vector_30" d="M28.2604 38.4146L26.618 40.2602L25.8325 40.4764C25.2493 40.6648 24.7911 40.8588 24.4579 41.0583L22.7619 42.2887C22.988 41.1913 23.1606 40.432 23.2796 40.0108L23.6545 38.9965L23.9044 38.4811C24.0115 38.7915 24.4519 38.9799 25.2255 39.0464C26.1657 39.124 27.1774 38.9134 28.2604 38.4146Z" fill="#C8C9CA"/>
<path id="Vector_31" d="M61.8766 6.07452C62.7811 7.17192 63.3643 8.24716 63.6261 9.30022C63.888 10.3422 63.7749 11.1181 63.2869 11.628C63.2393 11.6835 63.1739 11.5892 63.0906 11.3454C63.0073 11.0904 62.9835 10.9297 63.0192 10.8632C63.3048 10.4309 63.2512 9.76024 62.8585 8.85128C62.4538 7.92015 61.7992 6.9724 60.8947 6.00801C58.6096 3.58043 55.9139 2.15048 52.8076 1.71817C48.3921 1.09742 44.5121 1.78468 41.1678 3.77996C37.8234 5.77523 35.8418 8.59079 35.2229 12.2266C34.6278 15.7516 35.6573 18.9662 38.3114 21.8704C40.9535 24.7525 44.4705 26.5316 48.8622 27.2078C51.9447 27.6845 54.8606 27.2577 57.6099 25.9275C60.2044 24.6638 61.8111 23.0344 62.43 21.0391L62.7514 21.0557C62.9299 21.1333 63.0073 21.2109 62.9835 21.2885C62.3408 23.3946 60.6567 25.1128 57.9312 26.443C55.0629 27.8286 52.0042 28.272 48.755 27.7731C44.1848 27.0637 40.4894 25.1904 37.6687 22.1531C34.8123 19.0826 33.6995 15.7183 34.3303 12.0603C34.9968 8.14739 37.0379 5.18219 40.4537 3.16475C43.8813 1.13622 48.035 0.465585 52.9147 1.15285C56.6399 1.67383 59.6272 3.31439 61.8766 6.07452Z" fill="#0D131A"/>
<path id="Vector_32" d="M62.8228 16.9155C62.7871 16.8823 62.8287 16.8157 62.9478 16.716C63.0668 16.6273 63.156 16.6051 63.2155 16.6495C63.9415 17.2924 64.2807 18.1293 64.2331 19.1602C64.1736 20.18 63.769 20.9449 63.0192 21.4548L62.6264 21.4215C62.4836 21.2885 62.311 21.1666 62.1087 21.0557C61.823 20.9005 61.5672 20.8229 61.341 20.8229L59.413 21.5712C58.1633 22.0589 57.1874 22.2917 56.4852 22.2695C56.1876 22.2584 55.4497 21.9259 54.2715 21.2719C52.9504 20.5403 52.1351 20.1246 51.8257 20.0248C51.3258 19.8696 50.3439 19.6646 48.88 19.4096L45.5952 18.944C44.7621 18.8664 43.9587 18.5505 43.1851 17.9963C42.4472 17.4753 41.8878 16.8601 41.507 16.1507C41.3284 15.807 41.3046 15.6075 41.4355 15.5521C41.5546 15.4966 41.7033 15.6408 41.8819 15.9844C42.2032 16.5941 42.7209 17.1261 43.435 17.5806C44.161 18.0351 44.9049 18.3011 45.6666 18.3787L49.005 18.8443C50.5165 19.1103 51.5281 19.332 52.0399 19.5094C52.3493 19.6202 53.1468 20.0248 54.4321 20.7232C55.5866 21.355 56.2888 21.682 56.5387 21.7042C57.1814 21.7485 58.1216 21.5268 59.3594 21.0391L61.3053 20.2576C61.8171 20.2354 62.3348 20.435 62.8585 20.8562C63.2869 20.5015 63.525 19.914 63.5726 19.0937C63.6202 18.1958 63.3703 17.4698 62.8228 16.9155Z" fill="#0D131A"/>
<path id="Vector_33" d="M54.6821 18.3288C54.8249 18.2623 55.0391 18.4341 55.3248 18.8443C55.6223 19.2544 55.6759 19.4983 55.4854 19.5759C55.295 19.6535 55.0808 19.4817 54.8427 19.0604C54.6047 18.6281 54.5512 18.3843 54.6821 18.3288Z" fill="#0D131A"/>
<path id="Vector_34" d="M59.4487 19.4096C59.5201 19.5426 59.3832 19.7311 59.0381 19.9749C58.7048 20.2077 58.5025 20.2798 58.4311 20.1911C58.3597 20.1024 58.4965 19.914 58.8417 19.6258C59.1749 19.3376 59.3773 19.2655 59.4487 19.4096Z" fill="#0D131A"/>
<path id="Vector_35" d="M61.8588 8.96767L62.2694 8.91779C62.317 8.98429 62.2337 9.08406 62.0194 9.21708L61.591 9.63276L61.1625 10.2646C61.0554 10.4752 60.9364 10.5473 60.8055 10.4808C60.6745 10.4142 60.6567 10.2757 60.7519 10.0651C61.0256 9.52191 61.3946 9.15611 61.8588 8.96767Z" fill="#0D131A"/>
<path id="Vector_36" d="M49.2728 5.34294C49.0466 5.23209 48.9514 5.12678 48.9871 5.02702C49.0347 4.93834 49.1716 4.93834 49.3977 5.02702C49.8262 5.20438 50.1833 5.45933 50.4689 5.79187C50.7783 6.15767 50.9569 6.56227 51.0045 7.00567C51.0283 7.36038 50.9747 7.54328 50.8438 7.55437C50.701 7.55437 50.5998 7.38809 50.5403 7.05555C50.3737 6.27961 49.9512 5.70874 49.2728 5.34294Z" fill="#0D131A"/>
<path id="Vector_37" d="M49.7012 14.1055C49.3918 15.1031 49.1121 15.6518 48.8622 15.7516C48.3742 15.9511 47.3804 15.8735 45.8808 15.5188C44.3217 15.153 43.4826 14.754 43.3636 14.3216C43.2565 13.9226 43.2565 13.2797 43.3636 12.3929C43.4707 11.3952 43.685 10.4475 44.0063 9.54961C44.887 7.09986 46.1903 5.93041 47.916 6.04126C49.6893 6.1521 50.4748 7.75387 50.2725 10.8465C50.2011 11.9772 50.0107 13.0635 49.7012 14.1055ZM47.8803 6.60658C47.19 6.56224 46.5592 6.86154 45.9879 7.50446C45.4166 8.15846 44.9346 9.13393 44.5419 10.4309C44.3395 11.096 44.1789 11.8774 44.0599 12.7753C43.9527 13.5512 43.917 14.0224 43.9527 14.1886L44.042 14.2884L44.3812 14.5045C44.9168 14.7595 45.7142 14.9701 46.7734 15.1364L48.5944 15.2528C48.7491 15.0976 48.9336 14.6043 49.1478 13.7729C49.3977 12.8418 49.5525 11.9329 49.612 11.0461L49.6477 10.0318C49.6477 8.72379 49.4513 7.79266 49.0585 7.23842C48.7729 6.85045 48.3802 6.63984 47.8803 6.60658Z" fill="#0D131A"/>
<path id="Vector_38" d="M49.4691 8.23608C49.4572 8.15848 49.5406 8.1086 49.7191 8.08643C49.8976 8.06426 49.9928 8.09197 50.0047 8.16957C50.1832 9.25588 50.0642 10.4808 49.6477 11.8442C49.1716 13.4182 48.4337 14.5932 47.434 15.3692L47.1483 15.3359C47.0055 15.2916 46.9638 15.2472 47.0234 15.2029C47.9755 14.427 48.6777 13.2797 49.13 11.7611C49.5346 10.4309 49.6477 9.25588 49.4691 8.23608Z" fill="#0D131A"/>
<path id="Vector_39" d="M63.0013 11.9606C62.8466 11.4839 62.6562 11.1348 62.43 10.9131C62.0968 11.5116 61.829 12.2543 61.6267 13.1411C61.4481 13.9725 61.3589 14.7706 61.3589 15.5354C61.3589 16.2116 61.4362 16.7492 61.591 17.1483C61.6743 17.3367 61.7516 17.431 61.8231 17.431C61.9778 17.442 62.1265 17.3922 62.2694 17.2813C62.5312 17.0818 62.7514 16.7049 62.9299 16.1506C63.0965 15.5964 63.2036 14.9313 63.2512 14.1554L63.2691 13.7397C63.2691 13.0968 63.1798 12.5037 63.0013 11.9606ZM62.6264 10.0484C62.7692 9.90433 62.8347 9.89879 62.8228 10.0318L62.6264 10.5639C63.0311 10.8521 63.3524 11.3675 63.5904 12.1102C63.8166 12.8086 63.9058 13.5014 63.8582 14.1886C63.7749 15.5521 63.5071 16.5719 63.0549 17.2481C62.6859 17.7912 62.2575 18.0406 61.7695 17.9963C61.46 17.9741 61.2161 17.758 61.0375 17.3478C60.6924 16.5608 60.6745 15.3803 60.984 13.8062C61.3172 12.1324 61.8647 10.8798 62.6264 10.0484Z" fill="#0D131A"/>
<path id="Vector_40" d="M32.4558 16.4666L32.0273 16.0509C32.6938 15.286 33.521 14.8205 34.5088 14.6542C34.6278 14.632 34.6933 14.7263 34.7052 14.9369C34.7171 15.1475 34.6695 15.2639 34.5623 15.286C33.7054 15.5077 33.0032 15.9012 32.4558 16.4666Z" fill="#0D131A"/>
<path id="Vector_41" d="M24.7614 21.9868L25.2077 22.8016C23.958 24.3645 22.8749 26.0605 21.9585 27.8895C20.6374 30.4834 19.846 33.3876 19.5841 36.6022C19.2866 40.2048 19.8698 42.771 21.3337 44.3007C21.3932 44.3561 21.3515 44.4448 21.2087 44.5667C21.0659 44.6886 20.9647 44.7219 20.9052 44.6665C19.3461 43.0481 18.6499 40.36 18.8165 36.6022C18.9593 33.1548 19.6972 30.1287 21.0302 27.5237C22.0537 25.5174 23.2975 23.6717 24.7614 21.9868Z" fill="#0D131A"/>
<path id="Vector_42" d="M27.8677 31.3147C28.0819 29.9956 28.0998 28.8816 27.9212 27.9727C27.8974 27.9061 28.0105 27.9671 28.2604 28.1555C28.4985 28.344 28.6234 28.477 28.6353 28.5546C28.8377 29.5633 28.8198 30.6552 28.5818 31.8302C28.3556 32.9498 28.0046 33.8255 27.5285 34.4573L25.6718 36.4359C25.0053 37.0789 24.5769 37.5832 24.3865 37.949C24.0889 38.5476 23.8033 39.2737 23.5295 40.1272C23.2677 40.9807 23.107 41.6514 23.0475 42.1391L22.7262 42.6047L22.4227 42.8541C22.5179 42.1114 22.7024 41.2357 22.9761 40.227C23.2736 39.1739 23.5712 38.3425 23.8687 37.7329C24.083 37.3006 24.565 36.702 25.3148 35.9371L26.9572 34.0915C27.35 33.5151 27.6535 32.5895 27.8677 31.3147Z" fill="#0D131A"/>
<path id="Vector_43" d="M21.0123 28.5047C21.0242 28.4271 21.1254 28.4105 21.3158 28.4548C21.5063 28.4881 21.5955 28.538 21.5836 28.6045C21.3218 29.846 21.3932 31.3702 21.7978 33.177C22.2501 35.139 22.994 36.8738 24.0294 38.3813C24.077 38.4478 24.0175 38.531 23.8509 38.6307L23.5474 38.664C22.3096 36.8793 21.4884 35.0503 21.0837 33.177C20.7148 31.5364 20.691 29.979 21.0123 28.5047Z" fill="#0D131A"/>
<path id="Vector_44" d="M30.7955 31.5143C30.7955 31.4478 30.9085 31.4644 31.1347 31.5642L31.4739 31.7637C31.4025 34.9672 29.8374 37.8105 26.7787 40.2935C26.7192 40.3378 26.5645 40.3378 26.3145 40.2935C26.0765 40.2491 25.9872 40.2048 26.0467 40.1605C27.1536 39.3734 28.189 38.1818 29.1531 36.5856C30.248 34.7677 30.7955 33.0772 30.7955 31.5143Z" fill="#0D131A"/>
<path id="Vector_45" d="M53.5395 27.7233C53.5038 27.6457 53.5752 27.5736 53.7537 27.5071C53.9323 27.4295 54.0334 27.4295 54.0572 27.5071C54.9023 29.2918 55.3248 30.9933 55.3248 32.6117C55.3248 40.3046 52.1173 45.8692 45.7023 49.3055C43.3101 50.5913 40.781 51.395 38.115 51.7164C35.7347 51.9936 33.9197 51.8439 32.67 51.2675C32.5986 51.2342 32.6045 51.14 32.6878 50.9848C32.7712 50.8186 32.8485 50.7521 32.9199 50.7853C34.1577 51.3617 35.931 51.4837 38.24 51.1511C40.775 50.7964 43.1851 49.9706 45.4702 48.6736C48.1719 47.1439 50.2963 45.1487 51.8435 42.6878C53.6764 39.8058 54.5928 36.447 54.5928 32.6117C54.5928 30.8824 54.2417 29.253 53.5395 27.7233Z" fill="#0D131A"/>
<path id="Vector_46" d="M39.1326 28.804C39.1088 28.7486 39.1564 28.6322 39.2754 28.4549C39.4063 28.2886 39.4837 28.2387 39.5075 28.3052C39.9954 29.3915 40.8762 30.367 42.1496 31.2316C43.435 32.0851 44.9644 32.7225 46.7377 33.1437C48.3444 33.5317 49.8738 33.6758 51.3258 33.5761C52.7778 33.4652 53.8847 33.1271 54.6464 32.5618C54.7059 32.5175 54.7951 32.5673 54.9141 32.7114C55.0332 32.8555 55.0629 32.9498 55.0034 32.9941C54.1465 33.6259 52.9563 34.0195 51.4329 34.1746C49.8619 34.3409 48.2373 34.2245 46.5592 33.8255C44.8097 33.4042 43.2684 32.7336 41.9354 31.8136C40.65 30.9379 39.7158 29.9347 39.1326 28.804Z" fill="#0D131A"/>
<path id="Vector_47" d="M50.1833 33.9086C49.9809 36.0812 48.9931 39.0187 47.2197 42.7211C45.3988 46.5232 43.7802 48.8898 42.3639 49.8209L42.0961 49.6713C41.989 49.5272 41.9652 49.4329 42.0247 49.3886C43.1791 48.6237 44.7025 46.2682 46.5949 42.322C48.4397 38.4645 49.4453 35.6434 49.612 33.8587C49.612 33.7811 49.7072 33.7534 49.8976 33.7756C50.0999 33.7867 50.1952 33.831 50.1833 33.9086Z" fill="#0D131A"/>
<path id="Vector_48" d="M36.901 30.6164L37.1153 30.6829L37.2045 30.8658L37.508 35.2222L37.7222 39.1628L37.6508 39.3457L35.6335 41.1747C34.0982 42.4606 32.664 43.4139 31.3311 44.0346L31.1168 44.0512L30.9383 43.9182L30.9205 43.8018C30.9205 43.691 30.974 43.6078 31.0811 43.5524C32.914 42.6989 34.9373 41.2024 37.151 39.0631L36.9189 35.1556L36.6332 30.8991V30.8824C36.6332 30.7051 36.7225 30.6164 36.901 30.6164Z" fill="#0D131A"/>
<path id="Vector_49" d="M46.2379 43.3695L49.0407 43.4859C50.1833 43.4527 51.0937 43.3529 51.7721 43.1866C51.8554 43.1755 51.8673 43.2531 51.8078 43.4194L51.6114 43.6854C50.945 43.8961 50.0761 44.0402 49.005 44.1178C47.8981 44.2064 46.8984 44.1954 46.0058 44.0845C44.2324 43.8739 42.5722 43.3584 41.0249 42.5382C39.5134 41.729 38.3292 40.7424 37.4723 39.5785C37.4247 39.512 37.4306 39.3845 37.4902 39.1961C37.5378 39.0076 37.5854 38.9411 37.633 38.9966C38.3947 40.0496 39.6027 40.9807 41.257 41.7899C42.7923 42.5326 44.4526 43.0592 46.2379 43.3695Z" fill="#0D131A"/>
<path id="Vector_50" d="M32.9199 49.2888C32.8366 49.2778 32.8128 49.2002 32.8485 49.0561C32.8723 48.912 32.9259 48.8454 33.0092 48.8565L37.5437 49.2556C39.7098 49.3775 41.2511 49.4052 42.1675 49.3387L42.3639 49.3886L42.471 49.5549L42.5603 50.3862C42.5841 50.4638 42.5126 50.5193 42.346 50.5525L42.0782 50.5026L41.9533 49.8874L37.2402 49.7544L32.9199 49.2888Z" fill="#0D131A"/>
<path id="Vector_51" d="M28.0998 40.8588C27.5999 40.5374 27.0048 40.4487 26.3145 40.5928C25.648 40.7147 24.9518 41.0528 24.2258 41.607C23.1903 42.3941 22.1846 43.558 21.2087 45.0988C20.4708 46.2516 19.8281 47.9032 19.2807 50.0537C19.0188 51.1289 18.8224 52.0989 18.6915 52.9635L18.5844 53.1298L16.9598 54.4599C16.4957 54.9033 16.2636 55.1915 16.2636 55.3246C16.2874 55.4576 16.573 55.6793 17.1205 55.9896C17.6561 56.3111 18.275 56.6159 18.9772 56.9041C19.0962 56.9374 19.1557 57.015 19.1557 57.1369C19.1557 58.2343 19.233 58.916 19.3878 59.1821C19.8638 59.0934 21.0659 58.6833 22.994 57.9517L23.3332 58.0182L24.5471 59.2486C24.9875 59.6366 25.2791 59.8472 25.4219 59.8804C25.648 59.7696 26.1955 59.1544 27.0643 58.0348L28.921 55.4742C29.3256 54.8645 30.1944 53.7505 31.5274 52.1321L32.2237 51.2841C32.5212 50.9294 32.67 50.3696 32.67 49.6048L32.5807 48.4907C32.3308 47.0275 31.7714 45.5477 30.9026 44.0513C30.0219 42.5659 29.0876 41.5017 28.0998 40.8588ZM18.7272 49.372C19.1914 47.2659 19.7805 45.653 20.4946 44.5334C21.8038 42.4827 23.2558 41.1082 24.8506 40.4099C26.255 39.778 27.4452 39.778 28.4211 40.4099C30.3968 41.6957 31.8369 43.6744 32.7414 46.3458C33.5983 48.8953 33.5745 50.7077 32.67 51.7829C31.1942 53.5011 30.1111 54.8257 29.4208 55.7569L27.4928 58.6168C26.5764 59.9691 25.9634 60.673 25.654 60.7284C25.1898 60.8282 24.315 60.091 23.0297 58.517C22.2085 59.0047 21.3872 59.4038 20.566 59.7142C19.7686 60.0135 19.2568 60.1243 19.0307 60.0467C18.8403 59.9802 18.7153 59.753 18.6558 59.365C18.6201 59.0657 18.5963 58.384 18.5844 57.3198L16.5671 56.5217C15.7102 56.1338 15.2638 55.7957 15.2281 55.5075C15.2043 55.2636 15.4245 54.9089 15.8887 54.4433C16.4124 53.9112 17.1622 53.357 18.1381 52.7806L18.7272 49.372Z" fill="#0D131A"/>
<path id="Vector_52" d="M54.807 47.5097C54.1882 45.847 53.0992 44.5113 51.54 43.5025C51.4924 43.4693 51.5698 43.3529 51.7721 43.1534C51.9625 42.9428 52.0935 42.8596 52.1649 42.904C53.9025 44.0346 55.057 45.5754 55.6283 47.5263C56.14 49.2667 56.0805 50.741 55.4497 51.9492C57.3659 52.7141 58.324 53.3126 58.324 53.7449C58.324 54.011 57.7586 54.4932 56.628 55.1915L56.0746 54.7592C57.0386 54.2161 57.5206 53.8669 57.5206 53.7117C57.5206 53.5898 57.2469 53.3902 56.6994 53.1131C56.1995 52.8471 55.6104 52.5866 54.932 52.3316L54.7356 52.1654L54.807 51.9159C55.414 50.5968 55.414 49.1281 54.807 47.5097Z" fill="#0D131A"/>
<path id="Vector_53" d="M58.1454 26.0106C58.324 25.8444 58.437 25.7723 58.4846 25.7945C59.3059 26.0716 60.4246 26.6369 61.8409 27.4905C63.3762 28.3994 64.4236 29.1754 64.9829 29.8183C65.1138 29.9735 65.1317 30.1009 65.0365 30.2007C64.9294 30.2894 64.8104 30.2561 64.6794 30.1009C64.1439 29.4802 63.0251 28.7098 61.3232 27.7897C59.776 26.9584 58.6572 26.4596 57.9669 26.2933C57.8955 26.2711 57.955 26.1769 58.1454 26.0106Z" fill="#0D131A"/>
<path id="Vector_54" d="M64.1082 29.2363C63.9653 29.1144 63.9296 29.0479 64.001 29.0368L65.6078 28.9703C66.2505 29.0146 66.6432 29.1255 66.786 29.3029C66.8693 29.4137 66.8753 29.6576 66.8039 30.0345L66.4825 31.082C67.4228 31.348 67.9226 31.6584 67.9821 32.0131C67.994 32.135 67.881 32.3512 67.6429 32.6616C67.3573 33.0384 66.9586 33.4264 66.4468 33.8255C66.6849 34.1026 66.8039 34.4019 66.8039 34.7233C66.8039 35.0448 66.4409 35.4051 65.7149 35.8041C64.9532 36.2143 64.0129 36.5357 62.8942 36.7685C59.9783 37.3782 57.2231 37.1343 54.6285 36.0369C54.5452 36.0036 54.5333 35.8817 54.5928 35.6711C54.6404 35.4494 54.6999 35.3552 54.7713 35.3884C55.4378 35.6656 56.259 35.8983 57.235 36.0868L60.9304 36.4193C62.1444 36.4193 63.3524 36.1755 64.5545 35.6877C65.6018 35.2554 66.1255 34.9229 66.1255 34.6901C66.1255 34.5016 66.0303 34.2412 65.8399 33.9086C65.7684 33.7978 65.7803 33.6925 65.8756 33.5927C66.6968 32.8278 67.1371 32.3235 67.1966 32.0796C67.0895 31.9133 66.7087 31.7194 66.0541 31.4977L65.8577 31.3813V31.1817C66.0719 30.4834 66.179 29.9735 66.179 29.652V29.6188L65.4649 29.4858L64.3938 29.4359L64.1082 29.2363Z" fill="#0D131A"/>
<path id="Vector_55" d="M9.801 28.8539C9.42015 28.7541 9.0631 28.7541 8.72985 28.8539C8.39661 28.9647 8.13477 29.1587 7.94434 29.4359C7.80152 29.6575 7.67656 29.7407 7.56944 29.6853C7.46233 29.6298 7.46828 29.4913 7.58729 29.2696C7.83723 28.804 8.17047 28.4992 8.58703 28.3551C8.95598 28.2331 9.4142 28.2276 9.96167 28.3384C10.89 28.5269 11.6517 29.0313 12.2468 29.8515C12.8419 30.6496 13.1394 31.5531 13.1394 32.5618C13.1394 34.1137 12.4908 35.4826 11.1935 36.6687C9.90811 37.8326 8.44421 38.4146 6.80179 38.4146C5.08795 38.4146 3.58239 37.7107 2.28511 36.3029C0.952131 34.873 0.28564 33.1881 0.28564 31.2482C0.28564 28.1999 1.4639 25.667 3.82043 23.6496C5.99843 21.7873 8.50372 20.8562 11.3363 20.8562C14.2403 20.8562 16.4421 21.8095 17.9417 23.7161C19.4532 25.6227 20.1673 28.3717 20.084 31.9632C20.0721 32.2736 19.965 32.5396 19.7627 32.7613C19.5603 32.9719 19.4651 32.9664 19.477 32.7447C19.7032 29.0978 19.0248 26.2822 17.4418 24.298C15.9779 22.469 13.9428 21.5545 11.3363 21.5545C8.95598 21.5545 6.77203 22.3803 4.78446 24.032C2.51125 25.9164 1.37464 28.3218 1.37464 31.2482C1.37464 33.0661 1.89831 34.6014 2.94566 35.854C3.993 37.1066 5.27838 37.7329 6.80179 37.7329C8.26569 37.7329 9.52131 37.2285 10.5687 36.2198C11.6041 35.2111 12.1218 33.9917 12.1218 32.5618C12.1218 31.5087 11.8719 30.6386 11.372 29.9513C10.9436 29.386 10.4199 29.0202 9.801 28.8539Z" fill="#0D131A"/>
<path id="Vector_56" d="M0.696246 33.4763C0.672443 33.4098 0.767656 33.3932 0.981885 33.4264C1.19611 33.4597 1.30918 33.4985 1.32108 33.5428C2.72548 37.3671 5.23077 40.6759 8.83697 43.4693C12.4551 46.2849 16.0434 47.6926 19.602 47.6926C19.6853 47.6926 19.6972 47.809 19.6377 48.0418C19.5782 48.2746 19.5068 48.391 19.4235 48.391C15.8292 48.391 12.1813 46.9389 8.47992 44.0346C4.7071 41.075 2.11254 37.5555 0.696246 33.4763Z" fill="#0D131A"/>
<path id="Vector_57" d="M39.7217 51.3506C39.6622 51.3174 39.7693 51.2398 40.0431 51.1178C40.3049 50.9959 40.4596 50.946 40.5072 50.9682C42.233 51.7885 44.0004 53.2572 45.8094 55.3744L47.434 57.3697C47.8981 57.9239 48.2135 58.1955 48.3802 58.1844C49.5227 58.1179 51.1711 57.6745 53.3253 56.8542C55.3843 56.0672 56.4197 55.5407 56.4316 55.2747C56.4435 55.1638 56.2769 55.0197 55.9317 54.8423C55.5866 54.665 55.176 54.5153 54.6999 54.3934C54.2358 54.2604 54.0275 54.1385 54.0751 54.0276L54.8427 53.9777C55.5211 54.0997 56.1043 54.3103 56.5923 54.6096C57.0445 54.8978 57.235 55.1361 57.1636 55.3245C56.9136 56.0229 55.6044 56.8044 53.236 57.669C50.9033 58.5114 49.2014 58.8661 48.1302 58.7331C47.8684 58.6999 46.8686 57.741 45.131 55.8566C43.1791 53.7172 41.376 52.2152 39.7217 51.3506Z" fill="#0D131A"/>
<path id="Vector_58" d="M35.8834 18.3288C35.9667 18.3732 36.0382 18.5505 36.0977 18.8609C36.1691 19.1602 36.1691 19.2877 36.0977 19.2433C35.4074 18.8443 33.7709 17.6582 31.1882 15.6851C28.8793 13.9226 27.6594 13.0524 27.5285 13.0746C27.3619 13.0968 27.1238 13.5291 26.8144 14.3715C26.5287 15.1807 26.3502 15.8735 26.2788 16.45C26.2312 16.8934 26.136 17.1095 25.9932 17.0984C25.8504 17.0984 25.7789 16.8767 25.7789 16.4333C25.7908 15.5687 25.9515 14.693 26.261 13.8062C26.5942 12.8862 26.9513 12.3874 27.3321 12.3098C27.6892 12.2433 28.9924 13.0802 31.2418 14.8205C33.9792 16.9488 35.5264 18.1182 35.8834 18.3288Z" fill="#0D131A"/>
<path id="Vector_59" d="M40.2751 24.165L40.5786 24.3313C40.65 25.0407 40.5548 25.8998 40.293 26.9085C40.0193 27.9727 39.6563 28.7985 39.204 29.386C38.1209 30.7827 36.7761 31.7083 35.1693 32.1627C33.5864 32.6172 32.2177 32.4953 31.0633 31.7969C29.5756 30.8991 27.6951 28.3052 25.4219 24.0154C23.1725 19.792 22.2323 17.2037 22.6012 16.2504C22.7202 15.9401 23.2082 15.7627 24.0651 15.7184L26.011 15.8347C26.0824 15.8458 26.1122 15.9401 26.1003 16.1174C26.1003 16.2948 26.0586 16.3779 25.9753 16.3668C25.4755 16.3336 24.9518 16.3336 24.4043 16.3668C23.833 16.4112 23.5057 16.4721 23.4224 16.5497C23.113 17.37 23.9818 19.7865 26.0289 23.7992C28.1474 27.9449 29.9326 30.4557 31.3846 31.3314C32.3963 31.9521 33.5983 32.0297 34.9908 31.5642C36.3833 31.0986 37.5794 30.2173 38.5792 28.9204C39.0433 28.3218 39.4242 27.5293 39.7217 26.5427C40.0074 25.5562 40.0966 24.7691 39.9895 24.1816L40.2751 24.165Z" fill="#0D131A"/>
<path id="Vector_60" d="M30.3135 16.0343C30.8966 16.389 31.2954 16.716 31.5096 17.0153C31.7357 17.3478 31.7655 17.564 31.5988 17.6638C31.4322 17.7524 31.2358 17.636 31.0097 17.3146C30.8669 17.104 30.5574 16.8767 30.0814 16.6329C29.6291 16.4001 29.3316 16.3003 29.1888 16.3336C29.0697 16.4444 28.9805 16.788 28.921 17.3645C28.8615 18.0185 28.8734 18.7778 28.9567 19.6424C29.0043 20.0747 28.9269 20.2964 28.7246 20.3075C28.5342 20.3186 28.4211 20.108 28.3854 19.6757C28.1593 17.2037 28.314 15.8514 28.8496 15.6186C29.159 15.4856 29.647 15.6241 30.3135 16.0343Z" fill="#0D131A"/>
</g>
</g>
<defs>
<clipPath id="clip0_2_726">
<rect width="68" height="61" fill="white"/>
</clipPath>
</defs>
</svg>
